<svg width="152" height="37" viewBox="0 0 152 37" fill="none" xmlns="http://www.w3.org/2000/svg">
<path d="M44.5908 24.367H55.4185V21.0885H48.4392V8.73926H44.5908V24.367Z" fill="#042245"/>
<path d="M61.8341 22.1812C60.2904 22.1812 59.4859 20.8261 59.4859 18.7934C59.4859 16.7607 60.2904 15.3837 61.8341 15.3837C63.3778 15.3837 64.204 16.7607 64.204 18.7934C64.204 20.8261 63.3778 22.1812 61.8341 22.1812ZM61.8558 24.7166C65.4433 24.7166 67.7915 22.1594 67.7915 18.7934C67.7915 15.4274 65.4433 12.8701 61.8558 12.8701C58.2901 12.8701 55.8984 15.4274 55.8984 18.7934C55.8984 22.1594 58.2901 24.7166 61.8558 24.7166Z" fill="#042245"/>
<path d="M74.0009 28.236C75.6533 28.236 77.1101 27.8644 78.0885 26.9901C78.9799 26.1814 79.5669 24.9574 79.5669 23.2744V13.1765H76.1751V14.3786H76.1317C75.4794 13.4388 74.4792 12.8486 73.0008 12.8486C70.2395 12.8486 68.3262 15.1655 68.3262 18.444C68.3262 21.8756 70.6526 23.7553 73.153 23.7553C74.501 23.7553 75.3489 23.2089 76.0012 22.4657H76.0882V23.5804C76.0882 24.9356 75.4576 25.7224 73.9574 25.7224C72.7833 25.7224 72.1963 25.2197 72.0006 24.6296H68.5653C68.9132 26.9683 70.9352 28.236 74.0009 28.236ZM73.9792 21.1106C72.6529 21.1106 71.7832 20.0177 71.7832 18.3348C71.7832 16.6299 72.6529 15.537 73.9792 15.537C75.4576 15.537 76.2404 16.8048 76.2404 18.3129C76.2404 19.8866 75.5229 21.1106 73.9792 21.1106Z" fill="#042245"/>
<path d="M86.5411 22.1812C84.9974 22.1812 84.1929 20.8261 84.1929 18.7934C84.1929 16.7607 84.9974 15.3837 86.5411 15.3837C88.0848 15.3837 88.911 16.7607 88.911 18.7934C88.911 20.8261 88.0848 22.1812 86.5411 22.1812ZM86.5628 24.7166C90.1503 24.7166 92.498 22.1594 92.498 18.7934C92.498 15.4274 90.1503 12.8701 86.5628 12.8701C82.9971 12.8701 80.6055 15.4274 80.6055 18.7934C80.6055 22.1594 82.9971 24.7166 86.5628 24.7166Z" fill="#042245"/>
<path d="M93.5332 24.367H97.0772V13.1762H93.5332V24.367ZM93.5332 11.6244H97.0772V8.73926H93.5332V11.6244Z" fill="#042245"/>
<path d="M98.6152 28.0611H102.159V23.2089H102.203C102.898 24.1487 103.92 24.717 105.355 24.717C108.269 24.717 110.204 22.4002 110.204 18.7719C110.204 15.4059 108.399 12.8486 105.442 12.8486C103.92 12.8486 102.833 13.5262 102.072 14.5316H102.007V13.1765H98.6152V28.0611ZM104.442 21.963C102.92 21.963 102.051 20.7172 102.051 18.903C102.051 17.0889 102.833 15.7119 104.377 15.7119C105.899 15.7119 106.616 16.9796 106.616 18.903C106.616 20.8046 105.79 21.963 104.442 21.963Z" fill="#042245"/>
<path d="M115.972 24.717C118.886 24.717 121.038 23.4493 121.038 21.0013C121.038 18.138 118.734 17.6353 116.777 17.3075C115.364 17.0452 114.103 16.9359 114.103 16.149C114.103 15.4496 114.777 15.1218 115.646 15.1218C116.625 15.1218 117.299 15.4278 117.429 16.4332H120.69C120.517 14.2256 118.821 12.8486 115.668 12.8486C113.037 12.8486 110.863 14.0726 110.863 16.4332C110.863 19.056 112.929 19.5806 114.864 19.9085C116.342 20.1707 117.69 20.28 117.69 21.2855C117.69 22.0067 117.016 22.4002 115.951 22.4002C114.777 22.4002 114.037 21.8537 113.907 20.739H110.559C110.667 23.2089 112.711 24.717 115.972 24.717Z" fill="#042245"/>
<path d="M125.853 24.6954C127.397 24.6954 128.375 24.0834 129.18 22.9906H129.245V24.3676H132.637V13.1768H129.093V19.4279C129.093 20.7612 128.353 21.6791 127.136 21.6791C126.005 21.6791 125.462 21.0016 125.462 19.7776V13.1768H121.939V20.5207C121.939 23.0124 123.287 24.6954 125.853 24.6954Z" fill="#042245"/>
<path d="M134.178 24.3673H137.722V18.0943C137.722 16.761 138.374 15.8212 139.483 15.8212C140.548 15.8212 141.048 16.5206 141.048 17.7228V24.3673H144.592V18.0943C144.592 16.761 145.223 15.8212 146.353 15.8212C147.419 15.8212 147.919 16.5206 147.919 17.7228V24.3673H151.463V17.0889C151.463 14.5753 150.202 12.8486 147.68 12.8486C146.245 12.8486 145.049 13.4606 144.179 14.8158H144.136C143.57 13.6136 142.462 12.8486 141.005 12.8486C139.396 12.8486 138.331 13.6136 137.635 14.7721H137.57V13.1765H134.178V24.3673Z" fill="#042245"/>
<path fill-rule="evenodd" clip-rule="evenodd" d="M8.19415 3.77226C6.91332 4.67259 5.7551 5.73706 4.74966 6.93534C8.85835 6.55188 14.0783 7.17802 20.1386 10.2242C26.6102 13.477 31.8214 13.587 35.4481 12.8837C35.119 11.8821 34.7047 10.9194 34.214 10.0043C30.0623 10.4445 24.7399 9.86185 18.5371 6.74416C14.5983 4.76434 11.1262 3.94879 8.19415 3.77226ZM31.7888 6.53416C28.5102 2.85168 23.7456 0.53418 18.4426 0.53418C16.8852 0.53418 15.3742 0.734076 13.9337 1.10971C15.8847 1.64486 17.9572 2.42777 20.1386 3.52422C24.6799 5.80686 28.6007 6.54182 31.7888 6.53416ZM36.2235 16.3995C31.842 17.2692 25.7917 17.0906 18.5371 13.4441C11.7549 10.0351 6.35678 10.078 2.71612 10.8914C2.5282 10.9333 2.3447 10.9774 2.16564 11.0233C1.68899 12.0654 1.30851 13.1613 1.03551 14.2992C1.32709 14.2209 1.62839 14.1465 1.93925 14.077C6.35601 13.0903 12.5965 13.1332 20.1386 16.9242C26.9209 20.3332 32.319 20.2903 35.9597 19.4769C36.0844 19.4491 36.2073 19.4203 36.3282 19.3906C36.3414 19.1068 36.3481 18.8213 36.3481 18.5342C36.3481 17.8119 36.3058 17.0996 36.2235 16.3995ZM35.7436 23.1892C31.4046 23.9518 25.5305 23.6591 18.5371 20.1441C11.7549 16.7351 6.35678 16.778 2.71612 17.5913C1.908 17.7718 1.18103 17.9916 0.539733 18.2238C0.537984 18.327 0.537109 18.4305 0.537109 18.5342C0.537109 28.4753 8.55366 36.5342 18.4426 36.5342C26.7302 36.5342 33.7028 30.874 35.7436 23.1892Z" fill="#025BDE"/>
</svg>
