<svg width="152" height="37" viewBox="0 0 152 37" fill="none" xmlns="http://www.w3.org/2000/svg">
<path d="M44.7559 24.3651H55.5835V21.0865H48.6042V8.7373H44.7559V24.3651Z" fill="#042245"/>
<path d="M61.9981 22.1793C60.4544 22.1793 59.65 20.8241 59.65 18.7914C59.65 16.7587 60.4544 15.3817 61.9981 15.3817C63.5418 15.3817 64.368 16.7587 64.368 18.7914C64.368 20.8241 63.5418 22.1793 61.9981 22.1793ZM62.0199 24.7147C65.6074 24.7147 67.9555 22.1574 67.9555 18.7914C67.9555 15.4254 65.6074 12.8682 62.0199 12.8682C58.4542 12.8682 56.0625 15.4254 56.0625 18.7914C56.0625 22.1574 58.4542 24.7147 62.0199 24.7147Z" fill="#042245"/>
<path d="M74.1659 28.234C75.8184 28.234 77.2751 27.8625 78.2535 26.9882C79.1449 26.1795 79.732 24.9555 79.732 23.2725V13.1745H76.3402V14.3767H76.2967C75.6444 13.4368 74.6443 12.8467 73.1658 12.8467C70.4045 12.8467 68.4912 15.1635 68.4912 18.4421C68.4912 21.8736 70.8176 23.7533 73.318 23.7533C74.666 23.7533 75.514 23.2069 76.1662 22.4638H76.2532V23.5785C76.2532 24.9336 75.6227 25.7205 74.1225 25.7205C72.9484 25.7205 72.3613 25.2178 72.1657 24.6276H68.7304C69.0783 26.9663 71.1003 28.234 74.1659 28.234ZM74.1442 21.1086C72.8179 21.1086 71.9482 20.0158 71.9482 18.3328C71.9482 16.6279 72.8179 15.5351 74.1442 15.5351C75.6227 15.5351 76.4054 16.8028 76.4054 18.3109C76.4054 19.8846 75.6879 21.1086 74.1442 21.1086Z" fill="#042245"/>
<path d="M86.7052 22.1793C85.1615 22.1793 84.357 20.8241 84.357 18.7914C84.357 16.7587 85.1615 15.3817 86.7052 15.3817C88.2489 15.3817 89.0751 16.7587 89.0751 18.7914C89.0751 20.8241 88.2489 22.1793 86.7052 22.1793ZM86.7269 24.7147C90.3144 24.7147 92.6621 22.1574 92.6621 18.7914C92.6621 15.4254 90.3144 12.8682 86.7269 12.8682C83.1612 12.8682 80.7695 15.4254 80.7695 18.7914C80.7695 22.1574 83.1612 24.7147 86.7269 24.7147Z" fill="#042245"/>
<path d="M93.6982 24.3651H97.2422V13.1743H93.6982V24.3651ZM93.6982 11.6224H97.2422V8.7373H93.6982V11.6224Z" fill="#042245"/>
<path d="M98.7793 28.0592H102.323V23.2069H102.367C103.063 24.1468 104.084 24.7151 105.519 24.7151C108.433 24.7151 110.368 22.3982 110.368 18.7699C110.368 15.404 108.563 12.8467 105.606 12.8467C104.084 12.8467 102.997 13.5242 102.236 14.5297H102.171V13.1745H98.7793V28.0592ZM104.606 21.9611C103.084 21.9611 102.215 20.7152 102.215 18.9011C102.215 17.0869 102.997 15.71 104.541 15.71C106.063 15.71 106.78 16.9777 106.78 18.9011C106.78 20.8026 105.954 21.9611 104.606 21.9611Z" fill="#042245"/>
<path d="M116.137 24.7151C119.051 24.7151 121.203 23.4473 121.203 20.9994C121.203 18.1361 118.899 17.6334 116.942 17.3055C115.529 17.0432 114.268 16.9339 114.268 16.1471C114.268 15.4477 114.942 15.1198 115.811 15.1198C116.79 15.1198 117.464 15.4258 117.594 16.4312H120.856C120.682 14.2237 118.986 12.8467 115.833 12.8467C113.202 12.8467 111.028 14.0707 111.028 16.4312C111.028 19.0541 113.094 19.5787 115.029 19.9065C116.507 20.1688 117.855 20.2781 117.855 21.2835C117.855 22.0048 117.181 22.3982 116.116 22.3982C114.942 22.3982 114.202 21.8518 114.072 20.7371H110.724C110.832 23.2069 112.876 24.7151 116.137 24.7151Z" fill="#042245"/>
<path d="M126.018 24.6935C127.562 24.6935 128.54 24.0815 129.345 22.9886H129.41V24.3656H132.802V13.1748H129.258V19.4259C129.258 20.7592 128.518 21.6772 127.301 21.6772C126.17 21.6772 125.627 20.9996 125.627 19.7756V13.1748H122.104V20.5188C122.104 23.0105 123.453 24.6935 126.018 24.6935Z" fill="#042245"/>
<path d="M134.344 24.3653H137.888V18.0924C137.888 16.7591 138.54 15.8192 139.649 15.8192C140.714 15.8192 141.214 16.5187 141.214 17.7208V24.3653H144.758V18.0924C144.758 16.7591 145.389 15.8192 146.519 15.8192C147.585 15.8192 148.085 16.5187 148.085 17.7208V24.3653H151.629V17.0869C151.629 14.5734 150.368 12.8467 147.846 12.8467C146.411 12.8467 145.215 13.4587 144.345 14.8138H144.302C143.736 13.6117 142.628 12.8467 141.171 12.8467C139.562 12.8467 138.497 13.6117 137.801 14.7701H137.736V13.1745H134.344V24.3653Z" fill="#042245"/>
<path fill-rule="evenodd" clip-rule="evenodd" d="M23.4165 11.051C21.9442 10.062 20.2133 9.53418 18.4426 9.53418V0.53418C21.9839 0.53418 25.4458 1.58986 28.3903 3.56773C31.3349 5.54559 33.6298 8.35681 34.9851 11.6459C36.3403 14.9349 36.6949 18.5542 36.004 22.0458C35.3131 25.5374 33.6078 28.7448 31.1037 31.2621C28.5996 33.7795 25.4091 35.4938 21.9358 36.1883C18.4625 36.8828 14.8622 36.5264 11.5904 35.164C8.31865 33.8016 5.5222 31.4945 3.55473 28.5344C1.58725 25.5743 0.537109 22.0942 0.537109 18.5342H9.48985C9.48985 20.3142 10.0149 22.0543 10.9987 23.5343C11.9824 25.0144 13.3806 26.1679 15.0166 26.8491C16.6524 27.5303 18.4525 27.7085 20.1892 27.3612C21.9258 27.014 23.521 26.1568 24.7732 24.8982C26.0252 23.6394 26.8779 22.0358 27.2233 20.29C27.5687 18.5442 27.3915 16.7345 26.7139 15.0901C26.0362 13.4455 24.8887 12.0399 23.4165 11.051Z" fill="#025BDE"/>
<path fill-rule="evenodd" clip-rule="evenodd" d="M9.48985 0.534184C9.48985 1.71608 9.25828 2.88641 8.80836 3.97834C8.35844 5.07027 7.69899 6.06242 6.86765 6.89815C6.03632 7.73388 5.04938 8.39681 3.96317 8.8491C2.87697 9.30139 1.7128 9.53419 0.53711 9.53419L0.537109 18.5342C2.88849 18.5342 5.21685 18.0686 7.38925 17.164C9.56165 16.2594 11.5355 14.9336 13.1982 13.2621C14.8609 11.5907 16.1798 9.60637 17.0796 7.42249C17.9795 5.23862 18.4426 2.89797 18.4426 0.53418L9.48985 0.534184Z" fill="#025BDE"/>
</svg>
