<svg width="152" height="37" viewBox="0 0 152 37" fill="none" xmlns="http://www.w3.org/2000/svg">
<path d="M44.5908 24.3651H55.4185V21.0865H48.4392V8.7373H44.5908V24.3651Z" fill="#042245"/>
<path d="M61.8341 22.1793C60.2904 22.1793 59.4859 20.8241 59.4859 18.7914C59.4859 16.7587 60.2904 15.3817 61.8341 15.3817C63.3778 15.3817 64.204 16.7587 64.204 18.7914C64.204 20.8241 63.3778 22.1793 61.8341 22.1793ZM61.8558 24.7147C65.4433 24.7147 67.7915 22.1574 67.7915 18.7914C67.7915 15.4254 65.4433 12.8682 61.8558 12.8682C58.2901 12.8682 55.8984 15.4254 55.8984 18.7914C55.8984 22.1574 58.2901 24.7147 61.8558 24.7147Z" fill="#042245"/>
<path d="M74.0009 28.234C75.6533 28.234 77.1101 27.8625 78.0885 26.9882C78.9799 26.1795 79.5669 24.9555 79.5669 23.2725V13.1745H76.1751V14.3767H76.1317C75.4794 13.4368 74.4792 12.8467 73.0008 12.8467C70.2395 12.8467 68.3262 15.1635 68.3262 18.4421C68.3262 21.8736 70.6526 23.7533 73.153 23.7533C74.501 23.7533 75.3489 23.2069 76.0012 22.4638H76.0882V23.5785C76.0882 24.9336 75.4576 25.7205 73.9574 25.7205C72.7833 25.7205 72.1963 25.2178 72.0006 24.6276H68.5653C68.9132 26.9663 70.9352 28.234 74.0009 28.234ZM73.9792 21.1086C72.6529 21.1086 71.7832 20.0158 71.7832 18.3328C71.7832 16.6279 72.6529 15.5351 73.9792 15.5351C75.4576 15.5351 76.2404 16.8028 76.2404 18.3109C76.2404 19.8846 75.5229 21.1086 73.9792 21.1086Z" fill="#042245"/>
<path d="M86.5411 22.1793C84.9974 22.1793 84.1929 20.8241 84.1929 18.7914C84.1929 16.7587 84.9974 15.3817 86.5411 15.3817C88.0848 15.3817 88.911 16.7587 88.911 18.7914C88.911 20.8241 88.0848 22.1793 86.5411 22.1793ZM86.5628 24.7147C90.1503 24.7147 92.498 22.1574 92.498 18.7914C92.498 15.4254 90.1503 12.8682 86.5628 12.8682C82.9971 12.8682 80.6055 15.4254 80.6055 18.7914C80.6055 22.1574 82.9971 24.7147 86.5628 24.7147Z" fill="#042245"/>
<path d="M93.5332 24.3651H97.0772V13.1743H93.5332V24.3651ZM93.5332 11.6224H97.0772V8.7373H93.5332V11.6224Z" fill="#042245"/>
<path d="M98.6152 28.0592H102.159V23.2069H102.203C102.898 24.1468 103.92 24.7151 105.355 24.7151C108.269 24.7151 110.204 22.3982 110.204 18.7699C110.204 15.404 108.399 12.8467 105.442 12.8467C103.92 12.8467 102.833 13.5242 102.072 14.5297H102.007V13.1745H98.6152V28.0592ZM104.442 21.9611C102.92 21.9611 102.051 20.7152 102.051 18.9011C102.051 17.0869 102.833 15.71 104.377 15.71C105.899 15.71 106.616 16.9777 106.616 18.9011C106.616 20.8026 105.79 21.9611 104.442 21.9611Z" fill="#042245"/>
<path d="M115.972 24.7151C118.886 24.7151 121.038 23.4473 121.038 20.9994C121.038 18.1361 118.734 17.6334 116.777 17.3055C115.364 17.0432 114.103 16.9339 114.103 16.1471C114.103 15.4477 114.777 15.1198 115.646 15.1198C116.625 15.1198 117.299 15.4258 117.429 16.4312H120.69C120.517 14.2237 118.821 12.8467 115.668 12.8467C113.037 12.8467 110.863 14.0707 110.863 16.4312C110.863 19.0541 112.929 19.5787 114.864 19.9065C116.342 20.1688 117.69 20.2781 117.69 21.2835C117.69 22.0048 117.016 22.3982 115.951 22.3982C114.777 22.3982 114.037 21.8518 113.907 20.7371H110.559C110.667 23.2069 112.711 24.7151 115.972 24.7151Z" fill="#042245"/>
<path d="M125.853 24.6935C127.397 24.6935 128.375 24.0815 129.18 22.9886H129.245V24.3656H132.637V13.1748H129.093V19.4259C129.093 20.7592 128.353 21.6772 127.136 21.6772C126.005 21.6772 125.462 20.9996 125.462 19.7756V13.1748H121.939V20.5188C121.939 23.0105 123.287 24.6935 125.853 24.6935Z" fill="#042245"/>
<path d="M134.179 24.3653H137.723V18.0924C137.723 16.7591 138.375 15.8192 139.484 15.8192C140.549 15.8192 141.049 16.5187 141.049 17.7208V24.3653H144.593V18.0924C144.593 16.7591 145.224 15.8192 146.354 15.8192C147.42 15.8192 147.92 16.5187 147.92 17.7208V24.3653H151.464V17.0869C151.464 14.5734 150.203 12.8467 147.681 12.8467C146.246 12.8467 145.05 13.4587 144.18 14.8138H144.137C143.571 13.6117 142.463 12.8467 141.006 12.8467C139.397 12.8467 138.331 13.6117 137.636 14.7701H137.571V13.1745H134.179V24.3653Z" fill="#042245"/>
<path fill-rule="evenodd" clip-rule="evenodd" d="M8.19415 3.77226C6.91332 4.67259 5.7551 5.73706 4.74966 6.93534C8.85835 6.55188 14.0783 7.17802 20.1386 10.2242C26.6102 13.477 31.8214 13.587 35.4481 12.8837C35.119 11.8821 34.7047 10.9194 34.214 10.0043C30.0623 10.4445 24.7399 9.86185 18.5371 6.74416C14.5983 4.76434 11.1262 3.94879 8.19415 3.77226ZM31.7888 6.53416C28.5102 2.85168 23.7456 0.53418 18.4426 0.53418C16.8852 0.53418 15.3742 0.734076 13.9337 1.10971C15.8847 1.64486 17.9572 2.42777 20.1386 3.52422C24.6799 5.80686 28.6007 6.54182 31.7888 6.53416ZM36.2235 16.3995C31.842 17.2692 25.7917 17.0906 18.5371 13.4441C11.7549 10.0351 6.35678 10.078 2.71612 10.8914C2.5282 10.9333 2.3447 10.9774 2.16564 11.0233C1.68899 12.0654 1.30851 13.1613 1.03551 14.2992C1.32709 14.2209 1.62839 14.1465 1.93925 14.077C6.35601 13.0903 12.5965 13.1332 20.1386 16.9242C26.9209 20.3332 32.319 20.2903 35.9597 19.4769C36.0844 19.4491 36.2073 19.4203 36.3282 19.3906C36.3414 19.1068 36.3481 18.8213 36.3481 18.5342C36.3481 17.8119 36.3058 17.0996 36.2235 16.3995ZM35.7436 23.1892C31.4046 23.9518 25.5305 23.6591 18.5371 20.1441C11.7549 16.7351 6.35678 16.778 2.71612 17.5913C1.908 17.7718 1.18103 17.9916 0.539733 18.2238C0.537984 18.327 0.537109 18.4305 0.537109 18.5342C0.537109 28.4753 8.55366 36.5342 18.4426 36.5342C26.7302 36.5342 33.7028 30.874 35.7436 23.1892Z" fill="#025BDE"/>
</svg>
