<svg width="152" height="37" viewBox="0 0 152 37" fill="none" xmlns="http://www.w3.org/2000/svg">
<path d="M44.9922 24.4139H55.8198V21.1354H48.8406V8.78613H44.9922V24.4139Z" fill="#042245"/>
<path d="M62.2345 22.2281C60.6908 22.2281 59.8863 20.873 59.8863 18.8403C59.8863 16.8075 60.6908 15.4306 62.2345 15.4306C63.7782 15.4306 64.6044 16.8075 64.6044 18.8403C64.6044 20.873 63.7782 22.2281 62.2345 22.2281ZM62.2562 24.7635C65.8437 24.7635 68.1919 22.2062 68.1919 18.8403C68.1919 15.4743 65.8437 12.917 62.2562 12.917C58.6905 12.917 56.2988 15.4743 56.2988 18.8403C56.2988 22.2062 58.6905 24.7635 62.2562 24.7635Z" fill="#042245"/>
<path d="M74.4023 28.2829C76.0547 28.2829 77.5114 27.9113 78.4898 27.037C79.3813 26.2283 79.9683 25.0043 79.9683 23.3213V13.2234H76.5765V14.4255H76.533C75.8808 13.4856 74.8806 12.8955 73.4021 12.8955C70.6409 12.8955 68.7275 15.2124 68.7275 18.4909C68.7275 21.9225 71.054 23.8022 73.5543 23.8022C74.9023 23.8022 75.7503 23.2557 76.4026 22.5126H76.4895V23.6273C76.4895 24.9825 75.859 25.7693 74.3588 25.7693C73.1847 25.7693 72.5977 25.2666 72.402 24.6765H68.9667C69.3146 27.0152 71.3366 28.2829 74.4023 28.2829ZM74.3805 21.1575C73.0543 21.1575 72.1846 20.0646 72.1846 18.3816C72.1846 16.6768 73.0543 15.5839 74.3805 15.5839C75.859 15.5839 76.6417 16.8516 76.6417 18.3598C76.6417 19.9335 75.9242 21.1575 74.3805 21.1575Z" fill="#042245"/>
<path d="M86.9415 22.2281C85.3978 22.2281 84.5933 20.873 84.5933 18.8403C84.5933 16.8075 85.3978 15.4306 86.9415 15.4306C88.4852 15.4306 89.3114 16.8075 89.3114 18.8403C89.3114 20.873 88.4852 22.2281 86.9415 22.2281ZM86.9632 24.7635C90.5507 24.7635 92.8984 22.2062 92.8984 18.8403C92.8984 15.4743 90.5507 12.917 86.9632 12.917C83.3975 12.917 81.0059 15.4743 81.0059 18.8403C81.0059 22.2062 83.3975 24.7635 86.9632 24.7635Z" fill="#042245"/>
<path d="M93.9346 24.4139H97.4786V13.2231H93.9346V24.4139ZM93.9346 11.6713H97.4786V8.78613H93.9346V11.6713Z" fill="#042245"/>
<path d="M99.0156 28.108H102.56V23.2558H102.603C103.299 24.1956 104.321 24.7639 105.756 24.7639C108.669 24.7639 110.604 22.447 110.604 18.8188C110.604 15.4528 108.8 12.8955 105.843 12.8955C104.321 12.8955 103.234 13.5731 102.473 14.5785H102.407V13.2234H99.0156V28.108ZM104.843 22.0099C103.321 22.0099 102.451 20.764 102.451 18.9499C102.451 17.1358 103.234 15.7588 104.777 15.7588C106.299 15.7588 107.017 17.0265 107.017 18.9499C107.017 20.8515 106.191 22.0099 104.843 22.0099Z" fill="#042245"/>
<path d="M116.374 24.7639C119.287 24.7639 121.44 23.4962 121.44 21.0482C121.44 18.1849 119.135 17.6822 117.178 17.3543C115.765 17.0921 114.504 16.9828 114.504 16.1959C114.504 15.4965 115.178 15.1686 116.048 15.1686C117.026 15.1686 117.7 15.4746 117.831 16.4801H121.092C120.918 14.2725 119.222 12.8955 116.069 12.8955C113.439 12.8955 111.264 14.1195 111.264 16.4801C111.264 19.1029 113.33 19.6275 115.265 19.9553C116.743 20.2176 118.091 20.3269 118.091 21.3323C118.091 22.0536 117.417 22.447 116.352 22.447C115.178 22.447 114.439 21.9006 114.308 20.7859H110.96C111.069 23.2557 113.112 24.7639 116.374 24.7639Z" fill="#042245"/>
<path d="M126.254 24.7423C127.798 24.7423 128.777 24.1303 129.581 23.0374H129.646V24.4144H133.038V13.2236H129.494V19.4747C129.494 20.808 128.755 21.726 127.537 21.726C126.407 21.726 125.863 21.0485 125.863 19.8245V13.2236H122.341V20.5676C122.341 23.0593 123.689 24.7423 126.254 24.7423Z" fill="#042245"/>
<path d="M134.58 24.4142H138.124V18.1412C138.124 16.8079 138.776 15.8681 139.885 15.8681C140.951 15.8681 141.451 16.5675 141.451 17.7696V24.4142H144.995V18.1412C144.995 16.8079 145.625 15.8681 146.756 15.8681C147.821 15.8681 148.321 16.5675 148.321 17.7696V24.4142H151.865V17.1358C151.865 14.6222 150.604 12.8955 148.082 12.8955C146.647 12.8955 145.451 13.5075 144.582 14.8626H144.538C143.973 13.6605 142.864 12.8955 141.407 12.8955C139.798 12.8955 138.733 13.6605 138.037 14.8189H137.972V13.2234H134.58V24.4142Z" fill="#042245"/>
<path fill-rule="evenodd" clip-rule="evenodd" d="M18.4426 36.5342C28.3316 36.5342 36.3481 28.4753 36.3481 18.5342C36.3481 8.59306 28.3316 0.53418 18.4426 0.53418C8.55366 0.53418 0.537109 8.59306 0.537109 18.5342C0.537109 28.4753 8.55366 36.5342 18.4426 36.5342ZM24.0285 8.91934C24.3004 7.94843 23.3631 7.3743 22.5072 7.98735L10.558 16.5448C9.62971 17.2096 9.77573 18.5342 10.7774 18.5342H13.9239V18.5097H20.0564L15.0596 20.2821L12.8567 28.1491C12.5848 29.12 13.522 29.6941 14.3781 29.081L26.3272 20.5236C27.2555 19.8588 27.1094 18.5342 26.1079 18.5342H21.3362L24.0285 8.91934Z" fill="#025BDE"/>
</svg>
