<svg width="150" height="37" viewBox="0 0 150 37" fill="none" xmlns="http://www.w3.org/2000/svg">
<path d="M44.3691 24.3451H55.0692V21.1051H48.1722V8.90137H44.3691V24.3451Z" fill="#042245"/>
<path d="M61.4087 22.1848C59.8832 22.1848 59.0882 20.8456 59.0882 18.8369C59.0882 16.8281 59.8832 15.4673 61.4087 15.4673C62.9342 15.4673 63.7507 16.8281 63.7507 18.8369C63.7507 20.8456 62.9342 22.1848 61.4087 22.1848ZM61.4302 24.6904C64.9754 24.6904 67.2959 22.1632 67.2959 18.8369C67.2959 15.5105 64.9754 12.9834 61.4302 12.9834C57.9064 12.9834 55.543 15.5105 55.543 18.8369C55.543 22.1632 57.9064 24.6904 61.4302 24.6904Z" fill="#042245"/>
<path d="M73.4331 28.168C75.066 28.168 76.5056 27.8008 77.4725 26.9368C78.3534 26.1377 78.9335 24.9281 78.9335 23.2649V13.2859H75.5817V14.4739H75.5387C74.8941 13.5451 73.9058 12.9619 72.4447 12.9619C69.716 12.9619 67.8252 15.2515 67.8252 18.4914C67.8252 21.8825 70.1242 23.7401 72.5951 23.7401C73.9273 23.7401 74.7652 23.2001 75.4098 22.4657H75.4958V23.5673C75.4958 24.9065 74.8727 25.6841 73.3901 25.6841C72.2299 25.6841 71.6497 25.1873 71.4564 24.6041H68.0615C68.4053 26.9152 70.4035 28.168 73.4331 28.168ZM73.4116 21.1266C72.1009 21.1266 71.2415 20.0466 71.2415 18.3834C71.2415 16.6986 72.1009 15.6187 73.4116 15.6187C74.8727 15.6187 75.6462 16.8714 75.6462 18.3618C75.6462 19.917 74.9371 21.1266 73.4116 21.1266Z" fill="#042245"/>
<path d="M85.8247 22.1848C84.2992 22.1848 83.5042 20.8456 83.5042 18.8369C83.5042 16.8281 84.2992 15.4673 85.8247 15.4673C87.3502 15.4673 88.1667 16.8281 88.1667 18.8369C88.1667 20.8456 87.3502 22.1848 85.8247 22.1848ZM85.8462 24.6904C89.3914 24.6904 91.7115 22.1632 91.7115 18.8369C91.7115 15.5105 89.3914 12.9834 85.8462 12.9834C82.3225 12.9834 79.959 15.5105 79.959 18.8369C79.959 22.1632 82.3225 24.6904 85.8462 24.6904Z" fill="#042245"/>
<path d="M92.7344 24.3451H96.2366V13.2861H92.7344V24.3451ZM92.7344 11.7525H96.2366V8.90137H92.7344V11.7525Z" fill="#042245"/>
<path d="M97.7568 27.9952H101.259V23.2001H101.302C101.99 24.1289 102.999 24.6905 104.418 24.6905C107.297 24.6905 109.209 22.4009 109.209 18.8154C109.209 15.4891 107.426 12.9619 104.503 12.9619C102.999 12.9619 101.925 13.6315 101.173 14.6251H101.109V13.2859H97.7568V27.9952ZM103.515 21.9689C102.011 21.9689 101.152 20.7378 101.152 18.945C101.152 17.1522 101.925 15.7915 103.451 15.7915C104.955 15.7915 105.664 17.0442 105.664 18.945C105.664 20.8242 104.847 21.9689 103.515 21.9689Z" fill="#042245"/>
<path d="M114.911 24.6905C117.79 24.6905 119.917 23.4377 119.917 21.0186C119.917 18.189 117.639 17.6922 115.706 17.3682C114.309 17.109 113.063 17.001 113.063 16.2235C113.063 15.5323 113.729 15.2083 114.588 15.2083C115.555 15.2083 116.221 15.5107 116.35 16.5042H119.573C119.401 14.3227 117.725 12.9619 114.61 12.9619C112.01 12.9619 109.861 14.1715 109.861 16.5042C109.861 19.0962 111.903 19.6146 113.815 19.9386C115.276 20.1978 116.608 20.3058 116.608 21.2994C116.608 22.0121 115.942 22.4009 114.889 22.4009C113.729 22.4009 112.998 21.8609 112.869 20.7594H109.561C109.668 23.2001 111.688 24.6905 114.911 24.6905Z" fill="#042245"/>
<path d="M124.674 24.6691C126.2 24.6691 127.167 24.0643 127.962 22.9843H128.026V24.3451H131.378V13.2861H127.876V19.4636C127.876 20.7812 127.145 21.6884 125.942 21.6884C124.825 21.6884 124.287 21.0188 124.287 19.8092V13.2861H120.807V20.5436C120.807 23.0059 122.139 24.6691 124.674 24.6691Z" fill="#042245"/>
<path d="M132.901 24.3449H136.404V18.1458C136.404 16.8282 137.048 15.8995 138.144 15.8995C139.197 15.8995 139.691 16.5906 139.691 17.7786V24.3449H143.193V18.1458C143.193 16.8282 143.816 15.8995 144.934 15.8995C145.986 15.8995 146.481 16.5906 146.481 17.7786V24.3449H149.983V17.1522C149.983 14.6683 148.737 12.9619 146.244 12.9619C144.826 12.9619 143.644 13.5667 142.785 14.9059H142.742C142.183 13.7179 141.088 12.9619 139.648 12.9619C138.058 12.9619 137.005 13.7179 136.318 14.8627H136.253V13.2859H132.901V24.3449Z" fill="#042245"/>
<path d="M23.0013 1.48263L19.4803 0.53418L16.5131 11.6666L13.8342 1.61617L10.3131 2.56463L13.2074 13.4233L5.99824 6.17615L3.42063 8.76737L11.3282 16.7167L1.48058 14.0641L0.537109 17.6038L11.2969 20.5021C11.1737 19.9679 11.1085 19.4114 11.1085 18.8395C11.1085 14.7918 14.3726 11.5104 18.3991 11.5104C22.4256 11.5104 25.6897 14.7918 25.6897 18.8395C25.6897 19.4077 25.6253 19.9608 25.5037 20.4918L35.2823 23.1258L36.2257 19.5861L25.4232 16.6763L35.2715 14.0235L34.3279 10.4839L23.5259 13.3935L30.735 6.1464L28.1574 3.55518L20.3595 11.3942L23.0013 1.48263Z" fill="#025BDE"/>
<path d="M25.4944 20.5342C25.1925 21.8172 24.5552 22.9698 23.6807 23.8933L30.7648 31.0149L33.3425 28.4237L25.4944 20.5342Z" fill="#025BDE"/>
<path d="M23.6093 23.9678C22.7243 24.8765 21.6058 25.5546 20.3516 25.9041L22.9294 35.5753L26.4504 34.6268L23.6093 23.9678Z" fill="#025BDE"/>
<path d="M20.2201 25.9386C19.6382 26.089 19.0283 26.1689 18.3997 26.1689C17.7263 26.1689 17.0742 26.0771 16.4551 25.9053L13.875 35.5853L17.396 36.5337L20.2201 25.9386Z" fill="#025BDE"/>
<path d="M16.3296 25.8722C15.0945 25.5053 13.9959 24.8185 13.1289 23.9072L6.02734 31.0463L8.60496 33.6376L16.3296 25.8722Z" fill="#025BDE"/>
<path d="M13.0709 23.8419C12.2188 22.9248 11.5982 21.7876 11.3027 20.5244L1.49219 23.167L2.43565 26.7067L13.0709 23.8419Z" fill="#025BDE"/>
</svg>
