<svg width="181" height="181" viewBox="0 0 181 181" fill="none" xmlns="http://www.w3.org/2000/svg">
<circle cx="90.7656" cy="90.2822" r="90" fill="#025BDE"/>
<circle cx="90.7656" cy="90.2822" r="30" fill="white"/>
<path d="M82.0146 100.782C81.4896 100.782 81.1396 100.607 80.7896 100.257C80.0896 99.5572 80.0896 98.5072 80.7896 97.8072L98.2896 80.3072C98.9896 79.6072 100.04 79.6072 100.74 80.3072C101.44 81.0072 101.44 82.0572 100.74 82.7572L83.2396 100.257C82.8896 100.607 82.5396 100.782 82.0146 100.782Z" fill="#025BDE"/>
<path d="M99.5137 99.0322C98.4637 99.0322 97.7637 98.3322 97.7637 97.2822V83.2822H83.7637C82.7137 83.2822 82.0137 82.5822 82.0137 81.5322C82.0137 80.4822 82.7137 79.7822 83.7637 79.7822H99.5137C100.564 79.7822 101.264 80.4822 101.264 81.5322V97.2822C101.264 98.3322 100.564 99.0322 99.5137 99.0322Z" fill="#025BDE"/>
<path d="M96.7529 27.0857C95.6654 26.9876 94.7478 26.6662 94.0001 26.1216C93.2574 25.5775 92.7105 24.8607 92.3593 23.9713C92.0132 23.0822 91.891 22.0739 91.9928 20.9461C92.0946 19.8184 92.3953 18.8482 92.895 18.0355C93.3997 17.2233 94.0661 16.616 94.8942 16.2136C95.7273 15.8117 96.6877 15.6598 97.7751 15.7579C99.0237 15.8706 100.043 16.2747 100.833 16.9703C101.628 17.6663 102.151 18.5587 102.403 19.6473L100.282 20.0345C100.14 19.3568 99.8467 18.8151 99.4011 18.4094C98.956 17.9988 98.3558 17.7593 97.6007 17.6912C96.9109 17.6289 96.3206 17.7305 95.8297 17.9958C95.3438 18.2616 94.9599 18.6634 94.6779 19.2013C94.3959 19.7393 94.2208 20.3858 94.1526 21.141C94.0845 21.8962 94.141 22.5637 94.3221 23.1434C94.5033 23.7232 94.8091 24.1873 95.2395 24.5357C95.675 24.8846 96.2376 25.0902 96.9273 25.1524C97.6825 25.2206 98.3158 25.0925 98.8273 24.7681C99.3388 24.4438 99.7247 23.9634 99.9852 23.3271L102.003 24.0878C101.56 25.1137 100.885 25.8979 99.9783 26.4403C99.0766 26.9833 98.0015 27.1984 96.7529 27.0857Z" fill="white"/>
<path d="M106.967 28.8938C106.17 28.6866 105.516 28.3262 105.007 27.8127C104.498 27.2992 104.156 26.6854 103.982 25.9715C103.813 25.2539 103.835 24.4866 104.047 23.6695C104.262 22.8426 104.622 22.1606 105.127 21.6233C105.633 21.0812 106.233 20.7121 106.927 20.5162C107.62 20.3203 108.358 20.324 109.141 20.5274C109.938 20.7346 110.592 21.095 111.101 21.6085C111.614 22.1233 111.958 22.7401 112.132 23.459C112.307 24.1729 112.288 24.9384 112.076 25.7555C111.862 26.5775 111.502 27.2595 110.996 27.8017C110.495 28.3402 109.895 28.7093 109.196 28.9088C108.503 29.1047 107.76 29.0997 106.967 28.8938ZM107.451 27.0297C108.092 27.1962 108.625 27.1049 109.05 26.7557C109.481 26.4029 109.785 25.8864 109.962 25.2063C110.145 24.5018 110.13 23.8972 109.916 23.3926C109.708 22.8892 109.288 22.5555 108.657 22.3915C108.221 22.2784 107.838 22.2834 107.509 22.4067C107.179 22.5299 106.901 22.7474 106.673 23.0592C106.451 23.3723 106.28 23.7587 106.161 24.2186C105.976 24.9281 105.988 25.5345 106.197 26.0379C106.412 26.5376 106.83 26.8682 107.451 27.0297Z" fill="white"/>
<path d="M117.655 32.4748L119.168 28.9159C119.241 28.7437 119.325 28.5211 119.419 28.248C119.515 27.9703 119.572 27.6757 119.589 27.3644C119.606 27.053 119.541 26.7592 119.395 26.4828C119.253 26.2084 118.98 25.9852 118.575 25.8132C118.413 25.744 118.227 25.6954 118.019 25.6675C117.812 25.6396 117.595 25.6655 117.368 25.7451C117.144 25.8201 116.918 25.9768 116.691 26.2151C116.468 26.4554 116.257 26.8104 116.057 27.2803L115.188 26.3012C115.441 25.7057 115.799 25.1989 116.262 24.7806C116.726 24.3624 117.268 24.0956 117.888 23.9803C118.513 23.8669 119.195 23.9674 119.935 24.2818C120.526 24.533 120.965 24.8377 121.252 25.1959C121.539 25.5541 121.72 25.9303 121.794 26.3243C121.873 26.7204 121.885 27.1047 121.831 27.4772C121.779 27.8451 121.704 28.1702 121.606 28.4526C121.508 28.735 121.432 28.939 121.379 29.0646L119.581 33.2935L117.655 32.4748ZM112.505 30.2858L115.709 22.7492L117.398 23.467L116.336 25.9652L116.573 26.0661L114.431 31.1044L112.505 30.2858Z" fill="white"/>
<path d="M125.191 36.5617C124.646 36.3743 124.14 36.1392 123.673 35.8564C123.208 35.5805 122.832 35.2594 122.546 34.8934C122.266 34.5254 122.129 34.1129 122.133 33.6558C122.142 33.2307 122.236 32.8486 122.417 32.5095C122.601 32.1661 122.814 31.7812 123.056 31.3548L126.509 25.276L128.302 26.2947L124.909 32.268C124.752 32.545 124.612 32.7967 124.489 33.0234C124.373 33.2482 124.319 33.4502 124.328 33.6295C124.344 33.9699 124.519 34.2497 124.854 34.469C125.188 34.6882 125.583 34.8891 126.037 35.0716L125.191 36.5617ZM123.386 27.9494L124.172 26.5648L129.236 29.4411L128.449 30.8257L123.386 27.9494Z" fill="white"/>
<path d="M127.202 38.2901C126.727 37.9462 126.388 37.5641 126.187 37.1438C125.993 36.7224 125.92 36.298 125.967 35.8705C126.022 35.4418 126.182 35.0433 126.449 34.6747C126.671 34.3676 126.921 34.1213 127.199 33.9356C127.477 33.7499 127.79 33.6364 128.139 33.5951C128.494 33.5528 128.897 33.595 129.348 33.7219C129.659 33.8096 130.01 33.9418 130.4 34.1182C130.79 34.2946 131.222 34.5078 131.697 34.7576C132.174 35.0033 132.699 35.2741 133.271 35.5698L132.429 35.4657C132.714 35.0726 132.829 34.7158 132.774 34.3951C132.719 34.0745 132.47 33.7541 132.028 33.434C131.782 33.2561 131.483 33.1302 131.131 33.0563C130.779 32.9823 130.44 33.0583 130.114 33.2843L128.95 31.7113C129.515 31.2842 130.154 31.0661 130.865 31.0572C131.577 31.0482 132.332 31.3327 133.131 31.9108C133.716 32.3347 134.171 32.8012 134.495 33.3104C134.819 33.8197 134.938 34.3799 134.851 34.991C134.804 35.3316 134.704 35.6336 134.551 35.897C134.397 36.1605 134.211 36.4437 133.992 36.7467L131.057 40.8004L129.595 39.7421L130.582 38.3786L130.587 38.8123C129.94 39.0245 129.356 39.0945 128.834 39.0224C128.319 38.9492 127.775 38.7051 127.202 38.2901ZM128.509 37.2336C128.816 37.4559 129.113 37.5894 129.399 37.6342C129.692 37.6778 129.95 37.6744 130.174 37.6241C130.401 37.5768 130.572 37.5224 130.685 37.4608C130.902 37.3429 131.102 37.1696 131.286 36.941C131.477 36.7113 131.631 36.5166 131.746 36.3569L132.149 36.8355C131.594 36.5587 131.142 36.3378 130.794 36.1728C130.448 36.0037 130.165 35.8735 129.944 35.7821C129.723 35.6908 129.522 35.6199 129.34 35.5694C129.129 35.5163 128.944 35.4916 128.785 35.4953C128.633 35.4979 128.5 35.5264 128.386 35.5809C128.276 35.6384 128.181 35.7224 128.1 35.833C127.991 35.9845 127.933 36.1422 127.926 36.3061C127.927 36.4689 127.976 36.6293 128.074 36.7874C128.172 36.9455 128.317 37.0943 128.509 37.2336Z" fill="white"/>
<path d="M134.997 44.7529C134.384 44.1643 133.991 43.5231 133.817 42.8294C133.642 42.1356 133.664 41.4416 133.883 40.7473C134.102 40.053 134.495 39.4108 135.063 38.8205C135.637 38.2229 136.271 37.8047 136.963 37.5659C137.66 37.3306 138.358 37.2902 139.058 37.4445C139.758 37.5988 140.409 37.965 141.01 38.5432C141.706 39.2124 142.119 39.9497 142.249 40.7551C142.387 41.5604 142.228 42.3304 141.774 43.065L139.909 42.029C140.116 41.6388 140.193 41.253 140.139 40.8715C140.088 40.4936 139.926 40.1732 139.653 39.9104C139.34 39.6091 139.009 39.4386 138.662 39.3989C138.318 39.3556 137.972 39.4195 137.625 39.5908C137.282 39.7584 136.952 40.0062 136.637 40.3341C136.143 40.8479 135.855 41.3737 135.772 41.9116C135.697 42.4493 135.883 42.9337 136.332 43.3647C136.667 43.687 136.995 43.8557 137.318 43.8709C137.64 43.886 137.981 43.7936 138.342 43.5934L139.556 45.3715C138.786 45.8371 138.005 46.015 137.213 45.9054C136.42 45.7958 135.682 45.4116 134.997 44.7529Z" fill="white"/>
<path d="M141.96 52.2052C141.516 51.8382 141.125 51.4401 140.787 51.011C140.449 50.589 140.21 50.1564 140.071 49.713C139.939 49.2703 139.955 48.8357 140.119 48.4092C140.277 48.0143 140.5 47.6901 140.789 47.4364C141.082 47.1794 141.416 46.894 141.793 46.5801L147.164 42.1045L148.484 43.689L143.206 48.0869C142.962 48.2907 142.742 48.4771 142.547 48.6461C142.36 48.8156 142.238 48.9859 142.183 49.1567C142.078 49.481 142.144 49.8046 142.38 50.1276C142.616 50.4505 142.915 50.7774 143.276 51.1081L141.96 52.2052ZM143.3 43.5083L144.523 42.489L148.251 46.9627L147.028 47.982L143.3 43.5083Z" fill="white"/>
<path d="M146.632 60.1257C146.216 59.351 146.005 58.5861 146.001 57.8308C146.001 57.0732 146.197 56.3763 146.59 55.7404C146.982 55.1044 147.564 54.5793 148.334 54.165L154.33 50.9393L155.335 52.7752L149.339 56.0009C149.022 56.1709 148.764 56.3788 148.563 56.6245C148.363 56.8703 148.219 57.1369 148.133 57.4245C148.049 57.7165 148.022 58.0147 148.054 58.319C148.093 58.6255 148.189 58.9212 148.342 59.2061C148.5 59.4999 148.697 59.7439 148.934 59.9381C149.173 60.1368 149.436 60.2794 149.723 60.3657C150.011 60.4521 150.311 60.4771 150.625 60.4406C150.94 60.4085 151.254 60.3087 151.566 60.1411L157.562 56.9154L158.554 58.7584L152.544 61.9913C151.774 62.4056 151.015 62.6013 150.268 62.5784C149.521 62.5555 148.831 62.3352 148.199 61.9176C147.571 61.4976 147.049 60.9003 146.632 60.1257Z" fill="white"/>
<path d="M150.793 69.5983C150.454 68.6246 150.398 67.7605 150.628 67.0059C150.863 66.2544 151.362 65.6735 152.124 65.2632L153.119 67.1486C152.784 67.3563 152.563 67.6344 152.454 67.9828C152.347 68.336 152.369 68.7274 152.519 69.1569C152.642 69.5101 152.804 69.7589 153.004 69.9032C153.209 70.0458 153.433 70.0746 153.677 69.9897C153.829 69.9364 153.938 69.8558 154.002 69.7477C154.071 69.6381 154.104 69.4338 154.101 69.1349C154.1 68.8407 154.076 68.3886 154.029 67.7786C153.972 67.0919 153.978 66.5251 154.046 66.0781C154.115 65.6311 154.259 65.2758 154.478 65.0122C154.701 64.7468 155.011 64.5451 155.407 64.4069C155.903 64.2337 156.377 64.2103 156.828 64.3367C157.284 64.4614 157.689 64.7187 158.045 65.1086C158.407 65.5016 158.697 66.0108 158.915 66.636C159.127 67.2422 159.221 67.8116 159.198 68.3443C159.175 68.877 159.042 69.3464 158.798 69.7527C158.556 70.1638 158.213 70.4843 157.768 70.7143L156.716 68.849C156.99 68.7156 157.174 68.5124 157.266 68.2394C157.358 67.9663 157.354 67.641 157.255 67.2635C157.154 66.8972 157.005 66.6251 156.809 66.4472C156.615 66.2741 156.406 66.2266 156.181 66.3049C156.048 66.3515 155.951 66.436 155.892 66.5583C155.835 66.6854 155.809 66.9112 155.816 67.2356C155.823 67.5649 155.856 68.0568 155.913 68.7115C155.965 69.3518 155.95 69.8844 155.868 70.3092C155.792 70.7371 155.64 71.0822 155.41 71.3444C155.185 71.6049 154.872 71.8051 154.471 71.945C153.679 72.2214 152.956 72.1524 152.303 71.7379C151.65 71.3233 151.146 70.6101 150.793 69.5983Z" fill="white"/>
<path d="M159.003 79.3569L159.851 77.7536L161.268 78.6895L161.458 76.9787L163.248 77.2962L162.789 78.9524L164.483 78.5789L164.734 80.3813L163.003 80.4844L163.896 81.9525L162.261 82.7465L161.61 81.1528L160.503 82.4399L159.249 81.1293L160.553 80.0445L159.003 79.3569Z" fill="white"/>
<path d="M154.002 95.7896C154.093 94.7015 154.407 93.7815 154.946 93.0298C155.485 92.2832 156.198 91.731 157.085 91.3733C157.971 91.0207 158.978 90.8911 160.107 90.9846C161.235 91.0781 162.208 91.3717 163.024 91.8654C163.84 92.3641 164.452 93.026 164.861 93.8512C165.269 94.6813 165.428 95.6405 165.337 96.7287C165.234 97.978 164.837 99.0002 164.148 99.7952C163.457 100.595 162.569 101.125 161.482 101.385L161.079 99.2671C161.756 99.1203 162.296 98.8226 162.698 98.3741C163.105 97.926 163.34 97.3241 163.403 96.5684C163.46 95.8782 163.354 95.2887 163.085 94.7997C162.816 94.3158 162.411 93.9349 161.871 93.6568C161.331 93.3787 160.684 93.2084 159.928 93.1458C159.172 93.0832 158.505 93.1446 157.927 93.33C157.348 93.5154 156.887 93.8246 156.541 94.2576C156.196 94.6956 155.994 95.2597 155.937 95.9499C155.874 96.7055 156.007 97.3379 156.335 97.847C156.663 98.356 157.146 98.7384 157.785 98.9942L157.039 101.017C156.01 100.582 155.221 99.9129 154.671 99.0102C154.122 98.1125 153.899 97.039 154.002 95.7896Z" fill="white"/>
<path d="M152.271 106.012C152.472 105.213 152.827 104.557 153.337 104.045C153.847 103.532 154.458 103.185 155.17 103.005C155.887 102.831 156.654 102.847 157.473 103.053C158.301 103.262 158.986 103.617 159.527 104.118C160.073 104.62 160.447 105.218 160.648 105.909C160.849 106.601 160.85 107.339 160.653 108.124C160.452 108.923 160.096 109.579 159.587 110.091C159.076 110.609 158.461 110.957 157.744 111.136C157.031 111.317 156.266 111.304 155.447 111.097C154.623 110.89 153.939 110.535 153.393 110.033C152.85 109.536 152.477 108.939 152.272 108.241C152.071 107.549 152.071 106.807 152.271 106.012ZM154.138 106.483C153.976 107.125 154.072 107.657 154.424 108.08C154.78 108.508 155.299 108.808 155.98 108.98C156.686 109.158 157.291 109.138 157.794 108.92C158.295 108.708 158.626 108.286 158.785 107.653C158.895 107.217 158.887 106.834 158.762 106.506C158.636 106.177 158.416 105.9 158.103 105.675C157.788 105.455 157.4 105.287 156.94 105.171C156.229 104.992 155.622 105.009 155.121 105.221C154.622 105.44 154.295 105.86 154.138 106.483Z" fill="white"/>
<path d="M148.765 116.732L152.335 118.218C152.508 118.29 152.731 118.372 153.005 118.464C153.283 118.558 153.578 118.612 153.89 118.627C154.201 118.642 154.495 118.575 154.77 118.427C155.043 118.283 155.264 118.008 155.433 117.602C155.501 117.439 155.549 117.253 155.575 117.045C155.601 116.837 155.574 116.621 155.493 116.395C155.416 116.172 155.258 115.947 155.018 115.721C154.776 115.5 154.419 115.291 153.948 115.095L154.92 114.218C155.518 114.467 156.027 114.822 156.449 115.282C156.87 115.742 157.141 116.282 157.261 116.902C157.379 117.526 157.284 118.209 156.975 118.951C156.728 119.543 156.427 119.985 156.07 120.274C155.714 120.564 155.339 120.748 154.946 120.825C154.551 120.906 154.166 120.922 153.793 120.87C153.425 120.821 153.099 120.748 152.816 120.652C152.533 120.557 152.329 120.482 152.203 120.43L147.961 118.664L148.765 116.732ZM150.916 111.566L158.476 114.713L157.771 116.407L155.265 115.364L155.166 115.602L150.112 113.498L150.916 111.566Z" fill="white"/>
<path d="M144.736 124.298C144.919 123.752 145.15 123.245 145.43 122.775C145.702 122.308 146.021 121.93 146.384 121.641C146.75 121.359 147.162 121.218 147.619 121.219C148.044 121.224 148.427 121.317 148.767 121.495C149.112 121.676 149.499 121.886 149.927 122.125L156.031 125.533L155.025 127.334L149.027 123.985C148.749 123.83 148.496 123.691 148.269 123.57C148.043 123.456 147.841 123.403 147.661 123.413C147.321 123.432 147.043 123.609 146.826 123.946C146.609 124.282 146.411 124.678 146.232 125.134L144.736 124.298ZM153.334 122.43L154.725 123.206L151.886 128.291L150.496 127.514L153.334 122.43Z" fill="white"/>
<path d="M143.022 126.319C143.362 125.842 143.742 125.501 144.161 125.296C144.581 125.099 145.005 125.023 145.433 125.067C145.862 125.118 146.261 125.276 146.632 125.54C146.941 125.76 147.189 126.008 147.376 126.285C147.564 126.562 147.68 126.874 147.724 127.222C147.769 127.576 147.73 127.98 147.606 128.432C147.521 128.743 147.391 129.095 147.217 129.487C147.044 129.878 146.834 130.312 146.588 130.788C146.345 131.267 146.078 131.794 145.787 132.369L145.885 131.526C146.28 131.807 146.638 131.92 146.958 131.862C147.278 131.805 147.597 131.554 147.914 131.11C148.09 130.863 148.213 130.563 148.285 130.21C148.356 129.857 148.278 129.519 148.049 129.195L149.614 128.019C150.045 128.581 150.268 129.218 150.282 129.93C150.296 130.641 150.017 131.398 149.445 132.201C149.025 132.79 148.562 133.248 148.055 133.576C147.548 133.903 146.989 134.026 146.377 133.944C146.036 133.9 145.734 133.802 145.469 133.65C145.205 133.499 144.92 133.315 144.615 133.098L140.54 130.193L141.588 128.723L142.958 129.7L142.525 129.708C142.308 129.063 142.234 128.479 142.302 127.957C142.371 127.441 142.611 126.895 143.022 126.319ZM144.088 127.619C143.868 127.928 143.737 128.225 143.694 128.512C143.653 128.805 143.658 129.063 143.71 129.286C143.759 129.514 143.815 129.684 143.877 129.797C143.997 130.012 144.171 130.211 144.401 130.394C144.632 130.583 144.828 130.735 144.989 130.85L144.513 131.256C144.786 130.699 145.003 130.246 145.166 129.896C145.332 129.549 145.46 129.265 145.55 129.043C145.64 128.821 145.709 128.619 145.758 128.437C145.81 128.226 145.833 128.041 145.828 127.882C145.825 127.73 145.795 127.598 145.74 127.484C145.682 127.374 145.597 127.279 145.486 127.2C145.333 127.091 145.175 127.035 145.011 127.029C144.849 127.031 144.689 127.082 144.531 127.181C144.374 127.28 144.226 127.426 144.088 127.619Z" fill="white"/>
<path d="M136.616 134.163C137.201 133.547 137.839 133.149 138.531 132.969C139.224 132.79 139.918 132.807 140.614 133.021C141.31 133.234 141.955 133.623 142.549 134.186C143.151 134.756 143.574 135.387 143.818 136.077C144.058 136.772 144.104 137.47 143.954 138.171C143.805 138.872 143.444 139.526 142.87 140.131C142.206 140.832 141.472 141.25 140.667 141.386C139.863 141.53 139.092 141.377 138.354 140.928L139.376 139.056C139.768 139.26 140.154 139.333 140.535 139.277C140.913 139.224 141.232 139.059 141.493 138.784C141.792 138.469 141.96 138.137 141.997 137.789C142.038 137.445 141.972 137.1 141.798 136.754C141.628 136.412 141.377 136.084 141.047 135.771C140.53 135.281 140.002 134.997 139.463 134.918C138.925 134.847 138.442 135.037 138.014 135.488C137.695 135.826 137.528 136.155 137.515 136.478C137.503 136.8 137.598 137.141 137.8 137.5L136.031 138.727C135.56 137.961 135.376 137.181 135.48 136.388C135.584 135.595 135.963 134.853 136.616 134.163Z" fill="white"/>
<path d="M129.215 141.18C129.579 140.733 129.974 140.34 130.401 139.999C130.82 139.657 131.251 139.415 131.693 139.273C132.135 139.137 132.57 139.15 132.998 139.312C133.394 139.467 133.719 139.688 133.975 139.974C134.234 140.265 134.522 140.598 134.839 140.972L139.354 146.31L137.779 147.642L133.343 142.396C133.137 142.153 132.949 141.935 132.778 141.741C132.608 141.555 132.436 141.435 132.265 141.381C131.94 141.279 131.617 141.347 131.296 141.585C130.975 141.824 130.65 142.125 130.322 142.488L129.215 141.18ZM137.922 142.456L138.95 143.672L134.504 147.433L133.475 146.217L137.922 142.456Z" fill="white"/>
<path d="M121.331 145.912C122.102 145.489 122.866 145.273 123.621 145.263C124.379 145.257 125.077 145.448 125.716 145.836C126.354 146.224 126.884 146.802 127.304 147.569L130.574 153.541L128.745 154.56L125.475 148.587C125.303 148.272 125.093 148.015 124.846 147.816C124.599 147.618 124.331 147.476 124.043 147.392C123.75 147.31 123.452 147.286 123.148 147.32C122.842 147.361 122.547 147.459 122.263 147.614C121.97 147.774 121.728 147.973 121.535 148.211C121.338 148.452 121.198 148.716 121.114 149.004C121.029 149.292 121.007 149.593 121.045 149.906C121.08 150.221 121.182 150.534 121.352 150.845L124.622 156.817L122.786 157.822L119.509 151.836C119.089 151.069 118.888 150.312 118.905 149.565C118.922 148.818 119.138 148.127 119.55 147.491C119.966 146.861 120.559 146.334 121.331 145.912Z" fill="white"/>
<path d="M111.886 150.142C112.857 149.795 113.72 149.733 114.477 149.957C115.23 150.187 115.814 150.682 116.23 151.44L114.352 152.449C114.142 152.116 113.863 151.897 113.513 151.791C113.159 151.686 112.768 151.711 112.34 151.864C111.987 151.99 111.74 152.153 111.597 152.355C111.456 152.561 111.429 152.785 111.515 153.028C111.57 153.18 111.651 153.288 111.76 153.351C111.87 153.419 112.075 153.451 112.373 153.446C112.668 153.443 113.119 153.416 113.729 153.364C114.415 153.302 114.982 153.303 115.43 153.369C115.877 153.434 116.234 153.575 116.499 153.792C116.766 154.013 116.97 154.322 117.111 154.717C117.288 155.212 117.315 155.685 117.192 156.137C117.07 156.594 116.816 157.002 116.429 157.36C116.038 157.725 115.531 158.019 114.908 158.241C114.303 158.457 113.735 158.556 113.202 158.537C112.669 158.518 112.198 158.388 111.79 158.147C111.378 157.908 111.054 157.567 110.821 157.125L112.679 156.059C112.814 156.332 113.019 156.514 113.292 156.604C113.566 156.694 113.891 156.688 114.268 156.586C114.634 156.482 114.905 156.332 115.081 156.134C115.253 155.939 115.299 155.729 115.219 155.505C115.171 155.372 115.086 155.276 114.963 155.218C114.836 155.162 114.61 155.138 114.285 155.146C113.956 155.157 113.464 155.193 112.81 155.255C112.17 155.312 111.638 155.301 111.212 155.222C110.784 155.149 110.438 154.999 110.174 154.771C109.911 154.548 109.709 154.237 109.566 153.837C109.284 153.047 109.348 152.324 109.757 151.667C110.167 151.011 110.876 150.503 111.886 150.142Z" fill="white"/>
<path d="M102.189 158.424L103.798 159.261L102.873 160.684L104.585 160.862L104.28 162.654L102.621 162.208L103.007 163.898L101.206 164.162L101.09 162.432L99.6289 163.336L98.8229 161.707L100.412 161.045L99.1166 159.947L100.418 158.683L101.512 159.979L102.189 158.424Z" fill="white"/>
<path d="M85.7236 153.542C86.8124 153.625 87.7346 153.932 88.4903 154.466C89.2409 154.999 89.7983 155.708 90.1625 156.592C90.5216 157.476 90.6586 158.482 90.5734 159.611C90.4882 160.741 90.2017 161.715 89.714 162.535C89.2213 163.355 88.5639 163.972 87.7418 164.386C86.9146 164.8 85.9567 164.966 84.8679 164.884C83.6178 164.79 82.5927 164.401 81.7926 163.717C80.9875 163.032 80.451 162.148 80.1831 161.063L82.2982 160.645C82.45 161.32 82.7516 161.858 83.2031 162.257C83.6542 162.661 84.2578 162.891 85.0139 162.948C85.7045 163 86.2933 162.89 86.7802 162.618C87.2621 162.345 87.6401 161.937 87.9142 161.395C88.1883 160.853 88.3539 160.204 88.4109 159.448C88.468 158.692 88.4017 158.026 88.212 157.449C88.0223 156.872 87.7098 156.412 87.2743 156.07C86.8337 155.727 86.2681 155.53 85.5776 155.478C84.8215 155.421 84.1901 155.558 83.6835 155.89C83.1768 156.222 82.798 156.708 82.5469 157.348L80.5185 156.617C80.9462 155.585 81.6094 154.791 82.508 154.235C83.4016 153.679 84.4735 153.448 85.7236 153.542Z" fill="white"/>
<path d="M75.4892 151.887C76.2897 152.082 76.9483 152.432 77.4649 152.938C77.9815 153.444 78.3326 154.053 78.5181 154.764C78.6975 155.479 78.6872 156.247 78.4871 157.067C78.2847 157.897 77.9349 158.584 77.4378 159.129C76.9395 159.678 76.3452 160.056 75.6549 160.263C74.9645 160.469 74.2265 160.476 73.4407 160.285C72.6402 160.089 71.9817 159.739 71.4651 159.233C70.9435 158.726 70.5906 158.114 70.4063 157.398C70.2208 156.687 70.228 155.921 70.4281 155.101C70.6293 154.276 70.9791 153.588 71.4774 153.039C71.9696 152.493 72.5639 152.115 73.2604 151.905C73.9507 151.699 74.6936 151.693 75.4892 151.887ZM75.0328 153.758C74.3895 153.601 73.8579 153.7 73.4382 154.056C73.0124 154.415 72.7162 154.936 72.5497 155.618C72.3772 156.326 72.4015 156.93 72.6226 157.431C72.8388 157.931 73.2636 158.259 73.8972 158.413C74.3342 158.52 74.7167 158.509 75.0446 158.381C75.3724 158.253 75.6476 158.031 75.8702 157.716C76.0878 157.4 76.253 157.011 76.3656 156.549C76.5393 155.837 76.518 155.231 76.3018 154.731C76.0795 154.234 75.6565 153.91 75.0328 153.758Z" fill="white"/>
<path d="M64.7365 148.461L63.2763 152.042C63.2057 152.215 63.1253 152.439 63.0353 152.713C62.9433 152.992 62.8911 153.287 62.8787 153.599C62.8662 153.911 62.9352 154.204 63.0854 154.478C63.231 154.75 63.5074 154.969 63.9146 155.135C64.0784 155.202 64.2644 155.248 64.4727 155.273C64.6809 155.298 64.8975 155.268 65.1224 155.185C65.3454 155.107 65.5689 154.947 65.793 154.706C66.0124 154.462 66.2185 154.104 66.4113 153.631L67.2948 154.597C67.0504 155.197 66.6997 155.709 66.2425 156.134C65.7853 156.559 65.2475 156.833 64.629 156.958C64.0058 157.08 63.322 156.99 62.5778 156.686C61.9833 156.444 61.5399 156.146 61.2475 155.792C60.9551 155.438 60.7689 155.064 60.689 154.671C60.6043 154.277 60.5862 153.893 60.6347 153.519C60.6813 153.151 60.7515 152.824 60.8454 152.541C60.9393 152.257 61.012 152.052 61.0636 151.925L62.7986 147.671L64.7365 148.461ZM69.9182 150.574L66.826 158.157L65.1269 157.464L66.1519 154.95L65.9131 154.853L67.9803 149.784L69.9182 150.574Z" fill="white"/>
<path d="M57.1441 144.489C57.6915 144.668 58.2009 144.896 58.6722 145.172C59.1416 145.441 59.522 145.756 59.8136 146.118C60.0983 146.482 60.2421 146.892 60.245 147.349C60.2424 147.775 60.153 148.158 59.9771 148.5C59.7987 148.846 59.5916 149.234 59.3557 149.664L55.9927 155.793L54.1845 154.801L57.4892 148.778C57.6424 148.499 57.7788 148.245 57.8984 148.016C58.0111 147.79 58.0618 147.587 58.0506 147.408C58.0296 147.068 57.8502 146.791 57.5123 146.576C57.1743 146.362 56.7768 146.167 56.3197 145.991L57.1441 144.489ZM59.0761 153.074L58.3101 154.47L53.2047 151.668L53.9707 150.272L59.0761 153.074Z" fill="white"/>
<path d="M55.111 142.79C55.5909 143.127 55.9346 143.504 56.142 143.921C56.3424 144.34 56.422 144.763 56.3809 145.191C56.3328 145.62 56.178 146.021 55.9167 146.394C55.6989 146.704 55.4524 146.954 55.1772 147.144C54.902 147.334 54.5907 147.452 54.2432 147.498C53.8886 147.546 53.4849 147.509 53.032 147.389C52.7198 147.306 52.3673 147.179 51.9745 147.008C51.5817 146.838 51.1463 146.631 50.6683 146.388C50.1874 146.149 49.6586 145.886 49.0821 145.599L49.9255 145.691C49.6468 146.088 49.5372 146.447 49.5969 146.766C49.6566 147.086 49.9098 147.403 50.3567 147.716C50.605 147.891 50.9057 148.012 51.2589 148.081C51.6121 148.15 51.9499 148.069 52.2723 147.838L53.4594 149.394C52.9007 149.829 52.2656 150.056 51.5541 150.076C50.8426 150.095 50.0834 149.822 49.2765 149.256C48.6848 148.841 48.2232 148.381 47.8917 147.876C47.5601 147.372 47.4332 146.814 47.511 146.201C47.5528 145.86 47.6484 145.557 47.7978 145.291C47.9472 145.025 48.1294 144.739 48.3442 144.433L51.219 140.337L52.6962 141.373L51.7292 142.751L51.7186 142.318C52.362 142.096 52.9452 142.017 53.4681 142.082C53.984 142.147 54.5317 142.383 55.111 142.79ZM53.8188 143.866C53.5085 143.648 53.2101 143.519 52.9235 143.478C52.63 143.439 52.3718 143.446 52.1489 143.5C51.9219 143.55 51.7522 143.607 51.6399 143.67C51.4253 143.791 51.2275 143.968 51.0467 144.199C50.8588 144.431 50.7083 144.628 50.595 144.79L50.1856 144.317C50.7443 144.586 51.1992 144.8 51.5502 144.96C51.8983 145.124 52.1835 145.25 52.4058 145.338C52.628 145.426 52.8305 145.494 53.013 145.542C53.225 145.592 53.4103 145.614 53.5689 145.608C53.7205 145.603 53.8531 145.572 53.9666 145.516C54.076 145.457 54.1699 145.372 54.2483 145.26C54.3557 145.107 54.4114 144.948 54.4153 144.784C54.4122 144.622 54.3606 144.462 54.2606 144.305C54.1606 144.149 54.0133 144.002 53.8188 143.866Z" fill="white"/>
<path d="M47.2212 136.44C47.8419 137.02 48.2446 137.655 48.4292 138.346C48.6138 139.037 48.6018 139.732 48.3931 140.429C48.1845 141.126 47.8008 141.774 47.2418 142.373C46.676 142.979 46.0487 143.406 45.3598 143.655C44.6671 143.901 43.9697 143.951 43.2673 143.807C42.565 143.663 41.909 143.306 41.2994 142.737C40.5937 142.078 40.1699 141.347 40.0279 140.544C39.8788 139.74 40.0259 138.968 40.469 138.227L42.3491 139.236C42.1479 139.629 42.0771 140.016 42.1366 140.396C42.1925 140.773 42.3589 141.091 42.636 141.35C42.9538 141.647 43.2867 141.813 43.6348 141.847C43.9794 141.885 44.324 141.816 44.6685 141.64C45.0095 141.467 45.3353 141.215 45.6458 140.882C46.1322 140.361 46.4128 139.831 46.4873 139.292C46.5547 138.754 46.3612 138.272 45.9067 137.848C45.5668 137.53 45.2358 137.366 44.9135 137.356C44.5913 137.346 44.2513 137.443 43.8935 137.648L42.653 135.888C43.4164 135.411 44.1949 135.222 44.9887 135.32C45.7825 135.418 46.5267 135.791 47.2212 136.44Z" fill="white"/>
<path d="M40.1494 129.091C40.5988 129.452 40.9955 129.844 41.3396 130.268C41.6842 130.685 41.9294 131.114 42.075 131.555C42.2135 131.996 42.2037 132.431 42.0455 132.86C41.8934 133.257 41.6749 133.584 41.39 133.842C41.1012 134.104 40.7708 134.394 40.3988 134.713L35.0941 139.267L33.7507 137.702L38.9633 133.227C39.2049 133.02 39.4219 132.83 39.6142 132.659C39.7994 132.486 39.9183 132.314 39.9708 132.143C40.0709 131.817 40.0005 131.494 39.7595 131.175C39.5186 130.855 39.2151 130.533 38.8492 130.207L40.1494 129.091ZM38.9372 137.807L37.7289 138.844L33.9358 134.425L35.144 133.388L38.9372 137.807Z" fill="white"/>
<path d="M35.3618 121.241C35.7899 122.01 36.0118 122.772 36.0274 123.527C36.0386 124.284 35.8526 124.984 35.4694 125.626C35.0862 126.267 34.5127 126.801 33.7487 127.227L27.8004 130.54L26.7686 128.72L32.7169 125.406C33.0305 125.231 33.2858 125.019 33.4828 124.771C33.6799 124.522 33.8195 124.253 33.9017 123.965C33.9814 123.671 34.0031 123.373 33.9669 123.069C33.9238 122.763 33.8236 122.469 33.6661 122.186C33.5037 121.895 33.3029 121.654 33.0635 121.463C32.8217 121.268 32.5564 121.129 32.2676 121.047C31.9788 120.965 31.6781 120.944 31.3654 120.986C31.0502 121.022 30.7381 121.127 30.4289 121.299L24.4806 124.613L23.4621 122.785L29.4237 119.463C30.1876 119.038 30.9433 118.831 31.6906 118.843C32.4379 118.855 33.1307 119.065 33.7689 119.473C34.4028 119.884 34.9338 120.473 35.3618 121.241Z" fill="white"/>
<path d="M31.058 111.826C31.4121 112.795 31.4801 113.658 31.262 114.416C31.0374 115.171 30.5474 115.759 29.7919 116.181L28.769 114.31C29.1003 114.098 29.3177 113.816 29.4212 113.466C29.5229 113.112 29.4957 112.72 29.3395 112.293C29.2111 111.942 29.0457 111.696 28.8433 111.554C28.6362 111.415 28.4116 111.389 28.1694 111.478C28.0175 111.533 27.9103 111.615 27.8479 111.724C27.7807 111.835 27.7506 112.04 27.7576 112.339C27.7628 112.633 27.7934 113.084 27.8493 113.694C27.917 114.379 27.9197 114.946 27.8574 115.394C27.7952 115.842 27.6567 116.2 27.4421 116.467C27.2227 116.735 26.916 116.941 26.5219 117.085C26.0282 117.266 25.5549 117.296 25.1021 117.177C24.6445 117.059 24.2351 116.807 23.8738 116.423C23.506 116.035 23.2085 115.53 22.9811 114.908C22.7606 114.305 22.658 113.737 22.673 113.205C22.6881 112.672 22.8145 112.2 23.0521 111.79C23.2881 111.376 23.6266 111.05 24.0675 110.814L25.1474 112.663C24.8747 112.801 24.6943 113.006 24.6063 113.281C24.5182 113.555 24.5267 113.88 24.6319 114.256C24.7383 114.621 24.8908 114.891 25.0894 115.066C25.2862 115.236 25.4961 115.281 25.7193 115.199C25.8522 115.15 25.9473 115.065 26.0045 114.941C26.06 114.813 26.0823 114.587 26.0714 114.263C26.0587 113.934 26.019 113.443 25.9522 112.789C25.8907 112.149 25.8977 111.617 25.9734 111.191C26.0427 110.762 26.1902 110.414 26.4161 110.149C26.6372 109.885 26.9471 109.68 27.3459 109.534C28.134 109.246 28.8578 109.305 29.5171 109.709C30.1764 110.114 30.6901 110.82 31.058 111.826Z" fill="white"/>
<path d="M22.7055 102.188L21.8804 103.803L20.4504 102.888L20.2848 104.602L18.4907 104.31L18.9249 102.648L17.2371 103.046L16.9599 101.247L18.6893 101.119L17.7746 99.6641L19.3978 98.8462L20.0716 100.43L21.1596 99.1271L22.4329 100.419L21.1453 101.523L22.7055 102.188Z" fill="white"/>
<path d="M27.4678 85.6951C27.3936 86.7845 27.0926 87.7089 26.5646 88.4684C26.037 89.2229 25.3324 89.7855 24.4509 90.1562C23.5697 90.5218 22.5643 90.6662 21.4345 90.5893C20.3048 90.5124 19.3282 90.2331 18.5047 89.7515C17.6816 89.2648 17.0597 88.6119 16.6392 87.7929C16.219 86.9688 16.046 86.0121 16.1202 84.9227C16.2053 83.672 16.5869 82.6441 17.2649 81.839C17.9432 81.0289 18.8238 80.4859 19.9066 80.21L20.3404 82.3219C19.666 82.4787 19.1309 82.7843 18.7352 83.2387C18.3344 83.6927 18.1083 84.298 18.0568 85.0545C18.0098 85.7455 18.1243 86.3334 18.4004 86.8183C18.6768 87.2982 19.087 87.6732 19.631 87.9433C20.175 88.2134 20.8253 88.3742 21.5818 88.4257C22.3383 88.4772 23.0044 88.406 23.58 88.2121C24.1556 88.0182 24.6128 87.7023 24.9517 87.2643C25.2909 86.8212 25.4841 86.2542 25.5311 85.5633C25.5826 84.8068 25.4406 84.1764 25.105 83.6722C24.7695 83.1681 24.2807 82.7928 23.6388 82.5464L24.3548 80.5127C25.3903 80.9328 26.1891 81.5901 26.7515 82.4847C27.3141 83.3742 27.5529 84.4443 27.4678 85.6951Z" fill="white"/>
<path d="M29.0466 75.4504C28.8573 76.2523 28.5117 76.9135 28.0097 77.4339C27.5078 77.9542 26.9018 78.3098 26.192 78.5007C25.4784 78.6854 24.7107 78.6809 23.8891 78.4869C23.0577 78.2907 22.3677 77.9461 21.8192 77.4531C21.2658 76.9589 20.8835 76.3674 20.672 75.6787C20.4606 74.9899 20.4478 74.252 20.6336 73.4648C20.8229 72.6628 21.1685 72.0017 21.6705 71.4813C22.1736 70.956 22.7826 70.5985 23.4974 70.4088C24.2072 70.218 24.973 70.2195 25.7946 70.4134C26.6211 70.6085 27.3111 70.9532 27.8645 71.4473C28.4141 71.9354 28.7965 72.5269 29.0117 73.2217C29.2231 73.9105 29.2347 74.6534 29.0466 75.4504ZM27.1721 75.008C27.3243 74.3635 27.221 73.8327 26.8624 73.4156C26.5 72.9925 25.9768 72.7002 25.293 72.5388C24.5845 72.3716 23.9804 72.4004 23.4807 72.6253C22.9821 72.8452 22.6579 73.2725 22.5081 73.9072C22.4048 74.345 22.4184 74.7274 22.549 75.0543C22.6796 75.3812 22.9033 75.6547 23.2201 75.8749C23.5381 76.0902 23.9283 76.2524 24.3907 76.3616C25.1041 76.5299 25.7101 76.5042 26.2087 76.2842C26.7035 76.0582 27.0247 75.6328 27.1721 75.008Z" fill="white"/>
<path d="M32.3959 64.6641L28.8044 63.2303C28.6307 63.1609 28.4063 63.0822 28.1312 62.9942C27.8514 62.9042 27.5557 62.8542 27.244 62.8441C26.9324 62.834 26.64 62.905 26.367 63.0573C26.0958 63.2048 25.8787 63.4828 25.7156 63.8913C25.65 64.0556 25.6055 64.242 25.5822 64.4504C25.5589 64.6588 25.5895 64.8751 25.6742 65.0994C25.7541 65.3218 25.9157 65.5442 26.159 65.7665C26.4041 65.9841 26.7638 66.1876 27.2379 66.3769L26.2782 67.2674C25.6773 67.0275 25.1627 66.6805 24.7343 66.2265C24.306 65.7724 24.0273 65.2366 23.8983 64.619C23.7711 63.9968 23.8566 63.3124 24.1546 62.5659C24.3926 61.9697 24.6876 61.5241 25.0394 61.2291C25.3912 60.9341 25.7633 60.7452 26.1556 60.6623C26.5498 60.5748 26.9337 60.5539 27.3073 60.5996C27.6763 60.6435 28.003 60.7113 28.2875 60.8031C28.5719 60.8949 28.7776 60.9661 28.9043 61.0168L33.1718 62.7205L32.3959 64.6641ZM30.3211 69.8612L22.7156 66.8248L23.3959 65.1206L25.917 66.1271L26.0126 65.8877L31.097 67.9175L30.3211 69.8612Z" fill="white"/>
<path d="M36.3101 57.0474C36.1349 57.5961 35.911 58.1072 35.6386 58.5805C35.373 59.0518 35.0604 59.4346 34.7008 59.7288C34.3391 60.0163 33.9297 60.1631 33.4726 60.1694C33.0474 60.1698 32.6633 60.0833 32.3203 59.9099C31.9729 59.7341 31.5834 59.5298 31.1518 59.2971L24.998 55.9794L25.9768 54.164L32.0238 57.4242C32.3041 57.5753 32.5589 57.7098 32.7882 57.8277C33.0155 57.9387 33.2187 57.988 33.3978 57.9754C33.7378 57.952 34.0136 57.7705 34.2254 57.431C34.4372 57.0914 34.6293 56.6925 34.8017 56.2342L36.3101 57.0474ZM27.7399 59.0427L26.3382 58.287L29.1018 53.1611L30.5034 53.9168L27.7399 59.0427Z" fill="white"/>
<path d="M37.9927 55.0013C37.6594 55.4838 37.2849 55.8302 36.8691 56.0407C36.4521 56.2441 36.0294 56.3269 35.6009 56.2889C35.1712 56.244 34.7692 56.0922 34.3949 55.8336C34.0829 55.6181 33.8311 55.3735 33.6393 55.0997C33.4475 54.8259 33.3272 54.5154 33.2782 54.1682C33.228 53.814 33.2613 53.4101 33.3782 52.9563C33.4591 52.6435 33.5834 52.2901 33.7512 51.8961C33.919 51.502 34.1225 51.0651 34.3618 50.5853C34.597 50.1026 34.8561 49.572 35.1391 48.9933L35.0536 49.8374C34.6543 49.5616 34.295 49.4547 33.9757 49.5167C33.6564 49.5787 33.3415 49.8343 33.0312 50.2835C32.8588 50.5331 32.7396 50.8347 32.6734 51.1883C32.6073 51.542 32.6907 51.8792 32.9238 52.2L31.3769 53.3985C30.9374 52.843 30.7053 52.2095 30.6806 51.4982C30.656 50.7869 30.9238 50.0257 31.484 49.2147C31.8949 48.6199 32.3513 48.1549 32.8532 47.8197C33.3552 47.4845 33.9126 47.3535 34.5256 47.4267C34.8671 47.466 35.1712 47.5594 35.438 47.7068C35.7048 47.8543 35.9921 48.0343 36.2998 48.2469L40.4173 51.0914L39.3916 52.5762L38.0066 51.6194L38.4401 51.6056C38.6665 52.2473 38.7494 52.8299 38.6888 53.3533C38.627 53.8697 38.3949 54.4191 37.9927 55.0013ZM36.9076 53.7172C37.1231 53.4053 37.25 53.1059 37.2884 52.8191C37.3256 52.5252 37.3165 52.2671 37.2613 52.0446C37.209 51.818 37.1508 51.6487 37.0867 51.5369C36.964 51.3231 36.7864 51.1267 36.5538 50.9476C36.3199 50.7614 36.1219 50.6123 35.9597 50.5003L36.4292 50.0874C36.1647 50.6481 35.9539 51.1045 35.7966 51.4567C35.6352 51.806 35.5112 52.0921 35.4248 52.315C35.3384 52.5379 35.272 52.7408 35.2255 52.9237C35.1771 53.1361 35.1565 53.3215 35.1637 53.4801C35.1696 53.6316 35.201 53.764 35.2581 53.8771C35.3179 53.986 35.404 54.0793 35.5163 54.1569C35.6702 54.2632 35.8292 54.3177 35.9932 54.3204C36.1559 54.3161 36.3152 54.2634 36.4712 54.1622C36.6271 54.061 36.7726 53.9127 36.9076 53.7172Z" fill="white"/>
<path d="M44.2857 47.0638C43.7107 47.6887 43.0783 48.096 42.3885 48.2856C41.6988 48.4753 41.0045 48.4684 40.3055 48.2649C39.6066 48.0614 38.9559 47.6823 38.3533 47.1278C37.7432 46.5665 37.3112 45.9422 37.0573 45.2552C36.8068 44.5644 36.751 43.8673 36.8899 43.1639C37.0288 42.4605 37.3807 41.8019 37.9455 41.1882C38.5993 40.4777 39.3274 40.0486 40.1297 39.9007C40.9318 39.7458 41.7051 39.8872 42.4495 40.3249L41.4547 42.2122C41.0601 42.014 40.6726 41.946 40.2924 42.0083C39.9156 42.0669 39.5989 42.2357 39.3422 42.5146C39.0478 42.8345 38.8846 43.1687 38.8526 43.517C38.8168 43.8619 38.8883 44.206 39.0672 44.5492C39.2423 44.8889 39.4972 45.2128 39.832 45.5209C40.3565 46.0035 40.8885 46.2801 41.4281 46.3507C41.9673 46.4142 42.4475 46.2172 42.8685 45.7596C43.1834 45.4174 43.3449 45.0851 43.353 44.7628C43.3611 44.4405 43.2611 44.1012 43.0531 43.745L44.8041 42.4916C45.2865 43.2515 45.4815 44.0286 45.3893 44.8231C45.2971 45.6176 44.9293 46.3645 44.2857 47.0638Z" fill="white"/>
<path d="M51.5819 39.9391C51.2248 40.3911 50.8354 40.7906 50.4138 41.1378C49.9994 41.4855 49.572 41.7338 49.1318 41.8827C48.6921 42.0244 48.2573 42.0178 47.8272 41.8628C47.4291 41.7136 47.1 41.4974 46.84 41.2144C46.5767 40.9276 46.2839 40.5993 45.9618 40.2296L41.3693 34.9585L42.9244 33.6037L47.4372 38.7833C47.6464 39.0234 47.8376 39.239 48.0107 39.4301C48.1844 39.614 48.3572 39.7316 48.5293 39.7828C48.8558 39.8805 49.1779 39.8077 49.4956 39.5645C49.8133 39.3212 50.1335 39.0154 50.4562 38.647L51.5819 39.9391ZM42.8577 38.7907L41.8117 37.5901L46.2024 33.7647L47.2484 34.9653L42.8577 38.7907Z" fill="white"/>
<path d="M59.3971 35.0928C58.6319 35.5265 57.8718 35.754 57.1168 35.7752C56.3594 35.792 55.6584 35.6112 55.0139 35.2327C54.3694 34.8543 53.8315 34.2846 53.4003 33.5238L50.0426 27.6001L51.8558 26.5549L55.2135 32.4787C55.3904 32.7909 55.604 33.0447 55.8541 33.2399C56.1042 33.4351 56.374 33.5728 56.6634 33.6528C56.9572 33.7303 57.2559 33.7498 57.5595 33.7114C57.865 33.6661 58.1585 33.5636 58.4399 33.4041C58.7302 33.2396 58.9698 33.037 59.1587 32.7962C59.3521 32.553 59.4887 32.2867 59.5688 31.9973C59.6488 31.7079 59.6671 31.407 59.6236 31.0946C59.5846 30.7797 59.4778 30.4683 59.3034 30.1605L55.9457 24.2368L57.7664 23.2048L61.1315 29.1417C61.5627 29.9025 61.7752 30.6566 61.7688 31.404C61.7624 32.1513 61.5575 32.8457 61.154 33.4869C60.748 34.1238 60.1623 34.6591 59.3971 35.0928Z" fill="white"/>
<path d="M68.7822 30.7205C67.8163 31.0818 66.9536 31.1561 66.1941 30.9436C65.4376 30.7246 64.8458 30.239 64.4187 29.4866L66.2816 28.4499C66.4966 28.7797 66.7795 28.995 67.1303 29.0959C67.4858 29.195 67.8766 29.1649 68.3027 29.0055C68.6531 28.8745 68.8982 28.7073 69.038 28.5039C69.176 28.2957 69.1999 28.0709 69.1096 27.8295C69.0529 27.6779 68.9699 27.5714 68.8605 27.5097C68.7493 27.4434 68.5444 27.4148 68.2456 27.424C67.9515 27.4314 67.5001 27.4653 66.8912 27.5257C66.206 27.5985 65.6392 27.6054 65.1908 27.5464C64.7424 27.4874 64.3839 27.3516 64.1155 27.139C63.8453 26.9216 63.6368 26.6164 63.4898 26.2234C63.3056 25.731 63.2717 25.2579 63.3881 24.8043C63.5027 24.3458 63.751 23.9346 64.1329 23.5704C64.5178 23.1998 65.0204 22.8985 65.6407 22.6666C66.242 22.4417 66.8092 22.3348 67.3422 22.346C67.8753 22.3571 68.3476 22.48 68.7592 22.7146C69.1755 22.9475 69.5036 23.2836 69.7434 23.7228L67.9018 24.8163C67.7624 24.5446 67.5552 24.3657 67.2802 24.2797C67.0051 24.1937 66.68 24.2046 66.3048 24.3125C65.9408 24.4217 65.6721 24.5762 65.4986 24.776C65.3298 24.974 65.287 25.1843 65.3702 25.4069C65.4198 25.5394 65.5064 25.6339 65.63 25.6902C65.7583 25.7447 65.9846 25.7653 66.3088 25.752C66.6378 25.7369 67.1289 25.6936 67.7822 25.622C68.4212 25.5557 68.954 25.5589 69.3805 25.6314C69.81 25.6975 70.1583 25.8425 70.4255 26.0663C70.691 26.2855 70.8981 26.5939 71.0468 26.9916C71.3408 27.7776 71.2878 28.5017 70.8878 29.164C70.4878 29.8263 69.786 30.3452 68.7822 30.7205Z" fill="white"/>
<path d="M78.3606 22.2969L76.739 21.4836L77.6436 20.047L75.9291 19.894L76.2072 18.0978L77.873 18.5198L77.4625 16.8349L79.259 16.5446L79.4001 18.2731L80.8482 17.3477L81.6779 18.9649L80.0989 19.6502L81.4099 20.7287L80.1271 22.0114L79.014 20.7319L78.3606 22.2969Z" fill="white"/>
</svg>
