<svg width="139" height="139" viewBox="0 0 139 139" fill="none" xmlns="http://www.w3.org/2000/svg">
<circle cx="69.1548" cy="69.1548" r="69.1548" fill="#042245"/>
<path d="M73.968 21.4641C73.0177 21.3571 72.2286 21.0747 71.6007 20.6168C70.9825 20.1513 70.5389 19.547 70.2699 18.804C70.0097 18.0619 69.9327 17.2217 70.0391 16.2834C70.1474 15.3276 70.4162 14.5131 70.8457 13.8399C71.2839 13.1677 71.8564 12.6734 72.5632 12.357C73.2711 12.0319 74.0914 11.9218 75.0242 12.0268C75.7303 12.1063 76.3486 12.2991 76.879 12.6052C77.4103 12.9026 77.8194 13.305 78.1062 13.8125C78.4027 14.3122 78.5562 14.9058 78.5666 15.5934L76.762 15.3902C76.6969 14.9517 76.5038 14.5912 76.1827 14.3087C75.8712 14.0184 75.4322 13.8414 74.8655 13.7777C74.2378 13.707 73.7203 13.7939 73.313 14.0385C72.9153 14.2753 72.6081 14.6103 72.3912 15.0434C72.1754 15.4679 72.0394 15.9278 71.9833 16.423C71.9252 16.9356 71.9572 17.432 72.0794 17.9121C72.2015 18.3922 72.4338 18.7968 72.7762 19.1257C73.1273 19.4556 73.6123 19.6554 74.2313 19.725C74.5974 19.7663 74.9302 19.7509 75.2297 19.679C75.5302 19.5985 75.7838 19.4642 75.9905 19.2763C76.2059 19.0894 76.3648 18.8565 76.467 18.5776L78.337 18.7881C78.1827 19.4483 77.8915 19.9919 77.4635 20.4189C77.0355 20.8458 76.52 21.1486 75.917 21.3271C75.3151 21.4969 74.6654 21.5426 73.968 21.4641Z" fill="white"/>
<path d="M83.6431 23.4911C82.9776 23.2689 82.4399 22.9418 82.0299 22.5098C81.6228 22.0696 81.3655 21.5549 81.2582 20.9658C81.1537 20.3684 81.2171 19.7256 81.4484 19.0375C81.6853 18.3327 82.026 17.7733 82.4705 17.3592C82.9261 16.9396 83.4494 16.6763 84.0405 16.5694C84.6316 16.4624 85.2516 16.5173 85.9005 16.7339C86.566 16.9561 87.0968 17.2901 87.4928 17.7359C87.8889 18.1816 88.1392 18.7032 88.2437 19.3006C88.3482 19.898 88.2821 20.5491 88.0452 21.2538C87.8139 21.942 87.476 22.4931 87.0315 22.9072C86.598 23.3157 86.0913 23.5708 85.5114 23.6722C84.9397 23.7764 84.3169 23.716 83.6431 23.4911ZM84.1532 21.8909C84.5359 22.0186 84.8716 22.0385 85.1602 21.9504C85.4489 21.8624 85.6877 21.7024 85.8767 21.4704C86.0768 21.2329 86.227 20.9649 86.3274 20.6664C86.4277 20.368 86.4698 20.0639 86.4536 19.7542C86.4457 19.4472 86.3546 19.1678 86.1802 18.916C86.0169 18.6586 85.7397 18.4646 85.3488 18.3341C84.9744 18.2091 84.6401 18.1989 84.3459 18.3035C84.0544 18.3999 83.8087 18.5668 83.6085 18.8043C83.4168 19.0445 83.2707 19.3139 83.1704 19.6124C83.0673 19.9192 83.021 20.2219 83.0317 20.5205C83.0506 20.8219 83.1487 21.0944 83.3259 21.338C83.5031 21.5816 83.7789 21.7659 84.1532 21.8909Z" fill="white"/>
<path d="M89.5377 25.5544L92.9726 19.5498L94.4702 20.4008L94.1527 21.1413C94.4376 21.0315 94.7194 20.9802 94.998 20.9876C95.2886 20.9916 95.5574 21.0336 95.8045 21.1137C96.0592 21.198 96.278 21.2921 96.4609 21.3961C97.0402 21.7252 97.4181 22.1061 97.5949 22.5386C97.7792 22.9755 97.8183 23.4456 97.7121 23.9489C97.618 24.449 97.4231 24.9573 97.1276 25.4738L95.2309 28.7895L93.6304 27.88L95.4098 24.7695C95.5141 24.5872 95.6031 24.3962 95.6769 24.1966C95.7507 23.9969 95.7892 23.7974 95.7922 23.5978C95.8029 23.4026 95.7619 23.2182 95.6693 23.0448C95.5766 22.8714 95.4121 22.7175 95.1759 22.5833C94.871 22.41 94.5722 22.3409 94.2796 22.3759C93.9869 22.4109 93.7171 22.5294 93.4703 22.7314C93.2235 22.9333 93.011 23.19 92.8328 23.5015L91.1382 26.4639L89.5377 25.5544Z" fill="white"/>
<path d="M99.9804 32.3677C99.5302 32.0048 99.1958 31.6452 98.9771 31.289C98.7652 30.9383 98.6857 30.5705 98.7384 30.1857C98.8035 29.7996 99.0209 29.3788 99.3905 28.9233L101.261 26.6186L100.463 25.9753L101.497 24.7006L102.295 25.3439L103.462 23.906L104.895 25.0607L103.728 26.4986L104.904 27.4471L103.87 28.7218L102.693 27.7733L100.989 29.8741C100.806 30.0984 100.704 30.3082 100.681 30.5033C100.658 30.6985 100.79 30.9115 101.076 31.1425L101.526 31.5054L100.492 32.7801L99.9804 32.3677Z" fill="white"/>
<path d="M103.923 36.1586C103.712 35.9249 103.535 35.6714 103.394 35.398C103.265 35.1253 103.189 34.8459 103.167 34.56C103.144 34.274 103.186 33.9945 103.293 33.7214C103.401 33.4482 103.584 33.1945 103.845 32.9601C104.197 32.6437 104.541 32.4631 104.879 32.4184C105.223 32.3678 105.559 32.4127 105.888 32.5533C106.216 32.6938 106.541 32.9022 106.862 33.1786C107.189 33.4614 107.506 33.7716 107.811 34.1091L108.482 34.8489C108.67 34.679 108.804 34.4939 108.883 34.2936C108.974 34.0939 108.996 33.8908 108.951 33.6841C108.912 33.4717 108.796 33.2584 108.602 33.0442C108.478 32.9079 108.338 32.7925 108.182 32.6978C108.037 32.6038 107.895 32.5439 107.753 32.5181C107.611 32.4924 107.477 32.5134 107.349 32.5812L106.097 31.1988C106.419 30.9799 106.745 30.8511 107.076 30.8122C107.414 30.7675 107.745 30.7936 108.069 30.8906C108.394 30.9875 108.7 31.1362 108.987 31.3366C109.288 31.5376 109.561 31.7744 109.808 32.0469C110.484 32.7933 110.769 33.5383 110.663 34.282C110.563 35.0198 110.122 35.7403 109.341 36.4434L106.567 38.9396L105.456 37.713L106.102 37.0959C105.727 37.1387 105.394 37.1032 105.101 36.9892C104.815 36.8818 104.574 36.7457 104.377 36.5809C104.18 36.4162 104.029 36.2754 103.923 36.1586ZM105.29 35.4945C105.496 35.7216 105.729 35.8883 105.991 35.9944C106.253 36.1006 106.512 36.1385 106.768 36.1082C107.024 36.0779 107.25 35.9749 107.445 35.7991L107.572 35.6848L106.726 34.7503C106.602 34.614 106.475 34.4868 106.344 34.3687C106.22 34.2572 106.091 34.167 105.958 34.0983C105.837 34.0303 105.711 34.0022 105.58 34.0141C105.449 34.026 105.318 34.0906 105.188 34.2078C105.058 34.325 104.976 34.457 104.944 34.604C104.924 34.7515 104.944 34.9042 105.004 35.0621C105.071 35.214 105.166 35.3582 105.29 35.4945Z" fill="white"/>
<path d="M109.932 43.8768C109.56 43.2737 109.363 42.6806 109.343 42.0975C109.327 41.5218 109.474 40.9848 109.784 40.4863C110.102 39.9832 110.567 39.5437 111.18 39.1677C111.8 38.7872 112.409 38.5724 113.007 38.5235C113.613 38.47 114.176 38.5813 114.697 38.8572C115.223 39.1405 115.676 39.5912 116.058 40.2091C116.352 40.6856 116.529 41.1627 116.587 41.6404C116.645 42.1182 116.583 42.5673 116.4 42.9878C116.221 43.4157 115.908 43.7928 115.46 44.1189L114.515 42.5889C114.735 42.3614 114.845 42.1142 114.845 41.8473C114.849 41.5878 114.771 41.3277 114.61 41.0672C114.403 40.7321 114.155 40.5145 113.867 40.4144C113.583 40.3217 113.286 40.3086 112.977 40.3752C112.672 40.4492 112.393 40.5641 112.139 40.72C111.863 40.8897 111.629 41.0948 111.437 41.3355C111.254 41.5716 111.143 41.8345 111.106 42.1244C111.081 42.4171 111.167 42.7235 111.365 43.0437C111.53 43.3117 111.735 43.5096 111.979 43.6372C112.23 43.7603 112.505 43.7713 112.803 43.6704L113.769 45.2339C113.261 45.4947 112.767 45.5971 112.29 45.5412C111.812 45.4852 111.369 45.3104 110.961 45.0166C110.565 44.7258 110.222 44.3458 109.932 43.8768Z" fill="white"/>
<path d="M114.032 51.7235C113.809 51.1907 113.687 50.7158 113.665 50.2988C113.646 49.8898 113.752 49.5287 113.982 49.2154C114.224 48.9067 114.616 48.6399 115.159 48.4148L117.905 47.2761L117.51 46.3315L119.029 45.7017L119.423 46.6462L121.137 45.9357L121.844 47.631L120.131 48.3415L120.713 49.734L119.194 50.3639L118.612 48.9713L116.11 50.0093C115.842 50.1202 115.652 50.256 115.538 50.4167C115.425 50.5774 115.439 50.8272 115.581 51.1663L115.803 51.6991L114.284 52.329L114.032 51.7235Z" fill="white"/>
<path d="M116.985 63.7459C116.884 62.8421 116.971 62.0803 117.247 61.4604C117.523 60.8492 117.964 60.3693 118.569 60.0208C119.176 59.6809 119.924 59.4618 120.813 59.3633L125.914 58.7988L126.122 60.6629L120.929 61.2376C120.511 61.2839 120.121 61.3886 119.759 61.5518C119.408 61.7227 119.131 61.9689 118.928 62.2904C118.735 62.6197 118.668 63.045 118.726 63.5664C118.785 64.0965 118.944 64.4924 119.203 64.7541C119.47 65.0149 119.797 65.181 120.185 65.2524C120.572 65.3239 120.971 65.337 121.381 65.2916L126.573 64.717L126.781 66.5811L121.68 67.1456C120.799 67.2431 120.021 67.1928 119.346 66.9948C118.68 66.7958 118.144 66.4284 117.74 65.8925C117.336 65.3565 117.085 64.641 116.985 63.7459Z" fill="white"/>
<path d="M117.204 73.4133C117.232 73.0911 117.297 72.7632 117.397 72.4297C117.497 72.0962 117.643 71.7931 117.835 71.5204C118.035 71.2485 118.288 71.0251 118.595 70.8503C118.91 70.6763 119.288 70.5781 119.731 70.5558L119.565 72.411C119.403 72.4493 119.26 72.5288 119.134 72.6494C119.008 72.7786 118.911 72.9281 118.844 73.0976C118.775 73.2759 118.732 73.4565 118.716 73.6394C118.705 73.7613 118.703 73.884 118.71 74.0075C118.716 74.131 118.741 74.2473 118.784 74.3564C118.827 74.4656 118.885 74.5541 118.959 74.6221C119.041 74.6908 119.147 74.7309 119.278 74.7425C119.418 74.7549 119.531 74.721 119.618 74.6409C119.704 74.5607 119.776 74.4442 119.834 74.2913C119.9 74.1392 119.964 73.9649 120.026 73.7685C120.136 73.4183 120.258 73.0428 120.39 72.642C120.523 72.2412 120.694 71.9008 120.904 71.6209C121.002 71.5067 121.108 71.4064 121.221 71.3198C121.335 71.2333 121.46 71.1654 121.596 71.116C121.733 71.0667 121.873 71.0307 122.016 71.0083C122.167 70.9866 122.326 70.9831 122.492 70.9978C122.868 71.0311 123.18 71.1377 123.428 71.3177C123.684 71.5071 123.883 71.7442 124.025 72.0289C124.167 72.3136 124.258 72.6245 124.299 72.9617C124.348 73.2996 124.357 73.6427 124.326 73.9911C124.284 74.4614 124.167 74.8899 123.974 75.2767C123.789 75.6641 123.524 75.9742 123.177 76.2069C122.839 76.4403 122.414 76.5651 121.902 76.5812L122.058 74.8306C122.253 74.8128 122.417 74.7087 122.548 74.5184C122.688 74.329 122.772 74.0862 122.798 73.79C122.807 73.6855 122.809 73.5715 122.802 73.448C122.795 73.3333 122.774 73.226 122.738 73.1264C122.703 73.0267 122.649 72.9429 122.576 72.875C122.511 72.8078 122.418 72.7688 122.296 72.758C122.199 72.7495 122.11 72.7679 122.026 72.8132C121.942 72.8672 121.869 72.9441 121.808 73.044C121.745 73.1526 121.685 73.2833 121.627 73.4362C121.531 73.7262 121.439 74.0165 121.352 74.3072C121.272 74.6074 121.191 74.8723 121.109 75.1021C121.022 75.3841 120.898 75.6365 120.738 75.8593C120.576 76.0907 120.366 76.2697 120.109 76.3961C119.859 76.532 119.541 76.5829 119.157 76.5489C118.72 76.5102 118.365 76.391 118.092 76.1913C117.828 75.9923 117.626 75.7374 117.487 75.4266C117.346 75.1245 117.256 74.7962 117.218 74.4416C117.178 74.0957 117.173 73.753 117.204 73.4133Z" fill="white"/>
<path d="M119.738 87.1011L121.031 86.2445L121.628 87.4102L122.317 86.2922L123.539 87.2386L122.61 88.1715L123.888 88.468L123.352 89.9345L122.182 89.3423L122.296 90.6399L120.745 90.5932L120.939 89.2957L119.734 89.7938L119.297 88.3088L120.589 88.1078L119.738 87.1011Z" fill="white"/>
<path d="M108.008 98.1516C108.577 97.3856 109.218 96.8464 109.93 96.5341C110.644 96.2341 111.391 96.1542 112.171 96.2944C112.945 96.4417 113.714 96.7962 114.475 97.358C115.251 97.9302 115.823 98.5702 116.193 99.2778C116.557 99.9925 116.7 100.734 116.62 101.502C116.548 102.276 116.233 103.038 115.674 103.79C115.251 104.36 114.774 104.796 114.243 105.101C113.718 105.41 113.164 105.561 112.579 105.554C111.997 105.56 111.405 105.395 110.802 105.059L111.883 103.604C112.296 103.768 112.706 103.782 113.112 103.647C113.52 103.523 113.894 103.233 114.233 102.776C114.609 102.27 114.793 101.78 114.784 101.307C114.778 100.845 114.641 100.412 114.374 100.008C114.113 99.6092 113.782 99.2616 113.38 98.9651C112.964 98.6581 112.517 98.4371 112.039 98.302C111.56 98.1668 111.093 98.1645 110.636 98.2951C110.173 98.4327 109.757 98.7509 109.386 99.2499C109.167 99.5451 109.014 99.8399 108.926 100.134C108.845 100.434 108.835 100.72 108.895 100.992C108.949 101.272 109.072 101.525 109.263 101.753L108.143 103.261C107.647 102.797 107.321 102.273 107.165 101.69C107.008 101.107 107.004 100.511 107.151 99.9015C107.305 99.2972 107.59 98.7139 108.008 98.1516Z" fill="white"/>
<path d="M101.392 105.498C101.917 105.034 102.47 104.733 103.05 104.595C103.636 104.463 104.212 104.498 104.778 104.699C105.349 104.907 105.877 105.283 106.359 105.826C106.854 106.383 107.17 106.956 107.308 107.547C107.445 108.15 107.413 108.733 107.211 109.297C107.009 109.861 106.652 110.369 106.139 110.821C105.614 111.285 105.059 111.576 104.473 111.696C103.888 111.815 103.31 111.771 102.738 111.563C102.166 111.355 101.633 110.973 101.139 110.416C100.656 109.873 100.346 109.306 100.208 108.716C100.069 108.137 100.1 107.572 100.302 107.021C100.496 106.475 100.86 105.968 101.392 105.498ZM102.528 106.737C102.226 107.004 102.041 107.284 101.974 107.577C101.906 107.871 101.926 108.157 102.033 108.436C102.14 108.727 102.298 108.991 102.507 109.226C102.717 109.462 102.96 109.65 103.237 109.791C103.508 109.937 103.797 109.998 104.103 109.973C104.408 109.961 104.715 109.818 105.024 109.546C105.319 109.285 105.495 109.001 105.551 108.695C105.613 108.395 105.59 108.099 105.484 107.808C105.371 107.523 105.209 107.262 105 107.026C104.785 106.784 104.545 106.593 104.28 106.453C104.008 106.319 103.722 106.268 103.422 106.299C103.122 106.33 102.824 106.477 102.528 106.737Z" fill="white"/>
<path d="M96.6599 109.56L100.174 115.518L98.6882 116.389L98.202 115.746C98.1556 116.047 98.0599 116.316 97.9148 116.553C97.7666 116.802 97.5962 117.014 97.4035 117.187C97.2033 117.365 97.0124 117.508 96.8309 117.614C96.2561 117.951 95.7365 118.088 95.2721 118.025C94.8002 117.967 94.3717 117.767 93.9865 117.424C93.5983 117.094 93.2531 116.672 92.9507 116.16L91.0101 112.869L92.5984 111.939L94.419 115.026C94.5257 115.207 94.6475 115.379 94.7845 115.542C94.9214 115.705 95.076 115.838 95.2481 115.94C95.4126 116.046 95.5934 116.103 95.7905 116.109C95.9875 116.115 96.2033 116.05 96.4378 115.912C96.7403 115.735 96.9492 115.511 97.0645 115.241C97.1798 114.97 97.211 114.678 97.1582 114.364C97.1053 114.05 96.9878 113.739 96.8055 113.43L95.0716 110.49L96.6599 109.56Z" fill="white"/>
<path d="M85.5232 115.187C86.0634 114.979 86.5429 114.87 86.9618 114.859C87.3724 114.851 87.7319 114.965 88.0402 115.203C88.3435 115.452 88.6009 115.85 88.8126 116.396L89.8835 119.161L90.8411 118.793L91.4334 120.323L90.4758 120.691L91.144 122.416L89.4252 123.077L88.757 121.352L87.3452 121.895L86.7528 120.366L88.1647 119.823L87.1886 117.302C87.0843 117.033 86.9531 116.84 86.7948 116.722C86.6366 116.605 86.3856 116.613 86.0418 116.745L85.5017 116.953L84.9093 115.423L85.5232 115.187Z" fill="white"/>
<path d="M80.2363 116.704C80.5452 116.639 80.8538 116.613 81.162 116.628C81.4634 116.654 81.7439 116.729 82.0036 116.852C82.2632 116.976 82.4847 117.153 82.6682 117.382C82.8517 117.611 82.9799 117.897 83.0529 118.239C83.1515 118.701 83.1356 119.089 83.0052 119.402C82.8767 119.725 82.6692 119.992 82.3827 120.205C82.0962 120.417 81.7525 120.593 81.3515 120.732C80.942 120.872 80.5141 120.99 80.0679 121.084L79.0897 121.292C79.1426 121.54 79.2363 121.748 79.3709 121.916C79.4987 122.094 79.6636 122.216 79.8657 122.28C80.0697 122.353 80.3132 122.36 80.5964 122.3C80.7766 122.262 80.9471 122.199 81.1077 122.111C81.2616 122.034 81.3853 121.94 81.4786 121.831C81.5719 121.722 81.6211 121.595 81.6262 121.451L83.454 121.064C83.4828 121.451 83.4311 121.797 83.2989 122.102C83.1685 122.416 82.98 122.688 82.7333 122.919C82.4867 123.151 82.2042 123.34 81.886 123.488C81.561 123.646 81.2183 123.764 80.8579 123.84C79.871 124.049 79.0814 123.922 78.4889 123.457C77.8983 123.001 77.4935 122.26 77.2745 121.234L76.4969 117.591L78.1188 117.247L78.3307 118.114C78.4813 117.769 78.6794 117.499 78.9247 117.304C79.1616 117.111 79.4007 116.971 79.6423 116.884C79.8839 116.797 80.0819 116.737 80.2363 116.704ZM80.1283 118.215C79.828 118.279 79.5662 118.397 79.3429 118.57C79.1196 118.742 78.9569 118.946 78.8548 119.183C78.7527 119.419 78.7291 119.665 78.7838 119.922L78.8194 120.088L80.0551 119.827C80.2353 119.788 80.4094 119.742 80.5774 119.689C80.7368 119.637 80.8796 119.571 81.006 119.491C81.1256 119.421 81.213 119.326 81.2684 119.207C81.3237 119.088 81.3331 118.943 81.2966 118.772C81.2601 118.601 81.1862 118.465 81.0748 118.363C80.9567 118.272 80.814 118.213 80.6468 118.186C80.4813 118.167 80.3085 118.177 80.1283 118.215Z" fill="white"/>
<path d="M70.5312 118.015C71.2416 117.996 71.8551 118.124 72.3716 118.398C72.8794 118.673 73.272 119.069 73.5495 119.586C73.8271 120.113 73.9758 120.734 73.9954 121.451C74.0153 122.176 73.8966 122.809 73.6393 123.35C73.3823 123.899 73.0035 124.329 72.503 124.64C71.9937 124.951 71.3751 125.117 70.6472 125.137C70.0859 125.152 69.5833 125.065 69.1393 124.876C68.6953 124.687 68.3366 124.408 68.0632 124.039C67.781 123.671 67.6105 123.212 67.5516 122.662L69.3538 122.613C69.4411 122.917 69.6007 123.136 69.8325 123.269C70.0556 123.403 70.3206 123.466 70.6275 123.458C71.0222 123.447 71.3353 123.342 71.5668 123.144C71.7896 122.945 71.9495 122.696 72.0466 122.396C72.1349 122.096 72.175 121.797 72.1669 121.5C72.158 121.177 72.097 120.872 71.9839 120.587C71.871 120.31 71.698 120.083 71.465 119.906C71.2234 119.737 70.9141 119.658 70.537 119.668C70.2213 119.677 69.9469 119.754 69.714 119.901C69.4812 120.056 69.334 120.287 69.2722 120.595L67.4305 120.645C67.4588 120.076 67.6169 119.599 67.9048 119.215C68.1927 118.831 68.5664 118.537 69.026 118.332C69.477 118.136 69.9787 118.03 70.5312 118.015Z" fill="white"/>
<path d="M61.6078 117.625C62.182 117.699 62.6558 117.831 63.0292 118.021C63.3939 118.209 63.6548 118.481 63.8118 118.836C63.9591 119.199 63.9948 119.671 63.919 120.252L63.5353 123.192L64.5532 123.324L64.3409 124.949L63.3231 124.817L63.0837 126.651L61.2567 126.414L61.4961 124.58L59.9954 124.386L60.2076 122.76L61.7083 122.955L62.058 120.275C62.0954 119.989 62.0726 119.757 61.9897 119.579C61.9068 119.401 61.6827 119.288 61.3173 119.24L60.7431 119.166L60.9553 117.54L61.6078 117.625Z" fill="white"/>
<path d="M49.685 114.161C50.5205 114.527 51.1388 114.983 51.5396 115.531C51.9324 116.075 52.1288 116.695 52.1286 117.392C52.1204 118.086 51.9366 118.841 51.5772 119.657L49.5156 124.342L47.7923 123.588L49.8908 118.82C50.06 118.436 50.1641 118.047 50.2031 117.653C50.2306 117.264 50.1553 116.902 49.9773 116.566C49.7878 116.235 49.4519 115.964 48.9699 115.754C48.4798 115.539 48.0564 115.478 47.6996 115.571C47.3393 115.671 47.0312 115.87 46.7752 116.169C46.5192 116.468 46.3084 116.805 46.1428 117.182L44.0442 121.95L42.3209 121.197L44.3824 116.512C44.7384 115.704 45.1712 115.057 45.6811 114.574C46.1874 114.098 46.7744 113.82 47.4421 113.739C48.1098 113.659 48.8574 113.8 49.685 114.161Z" fill="white"/>
<path d="M41.2583 109.556C41.5237 109.742 41.7762 109.962 42.0156 110.216C42.255 110.469 42.4451 110.747 42.586 111.049C42.7217 111.358 42.7888 111.688 42.7872 112.04C42.7806 112.399 42.6761 112.774 42.4739 113.167L40.9457 112.095C40.9935 111.936 40.9965 111.773 40.9545 111.604C40.9053 111.431 40.8242 111.272 40.711 111.129C40.5906 110.98 40.4551 110.853 40.3044 110.747C40.204 110.677 40.0985 110.614 39.9879 110.557C39.8774 110.501 39.7639 110.465 39.6475 110.447C39.5311 110.43 39.4251 110.435 39.3294 110.465C39.2287 110.501 39.1405 110.573 39.0648 110.68C38.984 110.794 38.9567 110.909 38.983 111.023C39.0093 111.138 39.0744 111.259 39.1783 111.385C39.2772 111.518 39.3965 111.661 39.5363 111.812C39.785 112.083 40.0502 112.376 40.3318 112.691C40.6135 113.006 40.8233 113.325 40.9612 113.646C41.0112 113.788 41.0453 113.929 41.0636 114.071C41.082 114.212 41.0784 114.354 41.0529 114.496C41.0273 114.638 40.9885 114.777 40.9365 114.912C40.8793 115.053 40.8028 115.192 40.7068 115.328C40.4897 115.635 40.2409 115.851 39.9603 115.975C39.6674 116.101 39.3618 116.154 39.0435 116.134C38.7251 116.114 38.4094 116.037 38.0964 115.903C37.7783 115.776 37.4758 115.612 37.1888 115.41C36.8014 115.139 36.4881 114.823 36.2489 114.462C36.0047 114.109 35.8684 113.725 35.84 113.31C35.8065 112.901 35.9111 112.472 36.1538 112.022L37.5959 113.034C37.5135 113.211 37.522 113.404 37.6213 113.613C37.7157 113.829 37.8848 114.022 38.1287 114.193C38.2148 114.254 38.3132 114.312 38.4237 114.368C38.5271 114.419 38.6308 114.454 38.735 114.474C38.8392 114.494 38.9391 114.489 39.0348 114.46C39.1254 114.438 39.206 114.377 39.2767 114.277C39.3322 114.198 39.3612 114.111 39.3636 114.017C39.3588 113.917 39.3285 113.816 39.2727 113.713C39.2098 113.604 39.1263 113.487 39.0224 113.361C38.8189 113.132 38.6128 112.908 38.4042 112.686C38.1834 112.467 37.9938 112.265 37.8354 112.079C37.634 111.863 37.4768 111.63 37.3639 111.379C37.2438 111.124 37.1935 110.854 37.2129 110.568C37.2201 110.284 37.3347 109.985 37.5569 109.67C37.8093 109.313 38.0906 109.066 38.4007 108.931C38.7058 108.803 39.0283 108.756 39.3681 108.792C39.7008 108.822 40.0309 108.909 40.3583 109.053C40.6785 109.192 40.9785 109.36 41.2583 109.556Z" fill="white"/>
<path d="M28.0905 104.89L28.1899 106.435L26.8787 106.368L27.5071 107.521L26.074 108.105L25.7265 106.837L24.8309 107.793L23.8232 106.598L24.9221 105.883L23.7368 105.334L24.5517 104.017L25.5831 104.832L25.7511 103.543L27.2607 103.906L26.7908 105.123L28.0905 104.89Z" fill="white"/>
<path d="M24.3203 89.2327C24.7028 90.1062 24.8522 90.9284 24.7686 91.6994C24.6735 92.4658 24.3704 93.1509 23.8595 93.7548C23.345 94.3506 22.6536 94.8374 21.7852 95.2151C20.9007 95.5998 20.0586 95.7753 19.2589 95.7415C18.4556 95.6997 17.7398 95.453 17.1112 95.0013C16.4747 94.5531 15.9686 93.9003 15.5932 93.0428C15.3089 92.3937 15.1671 91.7637 15.1677 91.1529C15.1602 90.5456 15.3051 89.9912 15.6025 89.4898C15.8883 88.9839 16.3272 88.5545 16.9193 88.2015L17.6457 89.8604C17.2973 90.136 17.0807 90.483 16.996 90.9015C16.8996 91.3154 16.9655 91.7829 17.1936 92.3038C17.4462 92.8808 17.7807 93.2839 18.1969 93.513C18.6016 93.7377 19.0464 93.8353 19.5312 93.8057C20.0079 93.7796 20.4755 93.6668 20.9338 93.4675C21.4082 93.2611 21.8234 92.9851 22.1794 92.6395C22.5354 92.2939 22.7706 91.8911 22.885 91.431C22.996 90.963 22.9269 90.4445 22.6777 89.8755C22.5304 89.5389 22.3505 89.2594 22.1382 89.0369C21.9179 88.8179 21.6744 88.6662 21.4077 88.5819C21.1375 88.4895 20.8557 88.469 20.5623 88.5203L19.8096 86.8013C20.4604 86.6041 21.0783 86.5834 21.6634 86.7392C22.2485 86.8949 22.7694 87.1883 23.2261 87.6193C23.6748 88.0538 24.0395 88.5916 24.3203 89.2327Z" fill="white"/>
<path d="M21.2385 79.8409C21.3778 80.5265 21.3621 81.1541 21.1914 81.7238C21.0122 82.2953 20.6933 82.7745 20.2348 83.1614C19.7678 83.5501 19.1774 83.8165 18.4637 83.9605C17.7328 84.108 17.0764 84.0933 16.4944 83.9164C15.9021 83.7326 15.4118 83.4123 15.0236 82.9554C14.6354 82.4985 14.3733 81.9358 14.2375 81.2673C14.0982 80.5817 14.1233 79.9566 14.3129 79.392C14.5026 78.8274 14.8309 78.3507 15.2979 77.9621C15.765 77.5734 16.364 77.3053 17.0948 77.1578C17.8085 77.0137 18.4564 77.0302 19.0384 77.2071C19.61 77.3772 20.0848 77.6873 20.4627 78.1374C20.8388 78.5789 21.0974 79.1467 21.2385 79.8409ZM19.5928 80.1998C19.5127 79.8056 19.3622 79.5059 19.1415 79.3006C18.9208 79.0954 18.6624 78.9691 18.3663 78.9218C18.0599 78.8677 17.752 78.8718 17.4424 78.9343C17.1329 78.9968 16.8475 79.1124 16.5864 79.2811C16.3236 79.4412 16.1262 79.6594 15.9944 79.9358C15.8522 80.2054 15.8221 80.5416 15.9039 80.9444C15.9823 81.33 16.1404 81.6237 16.3784 81.8255C16.6077 82.029 16.8756 82.1578 17.182 82.2119C17.4866 82.2575 17.7937 82.249 18.1033 82.1866C18.4214 82.1224 18.7076 82.0111 18.9619 81.8527C19.2144 81.6857 19.4023 81.4649 19.5255 81.1903C19.6487 80.9156 19.6711 80.5854 19.5928 80.1998Z" fill="white"/>
<path d="M20.0847 73.7179L13.1497 73.7639L13.1382 72.0457L13.9403 71.9486C13.7022 71.7578 13.5165 71.5405 13.3833 71.2965C13.2412 71.0439 13.143 70.791 13.0887 70.5377C13.0343 70.2758 13.0064 70.0399 13.005 69.83C13.0006 69.1655 13.1419 68.6487 13.429 68.2795C13.716 67.9016 14.1046 67.6324 14.5948 67.4717C15.0762 67.3024 15.6152 67.2158 16.2118 67.2118L20.0412 67.1865L20.0534 69.0226L16.4609 69.0464C16.2503 69.0478 16.0399 69.0667 15.8296 69.1031C15.6193 69.1394 15.4267 69.2063 15.2519 69.3036C15.077 69.3922 14.9375 69.5199 14.8333 69.6868C14.7291 69.8536 14.678 70.0725 14.6798 70.3436C14.6821 70.6933 14.7718 70.9856 14.9488 71.2206C15.1259 71.4555 15.3639 71.6288 15.6629 71.7405C15.962 71.8522 16.2913 71.9068 16.651 71.9044L20.0725 71.8818L20.0847 73.7179Z" fill="white"/>
<path d="M20.7741 61.256C20.6845 61.8261 20.5399 62.2948 20.3402 62.6619C20.1419 63.0204 19.8624 63.2733 19.5018 63.4206C19.134 63.5579 18.6596 63.5813 18.0789 63.4907L15.1405 63.0325L14.9819 64.0432L13.3567 63.7898L13.5153 62.7791L11.6821 62.4932L11.9669 60.6791L13.8002 60.9649L14.0341 59.4748L15.6593 59.7282L15.4254 61.2184L18.1037 61.6361C18.3897 61.6807 18.6232 61.664 18.8042 61.586C18.9851 61.508 19.1041 61.2876 19.1611 60.9248L19.2506 60.3546L20.8758 60.6081L20.7741 61.256Z" fill="white"/>
<path d="M22.0983 55.9494C22.0009 56.2489 21.8686 56.5278 21.7015 56.7864C21.5288 57.0339 21.3238 57.2388 21.0865 57.4012C20.8493 57.5635 20.5852 57.6666 20.2942 57.7105C20.0033 57.7543 19.6909 57.7223 19.3571 57.6145C18.9064 57.4689 18.5773 57.2614 18.3698 56.9922C18.1539 56.7202 18.025 56.4074 17.9833 56.0538C17.9415 55.7002 17.9605 55.3157 18.0403 54.9003C18.1228 54.4766 18.2344 54.0484 18.375 53.6159L18.6835 52.6677C18.4414 52.5895 18.2138 52.5665 18.0004 52.5987C17.7814 52.6198 17.5934 52.7016 17.4364 52.8439C17.2711 52.9835 17.1438 53.1906 17.0546 53.465C16.9977 53.6397 16.9673 53.8183 16.9633 54.0008C16.9536 54.1724 16.9729 54.3257 17.0212 54.4608C17.0695 54.5958 17.155 54.7016 17.2777 54.778L16.7014 56.5497C16.3505 56.3811 16.0754 56.1636 15.8762 55.897C15.6686 55.6277 15.5261 55.3289 15.4484 55.0005C15.3708 54.6721 15.3472 54.3335 15.3776 53.9849C15.4023 53.6252 15.4715 53.2707 15.5852 52.9214C15.8963 51.9648 16.4016 51.3468 17.1013 51.0673C17.7925 50.7851 18.6389 50.8058 19.6404 51.1293L23.1956 52.278L22.6843 53.85L21.8249 53.5999C22.0494 53.9022 22.1851 54.2081 22.232 54.5174C22.2817 54.8184 22.284 55.0949 22.2389 55.3468C22.1938 55.5988 22.147 55.7997 22.0983 55.9494ZM20.8386 55.1012C20.9333 54.8101 20.9614 54.5251 20.923 54.2461C20.8847 53.9671 20.7883 53.7246 20.634 53.5185C20.4797 53.3124 20.2774 53.1689 20.027 53.088L19.8643 53.0354L19.4747 54.2332C19.4179 54.4078 19.3707 54.581 19.3333 54.7528C19.2986 54.9162 19.2847 55.0726 19.2914 55.2218C19.2926 55.3601 19.3311 55.4828 19.4069 55.59C19.4827 55.6972 19.604 55.7778 19.7709 55.8317C19.9378 55.8857 20.0932 55.8899 20.2371 55.8445C20.3754 55.788 20.4981 55.6944 20.6052 55.5635C20.704 55.43 20.7818 55.2759 20.8386 55.1012Z" fill="white"/>
<path d="M25.8092 46.9106C25.4701 47.533 25.0519 47.9982 24.5547 48.3062C24.0616 48.6065 23.521 48.7467 22.9328 48.7269C22.3369 48.7029 21.7229 48.5199 21.0907 48.1777C20.4507 47.8314 19.9605 47.4119 19.62 46.9192C19.2717 46.4223 19.088 45.8801 19.0686 45.2925C19.0535 44.6973 19.2197 44.0808 19.5671 43.443C19.8351 42.9513 20.1624 42.5613 20.549 42.273C20.9357 41.9848 21.3575 41.8151 21.8147 41.764C22.276 41.7052 22.7599 41.788 23.2666 42.0125L22.4063 43.5915C22.0988 43.5147 21.8289 43.5427 21.5967 43.6758C21.3687 43.8011 21.1814 43.9982 21.0349 44.2672C20.8465 44.613 20.7806 44.9355 20.8372 45.2348C20.8979 45.5263 21.0343 45.7892 21.2462 46.0232C21.4623 46.2496 21.7014 46.4337 21.9635 46.5756C22.2488 46.73 22.5438 46.8299 22.8484 46.8754C23.1454 46.9167 23.4292 46.8813 23.7 46.7691C23.9672 46.6451 24.1908 46.4179 24.3709 46.0874C24.5216 45.8108 24.5918 45.5354 24.5814 45.2612C24.5634 44.9828 24.4362 44.7398 24.1998 44.5323L25.079 42.9186C25.5592 43.2283 25.8939 43.6034 26.0831 44.0441C26.2723 44.4848 26.3407 44.9546 26.2885 45.4537C26.2327 45.9409 26.0729 46.4265 25.8092 46.9106Z" fill="white"/>
<path d="M30.5772 39.4706C30.2249 39.9285 29.8729 40.2711 29.5213 40.4982C29.175 40.7184 28.8082 40.8072 28.4209 40.7646C28.0319 40.7098 27.6042 40.5042 27.1377 40.1477L24.7775 38.3441L24.1529 39.156L22.8475 38.1584L23.4721 37.3466L21.9996 36.2213L23.1206 34.7642L24.5931 35.8894L25.5139 34.6924L26.8194 35.69L25.8985 36.887L28.0499 38.5309C28.2796 38.7065 28.4927 38.8032 28.689 38.821C28.8853 38.8388 29.0956 38.702 29.3198 38.4106L29.6721 37.9526L30.9776 38.9502L30.5772 39.4706Z" fill="white"/>
<path d="M39.574 30.8893C38.8397 31.429 38.1344 31.7354 37.4582 31.8086C36.7891 31.8766 36.1516 31.7368 35.5455 31.3891C34.9466 31.0362 34.3815 30.5008 33.8505 29.783L30.8047 25.666L32.3193 24.553L35.4198 28.7439C35.6697 29.0817 35.956 29.3655 36.2788 29.5955C36.6034 29.8133 36.956 29.9289 37.3366 29.9425C37.7192 29.9439 38.1222 29.7889 38.5459 29.4775C38.9767 29.161 39.2409 28.8256 39.3385 28.4714C39.431 28.1102 39.4111 27.7445 39.2791 27.3744C39.147 27.0044 38.9586 26.6539 38.7139 26.3232L35.6134 22.1323L37.1281 21.0192L40.1738 25.1362C40.6997 25.847 41.0458 26.5432 41.2122 27.2249C41.3734 27.8995 41.3225 28.5453 41.0595 29.1622C40.7965 29.7792 40.3013 30.3549 39.574 30.8893Z" fill="white"/>
<path d="M47.7764 25.9062C47.4821 26.0427 47.1651 26.1513 46.8253 26.2318C46.4855 26.3123 46.1491 26.3381 45.8163 26.3093C45.4798 26.2725 45.159 26.1658 44.8538 25.9891C44.545 25.8045 44.2702 25.5269 44.0294 25.1564L45.7235 24.3703C45.8378 24.4909 45.9788 24.575 46.1462 24.6227C46.3216 24.6667 46.4999 24.6756 46.6812 24.6493C46.8705 24.6194 47.0486 24.5657 47.2156 24.4882C47.327 24.4365 47.4346 24.3769 47.5385 24.3094C47.6425 24.2419 47.7311 24.1622 47.8043 24.0703C47.8775 23.9785 47.9253 23.884 47.9477 23.7868C47.9663 23.6817 47.9479 23.5697 47.8923 23.4508C47.8331 23.324 47.747 23.2433 47.6342 23.2089C47.5213 23.1745 47.384 23.1706 47.2223 23.1974C47.057 23.2163 46.8736 23.2484 46.6721 23.2936C46.3127 23.3736 45.9257 23.4567 45.5112 23.5429C45.0966 23.6292 44.7153 23.6518 44.3671 23.6108C44.2187 23.5832 44.0786 23.5422 43.9466 23.4876C43.8147 23.4331 43.6931 23.3593 43.5819 23.2662C43.4707 23.1732 43.3696 23.0706 43.2785 22.9585C43.1837 22.8385 43.1012 22.7032 43.0308 22.5526C42.8716 22.2118 42.808 21.8892 42.8401 21.585C42.8764 21.2692 42.9827 20.9787 43.1589 20.7137C43.3351 20.4487 43.5595 20.2144 43.8321 20.0107C44.101 19.7991 44.3946 19.6195 44.7127 19.4719C45.1422 19.2726 45.5732 19.1595 46.0057 19.1324C46.4345 19.0974 46.8367 19.1712 47.2123 19.3537C47.5842 19.5284 47.9054 19.8327 48.1759 20.2666L46.5772 21.0084C46.4639 20.8488 46.2918 20.7599 46.0607 20.7417C45.8259 20.7156 45.5733 20.7653 45.3029 20.8908C45.2075 20.935 45.1078 20.9909 45.0038 21.0585C44.9078 21.1223 44.8254 21.1943 44.7564 21.2745C44.6874 21.3548 44.6417 21.4435 44.6194 21.5407C44.5933 21.6299 44.6062 21.73 44.6581 21.841C44.6988 21.9282 44.7597 21.9964 44.8407 22.0456C44.9297 22.0911 45.0331 22.1155 45.1507 22.1188C45.2763 22.1183 45.42 22.1047 45.5817 22.0779C45.8817 22.0159 46.1799 21.9499 46.4762 21.8799C46.7768 21.7983 47.0475 21.7354 47.2881 21.6912C47.5765 21.6249 47.8577 21.6054 48.1317 21.6326C48.4136 21.6561 48.674 21.7474 48.9129 21.9066C49.1561 22.0542 49.3591 22.3024 49.522 22.6512C49.7072 23.0475 49.7813 23.4134 49.7444 23.7488C49.7038 24.0763 49.5835 24.3781 49.3835 24.6541C49.1913 24.9265 48.951 25.1682 48.6625 25.3793C48.382 25.5866 48.0866 25.7623 47.7764 25.9062Z" fill="white"/>
<path d="M58.4162 16.8697L57.0253 16.1814L57.7402 15.0839L56.4244 15.0483L56.6356 13.5197L57.9108 13.8554L57.5295 12.6039L59.0719 12.3335L59.1421 13.6395L60.2128 12.8925L60.9477 14.2551L59.7232 14.7362L60.758 15.5269L59.6863 16.647L58.8658 15.6323L58.4162 16.8697Z" fill="white"/>
<path fill-rule="evenodd" clip-rule="evenodd" d="M75.713 60.5559C73.3286 62.9403 68.8927 62.8508 66.4079 60.366L65.3891 59.3472L63.4331 61.3032L64.4519 62.322C66.2592 64.1293 68.7153 65.0637 71.1544 65.1145L59.0866 77.1823L61.1241 79.2198L73.192 67.152C73.2428 69.5911 74.1771 72.0473 75.9844 73.8546L77.0032 74.8733L78.9592 72.9173L77.9404 71.8985C75.4557 69.4137 75.3661 64.9779 77.7505 62.5934L78.7286 61.6154L76.691 59.5779L75.713 60.5559Z" fill="white"/>
</svg>
