<svg width="635" height="88" viewBox="0 0 635 88" fill="none" xmlns="http://www.w3.org/2000/svg">
<g clip-path="url(#clip0_738_60)">
<path d="M34.4846 33.3596C-46.4793 -9.68572 -83.1325 33.059 -102.121 43.1286C-97.4831 80.9578 -64.2829 90.3891 -53.0621 90.3519L680.697 90.9181C723.2 81.8087 729.553 43.1188 726.335 28.5039C717.389 38.1712 686.46 42.8236 671.5 37.9327C635.594 15.837 594.395 31.0278 578.283 41.3851C564.761 48.8655 525.806 59.8558 478.162 43.9745C430.518 28.0932 390.412 40.2343 376.314 48.29C327.29 73.1477 269.001 59.7982 245.984 50.0163C210.079 30.6825 179.759 29.9913 136.332 39.4014C67.5646 52.0881 98.7943 57.7842 34.4846 33.3596Z" fill="white" fill-opacity="0.19"/>
<path d="M-5.91209 5.97582C-117.405 -53.3007 -129.549 9.55249 -155.697 23.4191C-149.31 75.5127 -103.591 88.5003 -88.1394 88.449L922.301 89.2288C980.831 76.6844 989.58 23.4055 985.147 3.27983C972.828 16.5924 930.237 22.9992 909.635 16.264C860.191 -14.1634 803.456 6.7554 781.27 21.0182C762.649 31.3192 709.004 46.4536 643.395 24.584C577.786 2.71426 522.557 19.4335 503.144 30.5268C435.633 64.7576 432.157 53.4476 347.109 31.7025C297.665 5.07856 241.617 47.7921 178.503 53.2685C104.478 39.4244 54.2712 -18.1432 -5.91209 5.97582Z" fill="white" fill-opacity="0.07"/>
</g>
<defs>
<clipPath id="clip0_738_60">
<rect width="635" height="88" fill="white"/>
</clipPath>
</defs>
</svg>
