<svg width="191" height="46" viewBox="0 0 191 46" fill="none" xmlns="http://www.w3.org/2000/svg">
<path fill-rule="evenodd" clip-rule="evenodd" d="M22.0316 4.88859C32.4596 4.88859 30.0858 3.51998 35.2877 12.5431C36.1052 13.9481 38.576 18.6231 39.1271 19.5497C42.1671 24.5457 41.7856 23.8977 37.4012 31.5159C35.4815 34.8406 34.3612 37.4809 32.6534 38.6012C30.2008 40.1939 26.9186 39.5338 22.0376 39.2674C17.1566 39.5338 13.8683 40.1999 11.4218 38.6012C9.71406 37.4809 8.59374 34.8406 6.67405 31.5159C2.2836 23.8977 1.90814 24.5457 4.94815 19.5497C5.49923 18.6171 7.96999 13.9481 8.78753 12.5431C13.9773 3.51998 11.6035 4.88859 22.0316 4.88859Z" fill="#025BDE"/>
<path fill-rule="evenodd" clip-rule="evenodd" d="M36.4088 14.5596C37.4322 16.4611 38.7463 18.9076 39.1278 19.5556C42.1678 24.5516 41.7863 23.9037 37.4019 31.5219C35.4822 34.8465 34.3619 37.4868 32.6542 38.6071C30.2016 40.1998 26.9193 39.5397 22.0384 39.2733C17.1574 39.5397 13.8691 40.2059 11.4226 38.6071C9.71482 37.4868 8.59449 34.8465 6.6748 31.5219C12.8033 21.548 29.7656 32.9631 36.4088 14.5596Z" fill="#042245" fill-opacity="0.1"/>
<path d="M5.79042 8.84292C6.45655 7.6681 7.0258 6.63861 7.51632 5.74841C7.9705 4.91271 8.37018 4.21024 8.71536 3.60466C8.41257 3.45326 8.0674 3.35637 7.72827 3.35637C7.09847 3.35637 6.55344 3.60466 6.13559 4.02251C5.73591 4.42219 5.48763 4.97327 5.48763 5.59701V6.81423C5.48763 7.25025 5.12427 7.59543 4.68826 7.59543C4.25224 7.59543 3.90706 7.2563 3.90706 6.81423V5.59701C3.90706 4.53119 4.32491 3.58649 5.00922 2.90218C5.71169 2.19971 6.66245 1.78186 7.72827 1.78186C8.39441 1.78186 9.01815 1.95143 9.56923 2.25422C10.084 1.56991 10.5563 1.11573 11.1437 0.788713C12.3428 0.122575 13.7296 0.201301 16.3881 0.316361C17.793 0.395086 19.5976 0.467756 22.0321 0.467756C23.8912 0.467756 25.2598 0.43142 26.4225 0.413252C29.8985 0.334527 31.6244 0.298194 33.0536 1.13389C34.4767 1.95143 35.3124 3.47143 36.9838 6.51144C37.5712 7.59543 38.2737 8.86714 39.1276 10.3508L39.1458 10.3872C39.9996 11.8708 40.7384 13.082 41.3682 14.1115C43.1729 17.0909 44.0631 18.5746 44.0631 20.2097C44.0631 20.246 44.0631 20.2884 44.0631 20.3247C44.0631 20.3429 44.0631 20.361 44.0631 20.3792V27.3858C44.0631 28.9421 43.7966 29.3781 42.4704 31.5279C41.9375 32.3818 41.2168 33.5627 40.2116 35.2886C39.394 36.6935 38.6734 38.0076 38.0678 39.1037C37.7287 39.7335 37.438 40.2786 37.0989 40.8539C34.5555 45.3533 33.853 45.3352 27.5065 45.2019C26.368 45.1838 24.9994 45.1656 23.1161 45.1656C22.3167 45.1656 22.9465 45.1474 22.565 45.1474L22.0321 45.1656L21.4991 45.1474C21.1176 45.1474 21.7474 45.1656 20.9481 45.1656C19.0647 45.1656 17.7022 45.1838 16.5576 45.2019C10.2111 45.3352 9.50868 45.3533 6.94707 40.8539C6.62612 40.2846 6.31727 39.7335 5.99631 39.1037C5.39073 38.0016 4.66404 36.6935 3.85256 35.2886C2.8473 33.5627 2.12666 32.3818 1.59375 31.5279C0.261471 29.3842 0.00106849 28.9421 0.00106849 27.3858V20.3792C0.00106849 20.3429 0.00106849 20.3247 0.00106849 20.3005C-0.0352663 18.6291 0.854936 17.1454 2.6959 14.1054C3.01686 13.5907 3.36204 13.0033 3.94945 12.0162C4.17957 11.6346 4.65193 11.5196 5.03344 11.7497C5.41496 11.9617 5.53001 12.4522 5.31806 12.8337C4.97894 13.4029 4.48236 14.2023 4.04634 14.9229C2.32044 17.7692 1.50291 19.1196 1.57558 20.3732C1.6543 21.5298 2.46578 22.8803 4.04634 25.4843C4.69431 26.5682 5.46946 27.84 6.30516 29.2812C7.17719 30.8194 7.87966 32.073 8.47313 33.1388C9.99314 35.9305 10.7743 37.3173 11.8159 37.9229C12.8394 38.5284 14.4381 38.4921 17.6113 38.4194C18.9012 38.4013 20.4394 38.3649 22.0381 38.3649C23.6308 38.3649 25.175 38.4013 26.4649 38.4194C29.6381 38.4982 31.2308 38.5345 32.2603 37.9229C33.308 37.3173 34.0649 35.9305 35.6031 33.1388C36.1724 32.1154 36.8567 30.88 37.7711 29.2812C38.6431 27.7794 39.388 26.544 40.0299 25.4843C41.6831 22.7652 42.5007 21.4208 42.5007 20.2036C42.5007 19.0046 41.6831 17.642 40.0299 14.9229C39.4001 13.8753 38.6613 12.6641 37.7892 11.1623L37.7711 11.126C36.8809 9.60595 36.1966 8.33424 35.6031 7.26842C34.0649 4.47669 33.3019 3.08991 32.2603 2.5025C31.2369 1.89692 29.6381 1.93326 26.4649 1.98776C25.175 2.02409 23.6368 2.04226 22.0381 2.04226C19.6824 2.04226 17.8051 1.96354 16.3214 1.89087C13.9657 1.77581 12.7122 1.7213 11.9128 2.15732C11.5131 2.38744 11.174 2.74473 10.7743 3.29581C11.2709 3.94378 11.5555 4.73709 11.5555 5.59701V15.686C11.5555 16.122 11.1922 16.4853 10.7562 16.4853C10.4897 16.4853 10.2596 16.3521 10.1264 16.1644L7.92205 20.2278V22.3534C7.92205 22.7894 7.58293 23.1528 7.14086 23.1528C6.69878 23.1528 6.34149 22.7894 6.34149 22.3534V12.2584C6.34149 11.6528 6.09321 11.1017 5.67536 10.6839C5.27567 10.2842 4.7246 10.0359 4.10085 10.0359C3.49527 10.0359 2.92602 10.2842 2.52634 10.6839C2.12666 11.1017 1.87837 11.6528 1.87837 12.2584V13.4756C1.87837 13.9116 1.51502 14.275 1.079 14.275C0.642986 14.275 0.279641 13.9116 0.279641 13.4756V12.2584C0.279641 11.2107 0.715659 10.266 1.39996 9.56356C2.10244 8.87926 3.0532 8.46141 4.09479 8.46141C4.70643 8.46141 5.28173 8.59464 5.79042 8.84292ZM9.95075 10.6657L7.916 14.4264V16.8971L9.95075 13.1365V10.6657ZM7.80699 11.3319L9.95075 7.35925V5.59096C9.95075 5.3245 9.91441 5.07622 9.81752 4.83398C9.55107 5.33056 9.24827 5.88164 8.90309 6.50538C8.38835 7.43798 7.78277 8.51591 7.04396 9.83002C7.40731 10.266 7.67377 10.7808 7.80699 11.3319ZM42.4886 24.4366C42.1676 24.9877 41.7861 25.5933 41.3682 26.2957C40.7384 27.3434 39.9814 28.5727 39.1276 30.0746C38.3101 31.4795 37.5894 32.7936 36.9838 33.8897C35.3124 36.9479 34.4767 38.4679 33.0536 39.2854C31.6305 40.103 29.8985 40.0666 26.4225 39.9879C25.2659 39.9697 23.8972 39.9516 22.0321 39.9516C20.1669 39.9516 18.8043 39.9697 17.6416 39.9879C14.1656 40.0666 12.4397 40.103 11.0105 39.2854C9.5874 38.4679 8.7517 36.9479 7.0803 33.8897C6.49289 32.8239 5.79041 31.534 4.93654 30.0746C4.04634 28.5182 3.30148 27.3192 2.6959 26.2957C2.27805 25.5933 1.89653 24.9877 1.57558 24.4366V27.3797C1.57558 28.5 1.8057 28.8816 2.92602 30.6862C3.49527 31.5764 4.23407 32.7936 5.22722 34.4832C6.14165 36.0758 6.80173 37.3112 7.37098 38.3407C7.75249 39.025 8.07345 39.6124 8.33991 40.0666C10.4292 43.7546 11.0347 43.7304 16.5273 43.6214C17.8172 43.6032 19.3554 43.5669 20.9541 43.5669C21.372 43.5669 20.7664 43.5669 21.5052 43.5669L22.0381 43.585L22.571 43.5669C23.3098 43.5669 22.7043 43.5669 23.1221 43.5669C24.7148 43.5669 26.259 43.6032 27.5489 43.6214C33.0355 43.7364 33.6471 43.7546 35.7363 40.0666C36.0028 39.6124 36.3237 39.019 36.6871 38.3407C37.2563 37.3173 37.9406 36.0819 38.8551 34.4832C39.8422 32.7936 40.581 31.5764 41.132 30.6862C42.2705 28.8816 42.5007 28.5 42.5007 27.3797V24.4366H42.4886Z" fill="white"/>
<path d="M66.376 33.5879L60.1357 11.7617H65.1748L68.793 26.9229H68.9834L72.9531 11.7617H77.2744L81.2441 26.9668H81.4346L85.0527 11.7617H90.0918L83.8369 33.5879H79.3398L75.209 19.3203H75.0332L70.8877 33.5879H66.376ZM94.4131 33.8955C93.3779 33.8955 92.4453 33.7148 91.6152 33.3535C90.7949 32.9824 90.1504 32.4355 89.6816 31.7129C89.2129 30.9902 88.9785 30.0918 88.9785 29.0176C88.9785 28.0996 89.1445 27.3379 89.4766 26.7324C89.8086 26.1172 90.2627 25.6191 90.8389 25.2383C91.415 24.8574 92.0693 24.5693 92.8018 24.374C93.5342 24.1787 94.3105 24.042 95.1309 23.9639C96.0781 23.876 96.8398 23.7881 97.416 23.7002C97.9922 23.6123 98.4121 23.4805 98.6758 23.3047C98.9492 23.1191 99.0859 22.8555 99.0859 22.5137V22.4404C99.0859 21.7666 98.8711 21.2441 98.4414 20.873C98.0215 20.502 97.4258 20.3164 96.6543 20.3164C95.8438 20.3164 95.1943 20.4971 94.7061 20.8584C94.2275 21.21 93.9102 21.6592 93.7539 22.2061L89.5498 21.8691C89.7646 20.873 90.1846 20.0137 90.8096 19.291C91.4346 18.5586 92.2402 17.9971 93.2266 17.6064C94.2227 17.2061 95.375 17.0059 96.6836 17.0059C97.5918 17.0059 98.4609 17.1133 99.291 17.3281C100.121 17.543 100.858 17.875 101.503 18.3242C102.157 18.7637 102.675 19.335 103.056 20.0381C103.437 20.7412 103.627 21.5762 103.627 22.543V33.5879H99.3057V31.3027H99.1885C98.9248 31.8203 98.5732 32.2744 98.1338 32.665C97.6943 33.0459 97.167 33.3486 96.5518 33.5732C95.9365 33.7881 95.2236 33.8955 94.4131 33.8955ZM95.7168 30.7607C96.3809 30.7607 96.9668 30.6289 97.4746 30.3652C97.9922 30.0918 98.3926 29.7305 98.6758 29.2812C98.9688 28.8223 99.1152 28.3096 99.1152 27.7432V26C98.9785 26.0879 98.7832 26.1709 98.5293 26.249C98.2852 26.3271 98.0117 26.3955 97.709 26.4541C97.4062 26.5127 97.1035 26.5664 96.8008 26.6152C96.498 26.6543 96.2246 26.6934 95.9805 26.7324C95.4434 26.8105 94.9746 26.9375 94.5742 27.1133C94.1738 27.2793 93.8613 27.5088 93.6367 27.8018C93.4219 28.085 93.3145 28.4414 93.3145 28.8711C93.3145 29.4863 93.5391 29.9551 93.9883 30.2773C94.4375 30.5996 95.0137 30.7607 95.7168 30.7607ZM120.927 17.2109L115.214 33.5879H110.087L104.389 17.2109H109.179L112.621 28.9443H112.797L116.181 17.2109H120.927ZM129.232 33.9102C127.553 33.9102 126.103 33.5684 124.882 32.8848C123.661 32.2012 122.724 31.2295 122.069 29.9697C121.425 28.7002 121.103 27.2012 121.103 25.4727C121.103 23.793 121.425 22.3184 122.069 21.0488C122.724 19.7793 123.642 18.7881 124.823 18.0752C126.015 17.3623 127.411 17.0059 129.013 17.0059C130.097 17.0059 131.107 17.1816 132.045 17.5332C132.982 17.875 133.803 18.3926 134.506 19.0859C135.209 19.7695 135.756 20.6338 136.146 21.6787C136.537 22.7139 136.732 23.9297 136.732 25.3262V26.5566H122.904V23.7588H134.535L132.426 24.4912C132.426 23.6611 132.299 22.9385 132.045 22.3232C131.791 21.708 131.41 21.2344 130.902 20.9023C130.404 20.5605 129.784 20.3896 129.042 20.3896C128.3 20.3896 127.67 20.5605 127.152 20.9023C126.645 21.2441 126.254 21.708 125.98 22.2939C125.707 22.8799 125.57 23.5537 125.57 24.3154V26.293C125.57 27.1816 125.727 27.9434 126.039 28.5781C126.352 29.2031 126.786 29.6865 127.343 30.0283C127.909 30.3604 128.559 30.5264 129.291 30.5264C129.799 30.5264 130.258 30.4531 130.668 30.3066C131.078 30.1602 131.43 29.9453 131.723 29.6621C132.025 29.3789 132.25 29.0371 132.396 28.6367L136.586 28.915C136.381 29.9209 135.951 30.7998 135.297 31.5518C134.652 32.2939 133.817 32.875 132.792 33.2949C131.767 33.7051 130.58 33.9102 129.232 33.9102ZM149.169 26.6299V17.2109H153.695V33.5879H149.345V30.6143H149.169C148.798 31.5615 148.188 32.333 147.338 32.9287C146.488 33.5146 145.448 33.8027 144.218 33.793C143.124 33.793 142.157 33.5488 141.317 33.0605C140.487 32.5625 139.838 31.8545 139.369 30.9365C138.91 30.0186 138.681 28.9199 138.681 27.6406V17.2109H143.207V26.8496C143.207 27.8066 143.466 28.5684 143.983 29.1348C144.501 29.6914 145.189 29.9648 146.049 29.9551C146.596 29.9551 147.104 29.833 147.572 29.5889C148.041 29.335 148.422 28.959 148.715 28.4609C149.018 27.9629 149.169 27.3525 149.169 26.6299ZM156.376 39.7109V17.2109H160.829V19.9795H161.034C161.239 19.5303 161.532 19.0762 161.913 18.6172C162.294 18.1582 162.792 17.7773 163.407 17.4746C164.022 17.1621 164.784 17.0059 165.692 17.0059C166.894 17.0059 167.992 17.3184 168.988 17.9434C169.994 18.5586 170.8 19.4912 171.405 20.7412C172.011 21.9912 172.313 23.5537 172.313 25.4287C172.313 27.2451 172.021 28.7832 171.435 30.043C170.849 31.293 170.053 32.2402 169.047 32.8848C168.051 33.5293 166.928 33.8516 165.678 33.8516C164.799 33.8516 164.052 33.7051 163.437 33.4121C162.821 33.1191 162.318 32.7529 161.928 32.3135C161.547 31.8643 161.249 31.415 161.034 30.9658H160.902V39.7109H156.376ZM164.242 30.248C164.984 30.248 165.609 30.043 166.117 29.6328C166.625 29.2227 167.011 28.6562 167.274 27.9336C167.538 27.2012 167.67 26.3613 167.67 25.4141C167.67 24.4668 167.538 23.6367 167.274 22.9238C167.021 22.2012 166.64 21.6348 166.132 21.2246C165.624 20.8145 164.994 20.6094 164.242 20.6094C163.51 20.6094 162.885 20.8096 162.367 21.21C161.859 21.6006 161.469 22.1572 161.195 22.8799C160.932 23.5928 160.8 24.4375 160.8 25.4141C160.8 26.3809 160.937 27.2256 161.21 27.9482C161.483 28.6709 161.874 29.2373 162.382 29.6475C162.899 30.0479 163.52 30.248 164.242 30.248Z" fill="white"/>
<path d="M177.543 33.8662C176.82 33.8662 176.21 33.6221 175.712 33.1338C175.214 32.6455 174.965 32.04 174.965 31.3174C174.965 30.5947 175.214 29.9893 175.712 29.501C176.21 29.0127 176.82 28.7686 177.543 28.7686C178.266 28.7686 178.876 29.0127 179.374 29.501C179.872 29.9893 180.121 30.5947 180.121 31.3174C180.121 32.04 179.872 32.6455 179.374 33.1338C178.876 33.6221 178.266 33.8662 177.543 33.8662Z" fill="#025BDE"/>
</svg>
