<svg width="34" height="34" viewBox="0 0 34 34" fill="none" xmlns="http://www.w3.org/2000/svg">
<g clip-path="url(#clip0_248_708)">
<path d="M26.8704 21.0625C26.1743 20.3377 25.3348 19.9502 24.4449 19.9502C23.5623 19.9502 22.7155 20.3305 21.9908 21.0553L19.7232 23.3157C19.5366 23.2152 19.35 23.122 19.1706 23.0287C18.9123 22.8995 18.6683 22.7775 18.4602 22.6483C16.3361 21.2993 14.4058 19.5412 12.5544 17.2664C11.6574 16.1326 11.0546 15.1782 10.6169 14.2094C11.2053 13.6712 11.7507 13.1115 12.2817 12.5733C12.4827 12.3724 12.6836 12.1643 12.8845 11.9634C14.3915 10.4564 14.3915 8.50458 12.8845 6.99763L10.9255 5.0386C10.703 4.81615 10.4734 4.58652 10.2581 4.35689C9.82756 3.91198 9.37548 3.45272 8.90904 3.02216C8.21298 2.33327 7.38057 1.9673 6.50511 1.9673C5.62964 1.9673 4.78288 2.33327 4.06529 3.02216C4.05811 3.02934 4.05811 3.02934 4.05094 3.03651L1.61112 5.49786C0.6926 6.41638 0.168757 7.53582 0.053942 8.83467C-0.11828 10.93 0.49885 12.8819 0.972461 14.1592C2.13496 17.2951 3.87154 20.2013 6.46205 23.3157C9.60511 27.0687 13.3868 30.0324 17.7067 32.1206C19.3572 32.9027 21.5602 33.8284 24.0216 33.9863C24.1723 33.9935 24.3301 34.0007 24.4736 34.0007C26.1313 34.0007 27.5234 33.4051 28.6142 32.221C28.6213 32.2067 28.6357 32.1995 28.6429 32.1852C29.016 31.7331 29.4466 31.324 29.8987 30.8863C30.2072 30.5921 30.523 30.2835 30.8315 29.9606C31.5419 29.2215 31.9151 28.3604 31.9151 27.4777C31.9151 26.5879 31.5348 25.734 30.81 25.0164L26.8704 21.0625ZM29.4394 28.6187C29.4322 28.6187 29.4322 28.6259 29.4394 28.6187C29.1595 28.9201 28.8725 29.1928 28.5639 29.4942C28.0975 29.9391 27.6239 30.4055 27.179 30.9294C26.4542 31.7044 25.6003 32.0703 24.4808 32.0703C24.3732 32.0703 24.2584 32.0703 24.1507 32.0632C22.0195 31.9268 20.0389 31.0944 18.5535 30.384C14.4919 28.4178 10.9255 25.6264 7.96182 22.0886C5.51483 19.1393 3.87871 16.4125 2.79515 13.4847C2.12779 11.6979 1.88381 10.3057 1.99144 8.99254C2.0632 8.15295 2.38612 7.45689 2.98172 6.86129L5.42872 4.41429C5.78034 4.0842 6.15349 3.9048 6.51946 3.9048C6.97154 3.9048 7.33751 4.17749 7.56714 4.40712C7.57432 4.41429 7.5815 4.42147 7.58867 4.42865C8.0264 4.83767 8.44261 5.26105 8.88034 5.71314C9.10279 5.94277 9.33242 6.1724 9.56205 6.4092L11.5211 8.36823C12.2817 9.12888 12.2817 9.83212 11.5211 10.5928C11.313 10.8009 11.1121 11.009 10.904 11.2099C10.3012 11.827 9.7271 12.4011 9.10279 12.9608C9.08844 12.9752 9.07409 12.9824 9.06691 12.9967C8.44978 13.6138 8.5646 14.2166 8.69377 14.6256C8.70094 14.6472 8.70812 14.6687 8.71529 14.6902C9.22478 15.9245 9.94238 17.087 11.0331 18.4719L11.0403 18.4791C13.0209 20.9189 15.1091 22.8206 17.4125 24.2773C17.7067 24.4639 18.0081 24.6145 18.2952 24.7581C18.5535 24.8872 18.7975 25.0092 19.0056 25.1384C19.0343 25.1527 19.063 25.1743 19.0917 25.1886C19.3357 25.3106 19.5653 25.368 19.8021 25.368C20.3977 25.368 20.7709 24.9949 20.8929 24.8729L23.347 22.4187C23.591 22.1747 23.9785 21.8805 24.4306 21.8805C24.8755 21.8805 25.2415 22.1604 25.4639 22.4044C25.4711 22.4115 25.4711 22.4115 25.4783 22.4187L29.4322 26.3726C30.1713 27.1046 30.1713 27.8581 29.4394 28.6187Z" fill="#025BDE"/>
<path d="M18.3746 8.08771C20.2546 8.40345 21.9625 9.29326 23.3259 10.6567C24.6894 12.0201 25.572 13.728 25.8949 15.6081C25.9739 16.0817 26.3829 16.4118 26.8493 16.4118C26.9067 16.4118 26.957 16.4046 27.0144 16.3974C27.5454 16.3113 27.897 15.809 27.8109 15.278C27.4234 13.0032 26.347 10.9294 24.7037 9.28609C23.0604 7.6428 20.9866 6.56641 18.7118 6.17891C18.1808 6.0928 17.6857 6.44442 17.5924 6.96826C17.4991 7.4921 17.8435 8.0016 18.3746 8.08771Z" fill="#025BDE"/>
<path d="M33.9601 14.9981C33.3215 11.2523 31.5562 7.84373 28.8437 5.13122C26.1312 2.41872 22.7226 0.653442 18.9768 0.0147844C18.453 -0.0785027 17.9578 0.280294 17.8645 0.804137C17.7784 1.33516 18.13 1.8303 18.6611 1.92358C22.005 2.49048 25.0548 4.07636 27.4803 6.49465C29.9057 8.92012 31.4844 11.9699 32.0513 15.3139C32.1303 15.7875 32.5393 16.1176 33.0057 16.1176C33.0632 16.1176 33.1134 16.1104 33.1708 16.1032C33.6946 16.0243 34.0534 15.522 33.9601 14.9981Z" fill="#025BDE"/>
</g>
<defs>
<clipPath id="clip0_248_708">
<rect width="34" height="34" fill="white"/>
</clipPath>
</defs>
</svg>
