<svg width="24" height="24" viewBox="0 0 24 24" fill="none" xmlns="http://www.w3.org/2000/svg">
<path d="M19.43 8.49899C19.43 12.6484 11.715 22.6637 11.715 22.6637C11.715 22.6637 4 12.6484 4 8.49899C4 6.51013 4.81283 4.60274 6.25967 3.1964C7.70651 1.79007 9.66886 1 11.715 1C13.7611 1 15.7235 1.79007 17.1703 3.1964C18.6172 4.60274 19.43 6.51013 19.43 8.49899V8.49899Z" stroke="white" stroke-width="1.5" stroke-linecap="round" stroke-linejoin="round"/>
<path d="M11.7162 10.9993C13.1365 10.9993 14.2879 9.88019 14.2879 8.49966C14.2879 7.11914 13.1365 6 11.7162 6C10.2959 6 9.14453 7.11914 9.14453 8.49966C9.14453 9.88019 10.2959 10.9993 11.7162 10.9993Z" stroke="white" stroke-width="1.5" stroke-linecap="round" stroke-linejoin="round"/>
</svg>
