<svg width="60" height="61" viewBox="0 0 60 61" fill="none" xmlns="http://www.w3.org/2000/svg">
<path d="M49.4716 9.22438H10.5277C10.0356 9.22438 9.63672 8.8255 9.63672 8.33338V4.81678C9.63672 4.32454 10.0356 3.92578 10.5277 3.92578H49.4716C49.9637 3.92578 50.3626 4.32454 50.3626 4.81678V8.33338C50.3626 8.8255 49.9637 9.22438 49.4716 9.22438ZM11.4187 7.44226H48.5806V5.70778H11.4187V7.44226Z" fill="#025BDE"/>
<path d="M49.4716 16.3454H10.5277C10.0356 16.3454 9.63672 15.9465 9.63672 15.4544V8.3335C9.63672 7.84126 10.0356 7.44238 10.5277 7.44238H49.4716C49.9637 7.44238 50.3626 7.84126 50.3626 8.3335V15.4544C50.3626 15.9465 49.9637 16.3454 49.4716 16.3454ZM11.4187 14.5634H48.5806V9.2245H11.4187V14.5634Z" fill="#025BDE"/>
<path d="M45.7357 16.3454H14.264C13.7718 16.3454 13.373 15.9465 13.373 15.4544V8.3335C13.373 7.84126 13.7718 7.44238 14.264 7.44238H45.7357C46.2278 7.44238 46.6267 7.84126 46.6267 8.3335V15.4544C46.6266 15.9465 46.2277 16.3454 45.7357 16.3454ZM15.155 14.5634H44.8447V9.2245H15.155V14.5634Z" fill="#025BDE"/>
<path d="M40.3732 16.3452H19.6264C19.1342 16.3452 18.7354 15.9464 18.7354 15.4542V12.1576C18.7354 11.6655 19.1342 11.2666 19.6264 11.2666H40.3732C40.8653 11.2666 41.2642 11.6655 41.2642 12.1576V15.4542C41.2642 15.9464 40.8653 16.3452 40.3732 16.3452ZM20.5174 14.5632H39.4822V13.0486H20.5174V14.5632Z" fill="#025BDE"/>
<path d="M35.8018 19.4222H24.1976C23.7055 19.4222 23.3066 19.0233 23.3066 18.5312V15.4545C23.3066 14.9624 23.7055 14.5635 24.1976 14.5635H35.8018C36.2939 14.5635 36.6928 14.9624 36.6928 15.4545V18.5312C36.6928 19.0233 36.2939 19.4222 35.8018 19.4222ZM25.0886 17.6402H34.9108V16.3455H25.0886V17.6402Z" fill="#025BDE"/>
<path d="M31.1036 38.8055H28.896C28.4181 38.8055 28.0251 38.4282 28.0057 37.9507L27.2195 18.5669C27.2097 18.3246 27.2991 18.0887 27.467 17.9132C27.635 17.7385 27.8672 17.6396 28.1099 17.6396H31.89C32.1325 17.6396 32.3647 17.7384 32.5328 17.9132C32.7006 18.0887 32.79 18.3246 32.7803 18.5669L31.9941 37.9507C31.9743 38.4282 31.5815 38.8055 31.1036 38.8055ZM29.7515 37.0235H30.2481L30.962 19.4216H29.0377L29.7515 37.0235Z" fill="#025BDE"/>
<path d="M31.8507 45.3554H28.1488C27.6567 45.3554 27.2578 44.9565 27.2578 44.4644V37.9149C27.2578 37.4228 27.6567 37.0239 28.1488 37.0239H31.8507C32.3428 37.0239 32.7417 37.4228 32.7417 37.9149V44.4644C32.7417 44.9565 32.3428 45.3554 31.8507 45.3554ZM29.0398 43.5734H30.9597V38.8058H29.0398V43.5734Z" fill="#025BDE"/>
<path d="M31.6703 57.9257H28.3298C27.184 57.9257 26.252 56.9937 26.252 55.8485L27.0406 44.4029C27.073 43.9359 27.4614 43.5732 27.9296 43.5732H32.0709C32.539 43.5732 32.9274 43.9359 32.9597 44.4029L33.746 55.7873C33.7481 56.9937 32.816 57.9257 31.6703 57.9257ZM28.761 45.3552L28.0319 55.9098C28.034 56.0116 28.1666 56.1438 28.3298 56.1438H31.6703C31.8335 56.1438 31.9661 56.0116 31.9661 55.8486L31.2394 45.3552H28.761Z" fill="#025BDE"/>
<path d="M47.2865 24.6134C46.7943 24.6134 46.3955 24.2145 46.3955 23.7224V19.3267C46.3955 18.8344 46.7943 18.4355 47.2865 18.4355C47.7786 18.4355 48.1775 18.8344 48.1775 19.3267V23.7224C48.1775 24.2145 47.7786 24.6134 47.2865 24.6134Z" fill="#025BDE"/>
<path d="M19.2728 27.0747C18.7807 27.0747 18.3818 26.6759 18.3818 26.1837V20.0888C18.3818 19.5966 18.7807 19.1978 19.2728 19.1978C19.765 19.1978 20.1638 19.5966 20.1638 20.0888V26.1837C20.1638 26.6759 19.765 27.0747 19.2728 27.0747Z" fill="#025BDE"/>
<path d="M38.3783 28.6567C37.8861 28.6567 37.4873 28.2578 37.4873 27.7657V23.7221C37.4873 23.2299 37.8861 22.8311 38.3783 22.8311C38.8704 22.8311 39.2693 23.2299 39.2693 23.7221V27.7657C39.2693 28.2578 38.8704 28.6567 38.3783 28.6567Z" fill="#025BDE"/>
<path d="M14.264 30.708C13.7718 30.708 13.373 30.3092 13.373 29.817V23.1361C13.373 22.6439 13.7718 22.2451 14.264 22.2451C14.7562 22.2451 15.155 22.6439 15.155 23.1361V29.817C15.155 30.3092 14.7562 30.708 14.264 30.708Z" fill="#025BDE"/>
</svg>
