<svg width="40" height="41" viewBox="0 0 40 41" fill="none" xmlns="http://www.w3.org/2000/svg">
<path d="M16.2696 25.1242C10.0234 25.1242 4.94141 20.0423 4.94141 13.7959C4.94141 7.54961 10.0233 2.46777 16.2696 2.46777C22.516 2.46777 27.5979 7.54969 27.5979 13.796C27.5979 20.0423 22.5159 25.1242 16.2696 25.1242ZM16.2696 3.65761C10.6792 3.65761 6.13125 8.20553 6.13125 13.796C6.13125 19.3865 10.6792 23.9344 16.2696 23.9344C21.8601 23.9344 26.408 19.3865 26.408 13.796C26.408 8.20553 21.86 3.65761 16.2696 3.65761Z" fill="white"/>
<path d="M16.2697 18.3898C13.7367 18.3898 11.6758 16.329 11.6758 13.7959C11.6758 11.2629 13.7367 9.2019 16.2697 9.2019C18.8027 9.2019 20.8636 11.2628 20.8636 13.7959C20.8636 14.1245 20.5973 14.3908 20.2687 14.3908C19.94 14.3908 19.6737 14.1245 19.6737 13.7959C19.6737 11.9191 18.1464 10.3918 16.2696 10.3918C14.3928 10.3918 12.8655 11.9191 12.8655 13.7959C12.8655 15.6727 14.3929 17.2 16.2696 17.2C16.5982 17.2 16.8645 17.4663 16.8645 17.7949C16.8645 18.1234 16.5983 18.3898 16.2697 18.3898Z" fill="white"/>
<path d="M16.2694 15.9992C15.0545 15.9992 14.0664 15.0111 14.0664 13.796C14.0664 13.4675 14.3327 13.2011 14.6613 13.2011C14.9898 13.2011 15.2562 13.4674 15.2562 13.796C15.2562 14.3547 15.7108 14.8093 16.2695 14.8093C16.8282 14.8093 17.2828 14.3548 17.2828 13.796C17.2828 13.2369 16.8282 12.7824 16.2695 12.7824C15.941 12.7824 15.6746 12.516 15.6746 12.1875C15.6746 11.8588 15.9409 11.5925 16.2695 11.5925C17.4844 11.5925 18.4726 12.5812 18.4726 13.7961C18.4725 15.0111 17.4843 15.9992 16.2694 15.9992Z" fill="white"/>
<path d="M16.2698 7.93611C15.9412 7.93611 15.6748 7.66979 15.6748 7.34115V5.05907C15.6748 4.73051 15.9411 4.46411 16.2698 4.46411C16.5984 4.46411 16.8646 4.73043 16.8646 5.05907V7.34123C16.8646 7.66971 16.5983 7.93611 16.2698 7.93611Z" fill="white"/>
<path d="M19.497 8.80097C19.3961 8.80097 19.2938 8.77537 19.2 8.72105C18.9155 8.55697 18.8179 8.19297 18.9819 7.90857L20.123 5.93233C20.2879 5.64737 20.651 5.54977 20.9358 5.71481C21.2203 5.87881 21.3179 6.24281 21.1534 6.52721L20.0123 8.50345C19.9022 8.69449 19.7024 8.80097 19.497 8.80097Z" fill="white"/>
<path d="M21.86 11.1635C21.6546 11.1635 21.4547 11.0571 21.3446 10.866C21.1801 10.5815 21.2777 10.2176 21.5621 10.0535L23.5384 8.91251C23.8238 8.74755 24.1863 8.84515 24.3508 9.13011C24.5153 9.41451 24.4177 9.77843 24.1333 9.94299L22.157 11.084C22.0631 11.1379 21.9609 11.1635 21.86 11.1635Z" fill="white"/>
<path d="M25.0064 14.391H22.7248C22.3962 14.391 22.1299 14.1247 22.1299 13.7961C22.1299 13.4676 22.3962 13.2012 22.7248 13.2012H25.0064C25.335 13.2012 25.6013 13.4675 25.6013 13.7961C25.6013 14.1248 25.335 14.391 25.0064 14.391Z" fill="white"/>
<path d="M23.8355 18.7591C23.7347 18.7591 23.6324 18.7336 23.5385 18.6796L21.5623 17.5391C21.2779 17.3745 21.1802 17.0106 21.3443 16.7262C21.5083 16.4413 21.8718 16.3441 22.1571 16.5082L24.1334 17.6488C24.4178 17.8132 24.5155 18.1772 24.3514 18.4616C24.2413 18.6527 24.0409 18.7591 23.8355 18.7591Z" fill="white"/>
<path d="M20.6389 21.9572C20.4335 21.9572 20.2335 21.8507 20.123 21.6596L18.9819 19.6834C18.8179 19.3989 18.9155 19.0351 19.2 18.871C19.4854 18.7056 19.8483 18.8036 20.0124 19.0885L21.1535 21.0648C21.3179 21.3492 21.2204 21.7132 20.9359 21.8772C20.8419 21.9316 20.7397 21.9572 20.6389 21.9572Z" fill="white"/>
<path d="M16.2698 23.1274C15.9412 23.1274 15.6748 22.8612 15.6748 22.5325V20.2504C15.6748 19.9218 15.9411 19.6555 16.2698 19.6555C16.5984 19.6555 16.8646 19.9218 16.8646 20.2504V22.5325C16.8646 22.8612 16.5983 23.1274 16.2698 23.1274Z" fill="white"/>
<path d="M11.9002 21.9571C11.7993 21.9571 11.6971 21.9315 11.6031 21.8772C11.3187 21.7131 11.2211 21.3492 11.3856 21.0647L12.5267 19.0885C12.6911 18.8036 13.0538 18.7055 13.3391 18.871C13.6235 19.0351 13.7211 19.399 13.5571 19.6834L12.4161 21.6596C12.3055 21.8507 12.1056 21.9571 11.9002 21.9571Z" fill="white"/>
<path d="M8.70396 18.7591C8.49852 18.7591 8.2982 18.6527 8.18804 18.4616C8.02396 18.1772 8.12156 17.8132 8.40604 17.6488L10.3823 16.5082C10.6672 16.3441 11.0311 16.4412 11.1952 16.7262C11.3592 17.0106 11.2616 17.3745 10.9772 17.5391L9.00092 18.6796C8.90708 18.7335 8.80484 18.7591 8.70396 18.7591Z" fill="white"/>
<path d="M9.81462 14.391H7.53246C7.2039 14.391 6.9375 14.1247 6.9375 13.7961C6.9375 13.4676 7.20382 13.2012 7.53246 13.2012H9.81462C10.1432 13.2012 10.4096 13.4675 10.4096 13.7961C10.4096 14.1248 10.1432 14.391 9.81462 14.391Z" fill="white"/>
<path d="M10.6792 11.1635C10.5783 11.1635 10.4761 11.1379 10.3821 11.084L8.4059 9.94299C8.1215 9.77843 8.02382 9.41451 8.1883 9.13011C8.35286 8.84515 8.7159 8.74755 9.00078 8.91251L10.977 10.0535C11.2614 10.2176 11.3591 10.5815 11.1945 10.866C11.0845 11.0571 10.8846 11.1635 10.6792 11.1635Z" fill="white"/>
<path d="M13.0421 8.80097C12.8367 8.80097 12.6368 8.69449 12.5267 8.50345L11.3856 6.52721C11.2211 6.24273 11.3187 5.87881 11.6032 5.71481C11.8886 5.54977 12.2511 5.64737 12.4161 5.93233L13.5571 7.90857C13.7212 8.19297 13.6236 8.55697 13.3391 8.72105C13.2452 8.77537 13.143 8.80097 13.0421 8.80097Z" fill="white"/>
<path d="M22.9117 35.2895H9.62719C9.29863 35.2895 9.03223 35.0232 9.03223 34.6945V22.2262C9.03223 21.8977 9.29855 21.6313 9.62719 21.6313C9.76063 21.6313 9.90335 21.6764 10.0083 21.7587C11.8153 23.1819 13.9808 23.9344 16.2694 23.9344C18.5581 23.9344 20.7235 23.1819 22.5305 21.7587C22.6356 21.6764 22.7653 21.6313 22.8986 21.6313C23.2272 21.6313 23.5065 21.8977 23.5065 22.2262V34.6945C23.5066 35.0232 23.2403 35.2895 22.9117 35.2895ZM10.2221 34.0997H22.3168V23.3677C20.5069 24.5204 18.4381 25.1241 16.2695 25.1241C14.1009 25.1241 12.0321 24.5204 10.2222 23.3677L10.2221 34.0997Z" fill="white"/>
<path d="M24.4211 38.4677H8.11734C7.78878 38.4677 7.52246 38.2014 7.52246 37.8728V34.6946C7.52246 34.366 7.78878 34.0996 8.11734 34.0996H24.4211C24.7497 34.0996 25.016 34.3659 25.016 34.6946V37.8728C25.016 38.2014 24.7497 38.4677 24.4211 38.4677ZM8.7123 37.2778H23.8262V35.2895H8.7123V37.2778Z" fill="white"/>
<path d="M27.6122 32.6069H22.9114C22.5828 32.6069 22.3164 32.3405 22.3164 32.0119V27.4049C22.3164 27.0763 22.5827 26.8101 22.9114 26.8101H27.6122C27.9409 26.8101 28.2071 27.0763 28.2071 27.4049V32.0119C28.2071 32.3405 27.9409 32.6069 27.6122 32.6069ZM23.5063 31.417H27.0173V27.9999H23.5063V31.417Z" fill="white"/>
<path d="M22.912 31.6075H9.69164C9.36308 31.6075 9.09668 31.3412 9.09668 31.0126V28.4047C9.09668 28.0761 9.363 27.8098 9.69164 27.8098H22.912C23.2406 27.8098 23.5069 28.0761 23.5069 28.4047V31.0126C23.5069 31.3412 23.2406 31.6075 22.912 31.6075ZM10.2866 30.4177H22.3171V28.9996H10.2866V30.4177Z" fill="white"/>
<path d="M31.3354 38.4677H6.64273C6.31417 38.4677 6.04785 38.2014 6.04785 37.8728C6.04785 37.5442 6.31417 37.2778 6.64273 37.2778H31.3354C31.664 37.2778 31.9303 37.5442 31.9303 37.8728C31.9303 38.2014 31.664 38.4677 31.3354 38.4677Z" fill="white"/>
<path d="M33.5394 34.5314H28.5374C27.6994 34.5314 27.0176 33.8496 27.0176 33.0116V24.598C27.0176 23.76 27.6994 23.0781 28.5374 23.0781H33.5394C34.3774 23.0781 35.0593 23.76 35.0593 24.598V33.0116C35.0593 33.8496 34.3774 34.5314 33.5394 34.5314ZM28.5374 24.268C28.3557 24.268 28.2074 24.4163 28.2074 24.598V33.0116C28.2074 33.1932 28.3557 33.3416 28.5374 33.3416H33.5394C33.7212 33.3416 33.8694 33.1933 33.8694 33.0116V24.598C33.8694 24.4163 33.7212 24.268 33.5394 24.268H28.5374Z" fill="white"/>
<path d="M33.6626 24.2681H28.4142C28.0857 24.2681 27.8193 24.0018 27.8193 23.6731V21.6318C27.8193 21.3032 28.0857 21.0369 28.4142 21.0369H33.6626C33.9912 21.0369 34.2576 21.3032 34.2576 21.6318V23.6731C34.2576 24.0018 33.9913 24.2681 33.6626 24.2681ZM29.0092 23.0782H33.0677V22.2268H29.0092V23.0782Z" fill="white"/>
<path d="M30.2099 31.4993C30.0802 31.4993 29.95 31.4575 29.8408 31.3705C29.5833 31.1665 29.5402 30.7924 29.7442 30.5348L30.6673 29.3706H30.1779C29.9613 29.3706 29.7619 29.253 29.6573 29.0639C29.5528 28.8742 29.5589 28.6432 29.6736 28.4596L30.9712 26.3895C31.1456 26.1106 31.5136 26.0275 31.7916 26.2013C32.07 26.376 32.1541 26.7432 31.9798 27.0216L31.2529 28.1808H31.8984C32.1266 28.1808 32.3349 28.3114 32.4339 28.5169C32.5333 28.7224 32.5064 28.9668 32.3646 29.1452L30.6765 31.274C30.5589 31.4222 30.3851 31.4993 30.2099 31.4993Z" fill="white"/>
</svg>
