<svg width="56" height="56" viewBox="0 0 56 56" fill="none" xmlns="http://www.w3.org/2000/svg">
<g clip-path="url(#clip0_175_57)">
<path d="M28.0007 38.2539C24.1602 38.2539 20.675 36.5576 17.9223 33.3482C15.8962 30.9863 14.975 28.6254 14.9368 28.526L14.7344 28L14.9367 27.474C14.975 27.3746 15.8961 25.0137 17.9222 22.6518C20.675 19.4424 24.1602 17.7461 28.0007 17.7461C31.8412 17.7461 35.3264 19.4424 38.0791 22.6518C40.1052 25.0137 41.0264 27.3746 41.0645 27.474L41.2669 28L41.0645 28.526C41.0263 28.6254 40.1052 30.9863 38.0791 33.3482C35.3264 36.5576 31.8412 38.2539 28.0007 38.2539ZM17.9062 28.0001C18.2579 28.7349 19.0102 30.1331 20.2026 31.5065C22.4021 34.0398 25.0258 35.3242 28.0007 35.3242C30.9756 35.3242 33.5992 34.0398 35.7988 31.5065C36.9909 30.1335 37.7429 28.736 38.0952 28C37.743 27.264 36.9909 25.8664 35.7988 24.4935C33.5992 21.9602 30.9756 20.6758 28.0007 20.6758C25.0258 20.6758 22.4021 21.9602 20.2025 24.4935C19.0104 25.8664 18.2584 27.2641 17.9062 28.0001Z" fill="#025BDE"/>
<path d="M26.5312 3H29.4609V11.7891H26.5312V3Z" fill="#025BDE"/>
<path d="M44.2109 26.5352H53V29.4648H44.2109V26.5352Z" fill="#025BDE"/>
<path d="M26.5312 44.2109H29.4609V53H26.5312V44.2109Z" fill="#025BDE"/>
<path d="M3 26.5352H11.7891V29.4648H3V26.5352Z" fill="#025BDE"/>
<path d="M28.0039 32.3945C25.5808 32.3945 23.6094 30.4231 23.6094 28C23.6094 25.5769 25.5808 23.6055 28.0039 23.6055C30.4271 23.6055 32.3984 25.5769 32.3984 28C32.3984 30.4231 30.4271 32.3945 28.0039 32.3945ZM28.0039 26.5352C27.1962 26.5352 26.5391 27.1923 26.5391 28C26.5391 28.8077 27.1962 29.4648 28.0039 29.4648C28.8116 29.4648 29.4688 28.8077 29.4688 28C29.4688 27.1923 28.8116 26.5352 28.0039 26.5352Z" fill="#025BDE"/>
<path d="M46.3576 22.5564C45.458 19.518 43.7908 16.7201 41.5362 14.4655C39.2816 12.2109 36.4839 10.5438 33.4453 9.64414L34.277 6.83496C37.7824 7.87275 41.0091 9.79502 43.6079 12.3938C46.2067 14.9927 48.129 18.2192 49.1668 21.7248L46.3576 22.5564Z" fill="#025BDE"/>
<path d="M34.277 49.1648L33.4453 46.3557C36.4838 45.4561 39.2816 43.7889 41.5361 41.5343C43.7907 39.2797 45.4579 36.4819 46.3575 33.4434L49.1667 34.275C48.1289 37.7805 46.2066 41.007 43.6078 43.606C41.0089 46.2049 37.7823 48.1271 34.277 49.1648Z" fill="#025BDE"/>
<path d="M21.7258 49.1649C18.2203 48.1271 14.9937 46.2049 12.3949 43.6061C9.79609 41.0072 7.87383 37.7807 6.83594 34.2752L9.64512 33.4434C10.5447 36.4819 12.2119 39.2798 14.4665 41.5344C16.7211 43.789 19.5188 45.4562 22.5574 46.3558L21.7258 49.1649Z" fill="#025BDE"/>
<path d="M9.64512 22.5564L6.83594 21.7248C7.87373 18.2193 9.796 14.9928 12.3948 12.3939C14.9938 9.79502 18.2203 7.87275 21.7258 6.83496L22.5574 9.64414C19.5189 10.5438 16.7211 12.2109 14.4665 14.4655C12.2119 16.7201 10.5447 19.518 9.64512 22.5564Z" fill="#025BDE"/>
</g>
<defs>
<clipPath id="clip0_175_57">
<rect width="50" height="50" fill="white" transform="translate(3 3)"/>
</clipPath>
</defs>
</svg>
