<svg width="35" height="35" viewBox="0 0 35 35" fill="none" xmlns="http://www.w3.org/2000/svg">
<g clip-path="url(#clip0_248_730)">
<path d="M17.3988 16.6401C20.4721 16.6401 22.9724 14.1401 22.9724 11.0672C22.9724 7.99431 20.4721 5.49438 17.3988 5.49438C14.3255 5.49438 11.8252 7.99431 11.8252 11.0672C11.8252 14.1401 14.3255 16.6401 17.3988 16.6401ZM17.3988 7.48631C19.3736 7.48631 20.9802 9.09274 20.9802 11.0672C20.9802 13.0417 19.3737 14.6482 17.3988 14.6482C15.4239 14.6482 13.8174 13.0417 13.8174 11.0672C13.8174 9.09274 15.424 7.48631 17.3988 7.48631Z" fill="#025BDE"/>
<path d="M11.3296 21.0811C12.8394 23.1249 12.2328 22.3301 16.5814 28.5388C16.9767 29.1053 17.8172 29.1079 18.2147 28.5396C22.5829 22.3015 21.9819 23.0916 23.4671 21.0811C24.9715 19.0443 26.5273 16.9381 27.3798 14.4701C28.6137 10.8974 28.0803 7.36235 25.8781 4.51618C25.878 4.51618 25.878 4.51611 25.878 4.51611C23.8607 1.90973 20.6907 0.353699 17.3983 0.353699C14.106 0.353699 10.936 1.90973 8.91867 4.51624C6.71644 7.36241 6.18306 10.8975 7.41702 14.4702C8.26941 16.9382 9.82518 19.0443 11.3296 21.0811ZM10.4942 5.7352C12.137 3.61278 14.718 2.34562 17.3983 2.34562C20.0787 2.34562 22.6597 3.61278 24.3025 5.7352L24.3023 5.73513C26.0798 8.03225 26.5039 10.9035 25.4967 13.82C24.7437 15.9999 23.28 17.9814 21.8646 19.8977C20.7625 21.3897 21.0923 20.9333 17.3983 26.2284C13.7082 20.9386 14.0339 21.3892 12.9321 19.8977C11.5167 17.9814 10.053 15.9999 9.30004 13.82C8.29279 10.9035 8.71686 8.03225 10.4942 5.7352Z" fill="#025BDE"/>
<path d="M12.1475 25.3993C11.8537 24.9343 11.2385 24.7953 10.7734 25.0892L7.94115 26.878C7.3233 27.2682 7.3227 28.1714 7.94115 28.562L16.8661 34.1991C17.1911 34.4044 17.6052 34.4043 17.93 34.1991L26.855 28.562C27.473 28.1718 27.4735 27.2686 26.855 26.878L24.0228 25.0892C23.5576 24.7954 22.9425 24.9343 22.6487 25.3993C22.3549 25.8643 22.4938 26.4795 22.9589 26.7732L24.458 27.72L17.3981 32.179L10.3382 27.72L11.8373 26.7732C12.3024 26.4795 12.4412 25.8644 12.1475 25.3993Z" fill="#025BDE"/>
</g>
<defs>
<clipPath id="clip0_248_730">
<rect width="34" height="34" fill="white" transform="translate(0.398438 0.353699)"/>
</clipPath>
</defs>
</svg>
