<svg width="60" height="61" viewBox="0 0 60 61" fill="none" xmlns="http://www.w3.org/2000/svg">
<path d="M46.9602 22.9587H13.0406C12.5488 22.9587 12.1504 22.5601 12.1504 22.0685V20.7819C12.1504 19.1392 13.4864 17.8032 15.1283 17.8032H44.8716C46.5143 17.8032 47.8503 19.1392 47.8503 20.7819V22.0685C47.8504 22.5601 47.4519 22.9587 46.9602 22.9587ZM13.9308 21.1782H46.07V20.7817C46.07 20.121 45.5323 19.5834 44.8716 19.5834H15.1283C14.4676 19.5834 13.9308 20.121 13.9308 20.7817V21.1782Z" fill="#025BDE"/>
<path d="M45.4272 29.7929H14.5732C12.283 29.7929 10.4199 27.9297 10.4199 25.6403V22.0684C10.4199 21.5767 10.8184 21.1782 11.3101 21.1782H48.6896C49.1812 21.1782 49.5798 21.5767 49.5798 22.0684V25.6403C49.5799 27.9297 47.7166 29.7929 45.4272 29.7929ZM12.2002 22.9585V25.6403C12.2002 26.9484 13.265 28.0126 14.5732 28.0126H45.4272C46.7353 28.0126 47.7994 26.9485 47.7994 25.6403V22.9585H12.2002Z" fill="#025BDE"/>
<path d="M43.4727 29.7929H16.5279C16.0362 29.7929 15.6377 29.3944 15.6377 28.9027V22.0684C15.6377 21.5767 16.0362 21.1782 16.5279 21.1782H43.4727C43.9643 21.1782 44.3628 21.5767 44.3628 22.0684V28.9027C44.3628 29.3944 43.9643 29.7929 43.4727 29.7929ZM17.4181 28.0125H42.5824V22.9584H17.4181V28.0125Z" fill="#025BDE"/>
<path d="M39.957 29.7929H20.0435C19.5518 29.7929 19.1533 29.3944 19.1533 28.9027V22.0684C19.1533 21.5767 19.5518 21.1782 20.0435 21.1782H39.957C40.4486 21.1782 40.8472 21.5767 40.8472 22.0684V28.9027C40.8472 29.3944 40.4486 29.7929 39.957 29.7929ZM20.9336 28.0125H39.0667V22.9584H20.9336V28.0125Z" fill="#025BDE"/>
<path d="M43.4727 19.5835H16.5279C16.0362 19.5835 15.6377 19.185 15.6377 18.6934V9.05618C15.6377 8.56454 16.0362 8.16602 16.5279 8.16602C17.0195 8.16602 17.418 8.56454 17.418 9.05618V17.8032H42.5823V10.5652C42.5823 10.0735 42.9808 9.67502 43.4724 9.67502C43.9641 9.67502 44.3626 10.0735 44.3626 10.5652V18.6933C44.3628 19.185 43.9643 19.5835 43.4727 19.5835Z" fill="#025BDE"/>
<path d="M36.8623 19.5837H23.1372C22.6456 19.5837 22.2471 19.1852 22.2471 18.6935V12.8293C22.2471 12.3376 22.6456 11.9391 23.1372 11.9391C23.629 11.9391 24.0274 12.3376 24.0274 12.8293V17.8034H35.9722V6.03713C35.9722 5.54549 36.3706 5.14697 36.8623 5.14697C37.354 5.14697 37.7525 5.54549 37.7525 6.03713V18.6934C37.7526 19.1852 37.3541 19.5837 36.8623 19.5837Z" fill="#025BDE"/>
<path d="M32.8543 19.5835H27.145C26.6534 19.5835 26.2549 19.185 26.2549 18.6934V4.52786C26.2549 4.03622 26.6534 3.6377 27.145 3.6377C27.6368 3.6377 28.0352 4.03622 28.0352 4.52786V17.8031H31.964V10.5652C31.964 10.0735 32.3624 9.67501 32.8542 9.67501C33.3458 9.67501 33.7443 10.0735 33.7443 10.5652V18.6933C33.7446 19.185 33.346 19.5835 32.8543 19.5835Z" fill="#025BDE"/>
<path d="M34.0601 32.7469H25.9411C25.6067 32.7469 25.3007 32.5599 25.1483 32.2621L23.6385 29.3083C23.4972 29.0322 23.5105 28.7026 23.6718 28.4383C23.8338 28.1741 24.1211 28.0127 24.4313 28.0127H35.5693C35.8795 28.0127 36.1668 28.1741 36.3288 28.4383C36.4902 28.7027 36.5034 29.0322 36.3622 29.3076L34.8531 32.2613C34.7005 32.5599 34.3945 32.7469 34.0601 32.7469ZM26.4857 30.9665H33.5155L34.1151 29.7933H25.8862L26.4857 30.9665Z" fill="#025BDE"/>
<path d="M30.0001 57.6377C28.5293 57.6377 27.333 56.4415 27.333 54.9713V31.8565C27.333 31.3648 27.7315 30.9663 28.2232 30.9663H31.7762C32.2679 30.9663 32.6664 31.3648 32.6664 31.8565V54.9713C32.6665 56.4415 31.4704 57.6377 30.0001 57.6377ZM29.1134 32.7467V54.9713C29.1134 55.4595 29.5112 55.8573 30.0001 55.8573C30.4884 55.8573 30.8862 55.4595 30.8862 54.9713V32.7467H29.1134Z" fill="#025BDE"/>
</svg>
