<svg width="41" height="41" viewBox="0 0 41 41" fill="none" xmlns="http://www.w3.org/2000/svg">
<path d="M34.2748 35.9588H8.45015C6.82831 35.9588 5.50879 34.6395 5.50879 33.0175V18.8744C5.50879 18.5643 5.76007 18.313 6.07015 18.313H36.6551C36.9652 18.313 37.2165 18.5643 37.2165 18.8744V33.0175C37.2165 34.6395 35.8968 35.9588 34.2748 35.9588ZM6.63151 19.4358V33.0175C6.63151 34.0203 7.44743 34.8361 8.45015 34.8361H34.2748C35.2778 34.8361 36.0937 34.0202 36.0937 33.0175V19.4358H6.63151Z" fill="white"/>
<path d="M33.8952 22.6143H6.13656C5.82648 22.6143 5.5752 22.363 5.5752 22.0528C5.5752 21.7427 5.82648 21.4915 6.13656 21.4915H33.8952C34.2052 21.4915 34.4566 21.7427 34.4566 22.0528C34.4566 22.363 34.2052 22.6143 33.8952 22.6143Z" fill="white"/>
<path d="M37.6804 35.9587H5.04476C4.73468 35.9587 4.4834 35.7074 4.4834 35.3973C4.4834 35.0872 4.73468 34.8359 5.04476 34.8359H37.6804C37.9905 34.8359 38.2418 35.0872 38.2418 35.3973C38.2418 35.7074 37.9905 35.9587 37.6804 35.9587Z" fill="white"/>
<path d="M36.6551 32.5501H6.07015C5.76007 32.5501 5.50879 32.2988 5.50879 31.9887V29.7462C5.50879 29.4361 5.76007 29.1848 6.07015 29.1848H36.6551C36.9652 29.1848 37.2165 29.4361 37.2165 29.7462V31.9887C37.2165 32.2988 36.9651 32.5501 36.6551 32.5501ZM6.63151 31.4274H36.0937V30.3075H6.63151V31.4274Z" fill="white"/>
<path d="M34.4668 19.4356H8.2596C7.94952 19.4356 7.69824 19.1843 7.69824 18.8742V16.6917C7.69824 16.3817 7.94952 16.1304 8.2596 16.1304C8.56968 16.1304 8.82096 16.3817 8.82096 16.6917V18.3129H33.9054V16.6917C33.9054 16.3817 34.1567 16.1304 34.4668 16.1304C34.7768 16.1304 35.0282 16.3817 35.0282 16.6917V18.8742C35.0282 19.1843 34.7769 19.4356 34.4668 19.4356Z" fill="white"/>
<path d="M36.6551 17.2532H32.3993C32.0892 17.2532 31.8379 17.0019 31.8379 16.6918C31.8379 16.3817 32.0892 16.1304 32.3993 16.1304H36.0936V11.6766C36.0936 11.3665 36.3449 11.1152 36.6551 11.1152C36.9652 11.1152 37.2165 11.3665 37.2165 11.6766V16.6918C37.2165 17.0018 36.9651 17.2532 36.6551 17.2532Z" fill="white"/>
<path d="M27.241 17.2531H22.785C22.4749 17.2531 22.2236 17.0018 22.2236 16.6917C22.2236 16.3817 22.4749 16.1304 22.785 16.1304H27.241C27.5511 16.1304 27.8024 16.3817 27.8024 16.6917C27.8024 17.0017 27.551 17.2531 27.241 17.2531Z" fill="white"/>
<path d="M20.4462 17.2531H13.5467C13.2366 17.2531 12.9854 17.0018 12.9854 16.6917C12.9854 16.3817 13.2366 16.1304 13.5467 16.1304H20.4462C20.7562 16.1304 21.0076 16.3817 21.0076 16.6917C21.0076 17.0017 20.7562 17.2531 20.4462 17.2531Z" fill="white"/>
<path d="M11.2908 17.2533H6.07015C5.76007 17.2533 5.50879 17.002 5.50879 16.6919V13.9498C5.50879 13.6397 5.76007 13.3884 6.07015 13.3884C6.38023 13.3884 6.63151 13.6397 6.63151 13.9498V16.1306H11.2908C11.6009 16.1306 11.8521 16.3819 11.8521 16.6919C11.8521 17.0019 11.6008 17.2533 11.2908 17.2533Z" fill="white"/>
<path d="M19.1526 9.65495H17.0106C16.7005 9.65495 16.4492 9.40367 16.4492 9.09359C16.4492 8.78351 16.7005 8.53223 17.0106 8.53223H19.1526C19.4627 8.53223 19.7139 8.78351 19.7139 9.09359C19.7139 9.40359 19.4626 9.65495 19.1526 9.65495Z" fill="white"/>
<path d="M27.1604 9.65495H22.6972C22.3871 9.65495 22.1357 9.40367 22.1357 9.09359C22.1357 8.78351 22.387 8.53223 22.6972 8.53223H27.1604C27.4705 8.53223 27.7217 8.78351 27.7217 9.09359C27.7217 9.40359 27.4705 9.65495 27.1604 9.65495Z" fill="white"/>
<path d="M32.1263 17.8339C32.0724 17.8339 32.0177 17.8263 31.9636 17.8099L25.8127 15.9473C25.5386 15.8643 25.371 15.5881 25.4238 15.3066L26.9506 7.1653C26.98 7.0085 27.0748 6.8717 27.2109 6.78906C27.3475 6.70594 27.5126 6.68506 27.665 6.73154L35.5352 9.1149C35.6878 9.16122 35.8137 9.27018 35.881 9.41474C35.9486 9.55898 35.9514 9.72546 35.889 9.8721L32.6427 17.4926C32.5526 17.7042 32.3463 17.8339 32.1263 17.8339ZM26.62 15.0187L31.8073 16.5894L34.6109 10.0081L27.9388 7.98738L26.62 15.0187Z" fill="white"/>
<path d="M30.24 17.2629C30.186 17.2629 30.1312 17.255 30.0771 17.2386L27.6985 16.5183C27.4106 16.431 27.2427 16.1325 27.3176 15.8412L29.3716 7.85974C29.4098 7.7115 29.5067 7.58542 29.64 7.51038C29.7736 7.43542 29.9311 7.4179 30.078 7.46238L33.1213 8.38398C33.2678 8.4283 33.3898 8.53046 33.4591 8.66686C33.5283 8.80326 33.5391 8.96206 33.4887 9.10654L30.7698 16.8866C30.6891 17.1171 30.4727 17.2629 30.24 17.2629ZM28.5391 15.5997L29.8875 16.0082L32.2355 9.28878L30.313 8.70654L28.5391 15.5997Z" fill="white"/>
<path d="M19.4228 12.8984C19.293 12.8984 19.1666 12.8534 19.0658 12.7703C18.9509 12.6756 18.8783 12.5392 18.8641 12.3909L18.6027 9.67973C18.4792 8.40021 19.4197 7.25885 20.6992 7.13541C21.32 7.07509 21.9253 7.26109 22.4057 7.65685C22.8862 8.05285 23.1837 8.61229 23.2433 9.23221L23.5049 11.9433C23.5192 12.0914 23.474 12.2393 23.3795 12.3541C23.2848 12.4691 23.1484 12.5417 23.0001 12.5559L19.4767 12.8957C19.4588 12.8974 19.4408 12.8984 19.4228 12.8984ZM20.9252 8.24717C20.886 8.24717 20.8466 8.24917 20.8071 8.25293C20.1438 8.31693 19.656 8.90853 19.7201 9.57189L19.9278 11.7245L22.3336 11.4925L22.126 9.33997C22.095 9.01845 21.9408 8.72861 21.6918 8.52333C21.4732 8.34325 21.2047 8.24717 20.9252 8.24717Z" fill="white"/>
<path d="M4.06559 15.2955C3.84111 15.2955 3.62919 15.1599 3.54263 14.9384L2.28071 11.7122C2.22655 11.5734 2.22959 11.419 2.28927 11.2827C2.34895 11.1462 2.46031 11.0391 2.59887 10.9849L15.6913 5.86377C15.8305 5.80961 15.9849 5.81249 16.1209 5.87233C16.2573 5.93201 16.3645 6.04337 16.4186 6.18217L17.6805 9.40865C17.7935 9.69721 17.6509 10.0229 17.3624 10.1359L12.7917 11.9236C12.6528 11.9775 12.4985 11.9747 12.3619 11.9151C12.2254 11.8554 12.1185 11.7438 12.0643 11.6052L11.9853 11.4033L9.07991 12.5399L9.15887 12.7415C9.21303 12.8804 9.20999 13.0347 9.15031 13.1711C9.09063 13.3075 8.97927 13.4147 8.84063 13.4689L4.26991 15.2567C4.20271 15.283 4.13359 15.2955 4.06559 15.2955ZM3.53079 11.8259L4.38375 14.0065L7.90871 12.6276L7.82975 12.4259C7.77559 12.2871 7.77863 12.1327 7.83831 11.9963C7.89799 11.8599 8.00927 11.7527 8.14791 11.6986L12.0992 10.1531C12.2382 10.0989 12.3926 10.102 12.5289 10.1616C12.6653 10.2213 12.7724 10.3329 12.8265 10.4715L12.9054 10.6734L16.4304 9.29449L15.5773 7.11377L3.53079 11.8259Z" fill="white"/>
<path d="M5.9122 14.5729C5.83548 14.5729 5.75876 14.5571 5.68724 14.5257C5.55084 14.4661 5.44364 14.3547 5.38948 14.2159L4.12756 10.9893C4.01468 10.7008 4.15716 10.3752 4.44596 10.2622L13.8446 6.58622C13.9832 6.53182 14.138 6.5351 14.274 6.59478C14.4104 6.65446 14.5176 6.76582 14.5717 6.90462L15.8335 10.1309C15.9464 10.4195 15.8039 10.7451 15.5153 10.8581L12.7916 11.9235C12.6532 11.9774 12.4984 11.9746 12.3619 11.9149C12.2254 11.8553 12.1184 11.7437 12.0643 11.6051L11.9853 11.4032L9.07988 12.5397L9.15884 12.7414C9.213 12.8803 9.20996 13.0346 9.15028 13.171C9.0906 13.3074 8.97924 13.4146 8.8406 13.4688L6.11692 14.5342C6.05108 14.56 5.98148 14.5729 5.9122 14.5729ZM5.37764 11.1034L6.2306 13.2841L7.9086 12.6278L7.82964 12.4258C7.77548 12.287 7.77852 12.1326 7.8382 11.9963C7.89788 11.8598 8.00916 11.7526 8.1478 11.6985L12.0991 10.153C12.2381 10.0989 12.3925 10.102 12.5288 10.1616C12.6652 10.2213 12.7723 10.3329 12.8264 10.4714L12.9053 10.6733L14.5835 10.0169L13.7304 7.83638L5.37764 11.1034Z" fill="white"/>
<path d="M4.01927 11.5933C3.94255 11.5933 3.86583 11.5775 3.79431 11.5461C3.65791 11.4865 3.55071 11.3751 3.49655 11.2363L3.14679 10.3421C2.86631 9.62543 3.22135 8.81407 3.93823 8.53343L13.0446 4.97159C13.3916 4.83567 13.7712 4.84359 14.1131 4.99287C14.4546 5.14239 14.7174 5.41599 14.8534 5.76319L15.2032 6.65767C15.3161 6.94623 15.1736 7.27191 14.8848 7.38479L4.22383 11.5547C4.15783 11.5804 4.08855 11.5933 4.01927 11.5933ZM13.5528 5.99831C13.5197 5.99831 13.4861 6.00447 13.4536 6.01711L4.34735 9.57895C4.20695 9.63399 4.13751 9.79279 4.19231 9.93303L4.33767 10.3046L13.953 6.54367L13.8078 6.17223C13.7654 6.06455 13.6622 5.99831 13.5528 5.99831Z" fill="white"/>
<path d="M9.58242 15.9273C9.35794 15.9273 9.14602 15.7918 9.05946 15.5704L7.82954 12.4258C7.77538 12.287 7.77842 12.1326 7.8381 11.9963C7.89778 11.8598 8.00906 11.7526 8.1477 11.6985L12.099 10.153C12.238 10.0988 12.3924 10.102 12.5285 10.1616C12.665 10.2212 12.7722 10.3326 12.8263 10.4714L14.0562 13.6161C14.1103 13.7547 14.1073 13.9093 14.0476 14.0457C13.9879 14.1819 13.8767 14.2891 13.7378 14.3432L9.78658 15.8885C9.71946 15.9148 9.65042 15.9273 9.58242 15.9273ZM9.07962 12.5396L9.90066 14.6383L12.8061 13.502L11.9851 11.403L9.07962 12.5396Z" fill="white"/>
<path d="M22.978 19.4357H20.683C20.3937 19.4357 20.1519 19.2159 20.1243 18.9282L19.4879 12.3307C19.4737 12.1825 19.5188 12.0347 19.6134 11.9198C19.7081 11.8049 19.8445 11.7323 19.9927 11.7181L22.2667 11.4988C22.5763 11.4701 22.8498 11.6951 22.8794 12.0036L23.5367 18.8204C23.5518 18.9781 23.4999 19.1346 23.3936 19.2518C23.2871 19.3688 23.1363 19.4357 22.978 19.4357ZM21.1928 18.313H22.3598L21.8158 12.6702L20.6593 12.7816L21.1928 18.313Z" fill="white"/>
<path d="M29.9715 19.4356H26.5965C26.4189 19.4356 26.2516 19.3513 26.1457 19.2089C26.0398 19.0661 26.0078 18.8817 26.0592 18.7115L26.9679 15.7104C27.0111 15.5679 27.109 15.4483 27.2403 15.3781C27.3717 15.3077 27.5254 15.2929 27.6679 15.3358L30.7594 16.2719C31.056 16.3618 31.2238 16.6752 31.1339 16.9718L30.5087 19.0368C30.4371 19.2737 30.2188 19.4356 29.9715 19.4356ZM27.3531 18.3129H29.5549L29.8967 17.1838L27.8798 16.5731L27.3531 18.3129Z" fill="white"/>
<path d="M14.2434 19.4356H12.2219C11.9908 19.4356 11.7834 19.2939 11.6991 19.0788L10.1586 15.1405C10.1045 15.0017 10.1075 14.847 10.1672 14.7107C10.2269 14.5744 10.3382 14.4673 10.477 14.4131L12.2306 13.7274C12.5192 13.6145 12.8449 13.757 12.9578 14.0458L14.7662 18.6698C14.8337 18.8424 14.8116 19.0376 14.707 19.1905C14.6024 19.3439 14.429 19.4356 14.2434 19.4356ZM12.6052 18.3129H13.4211L12.1166 14.9774L11.4088 15.2544L12.6052 18.3129Z" fill="white"/>
</svg>
