<svg width="55" height="55" viewBox="0 0 55 55" fill="none" xmlns="http://www.w3.org/2000/svg">
<g clip-path="url(#clip0_174_49)">
<path d="M51.6036 16.5138C50.5293 15.9235 48.893 16.0422 47.839 17.6991C47.8359 17.7041 47.8327 17.7091 47.8296 17.7142L43.9113 24.127C43.4393 23.8549 42.898 23.7343 42.3474 23.7835C41.6571 23.8453 41.036 24.1692 40.5987 24.6956C40.319 25.0323 39.395 26.1865 38.4167 27.4086C37.4876 28.5691 36.527 29.7693 36.2588 30.0921C35.329 31.2113 34.1428 32.072 32.8871 32.9831C31.1054 34.276 29.157 35.6898 28.0008 37.996C26.8446 35.6898 24.8962 34.276 23.1144 32.9831C21.8588 32.0719 20.6726 31.2112 19.7427 30.0921C19.4747 29.7695 18.5148 28.5703 17.5865 27.4106C16.6075 26.1877 15.6828 25.0324 15.4029 24.6956C14.9655 24.1692 14.3444 23.8453 13.6542 23.7835C13.1032 23.7343 12.5623 23.8551 12.0903 24.127L8.17198 17.7142C8.16896 17.7091 8.16583 17.7041 8.16261 17.6991C7.1087 16.0424 5.47228 15.9232 4.39797 16.5138C3.12531 17.2135 2.65031 18.7749 3.29328 20.1458C3.29475 20.1489 3.29621 20.152 3.29768 20.1551C3.57219 20.7246 4.23996 22.318 5.0133 24.1631C6.09562 26.7453 7.44249 29.9591 8.5839 32.4697C10.0708 35.7405 10.7377 36.6596 13.3411 39.0259L16.8533 42.2184V42.5166H16.2821C15.7428 42.5166 15.3056 42.9538 15.3056 43.4931V49.3525C15.3056 49.8918 15.7428 50.329 16.2821 50.329H39.7196C40.2588 50.329 40.6961 49.8918 40.6961 49.3525V43.4931C40.6961 42.9538 40.2588 42.5166 39.7196 42.5166H39.1484V42.2184L42.6607 39.0259C45.264 36.6596 45.9309 35.7405 47.4179 32.4697C48.5592 29.9592 49.9061 26.7456 50.9883 24.1635C51.7617 22.3182 52.4297 20.7246 52.7041 20.1551C52.7056 20.152 52.7071 20.1489 52.7085 20.1458C53.3516 18.7749 52.8766 17.2135 51.6036 16.5138ZM18.4868 41.0637L14.6549 37.5806C12.2564 35.4007 11.7349 34.6814 10.362 31.6614C9.23263 29.1772 7.892 25.9784 6.81466 23.4081C6.0008 21.4661 5.35744 19.9312 5.05968 19.3124C4.78683 18.7258 5.10646 18.3533 5.33898 18.2255C5.72882 18.0112 6.16642 18.2038 6.51066 18.7409L10.8661 25.8691C10.7861 26.3919 10.8519 27.0412 11.1692 27.8434C12.0807 30.1469 13.2105 32.4476 14.2691 34.1558C14.5532 34.6143 15.1551 34.7555 15.6137 34.4715C16.0721 34.1874 16.2135 33.5854 15.9294 33.1269C14.9292 31.5129 13.8562 29.3252 12.9855 27.1248C12.6133 26.1843 12.8605 25.9765 12.9535 25.8982C13.1037 25.7721 13.2905 25.7124 13.4804 25.729C13.6489 25.744 13.7983 25.8205 13.901 25.944C14.1695 26.2672 15.1316 27.469 16.062 28.6314C17.0388 29.8516 17.9613 31.0042 18.2407 31.3404C19.3273 32.6483 20.6696 33.6222 21.9677 34.5641C24.4835 36.3896 26.6575 37.9673 27.0245 41.631V42.5168H18.8065V41.7865C18.8065 41.5112 18.6904 41.2489 18.4868 41.0637ZM17.2588 44.4697H27.0244V48.3759H17.2588V44.4697ZM38.743 48.3759H28.9775V44.4697H38.743V48.3759ZM50.9421 19.3123C50.6445 19.9312 50.001 21.4663 49.1869 23.4085C48.1098 25.9786 46.7691 29.1773 45.6399 31.6613C44.2668 34.6814 43.7454 35.4006 41.3469 37.5805L37.515 41.0636C37.3114 41.2488 37.1954 41.5111 37.1954 41.7863V42.5166H28.9776V41.6303C29.3447 37.9669 31.5187 36.3893 34.0343 34.5639C35.3324 33.6221 36.6747 32.6481 37.7613 31.3403C38.0409 31.0038 38.9641 29.8504 39.9417 28.6291C40.8714 27.4677 41.8327 26.2668 42.101 25.9438C42.2037 25.8203 42.3531 25.7439 42.5216 25.7289C42.711 25.7118 42.8983 25.772 43.0486 25.8982C43.1415 25.9765 43.3887 26.1842 43.0166 27.1247C42.1459 29.3252 41.0729 31.513 40.0727 33.1269C39.7886 33.5853 39.9299 34.1873 40.3883 34.4715C40.8468 34.7553 41.4487 34.614 41.7329 34.1557C42.7913 32.4476 43.9211 30.1469 44.8328 27.8434C45.1501 27.0411 45.2158 26.3918 45.1358 25.8691L49.4915 18.7406C49.8357 18.2039 50.2732 18.0112 50.663 18.2255C50.8954 18.3531 51.2151 18.7257 50.9421 19.3123Z" fill="#025BDE"/>
<path d="M27.9986 18.367C29.8675 18.367 31.388 16.8466 31.388 14.9777C31.388 13.1089 29.8676 11.5884 27.9986 11.5884C26.1297 11.5884 24.6094 13.1088 24.6094 14.9777C24.6094 16.8467 26.1297 18.367 27.9986 18.367ZM27.9986 13.5415C28.7905 13.5415 29.4349 14.1857 29.4349 14.9777C29.4349 15.7696 28.7905 16.4139 27.9986 16.4139C27.2067 16.4139 26.5625 15.7696 26.5625 14.9777C26.5625 14.1857 27.2067 13.5415 27.9986 13.5415Z" fill="#025BDE"/>
<path d="M14.3281 15.9541H14.9962C15.4732 22.3675 20.6098 27.5041 27.0233 27.9812V28.6494C27.0233 29.1887 27.4605 29.6259 27.9999 29.6259C28.5392 29.6259 28.9764 29.1887 28.9764 28.6494V27.9812C35.3899 27.5041 40.5265 22.3675 41.0036 15.9541H41.6717C42.211 15.9541 42.6483 15.5169 42.6483 14.9775C42.6483 14.4382 42.211 14.001 41.6717 14.001H41.0036C40.5265 7.58749 35.3899 2.45087 28.9764 1.97382V1.30566C28.9764 0.766308 28.5391 0.329102 27.9999 0.329102C27.4605 0.329102 27.0233 0.766308 27.0233 1.30566V1.97373C20.6098 2.45087 15.4733 7.58739 14.9962 14.001H14.3281C13.7888 14.001 13.3516 14.4382 13.3516 14.9775C13.3516 15.5169 13.7888 15.9541 14.3281 15.9541ZM16.9558 15.9541H19.8431C20.2893 19.7047 23.2727 22.6881 27.0234 23.1343V26.0216C21.6875 25.5538 17.4236 21.2899 16.9558 15.9541ZM28 8.7159C31.4526 8.7159 34.2615 11.5248 34.2615 14.9774C34.2615 18.4299 31.4526 21.2389 28 21.2389C24.5473 21.2389 21.7384 18.43 21.7384 14.9775C21.7384 11.5249 24.5473 8.7159 28 8.7159ZM28.9765 26.0216V23.1343C32.7271 22.688 35.7105 19.7047 36.1568 15.9541H39.0442C38.5763 21.2899 34.3124 25.5538 28.9765 26.0216ZM39.0442 14.001H36.1568C35.7105 10.2503 32.7271 7.26688 28.9765 6.82059V3.93329C34.3124 4.40116 38.5763 8.66502 39.0442 14.001ZM27.0234 3.93329V6.82059C23.2727 7.26688 20.2893 10.2503 19.8431 14.001H16.9558C17.4236 8.66502 21.6875 4.40116 27.0234 3.93329Z" fill="#025BDE"/>
</g>
<defs>
<clipPath id="clip0_174_49">
<rect width="50" height="50" fill="white" transform="translate(3 0.329102)"/>
</clipPath>
</defs>
</svg>
