<svg width="60" height="61" viewBox="0 0 60 61" fill="none" xmlns="http://www.w3.org/2000/svg">
<path d="M49.4716 8.76613H10.5277C10.0356 8.76613 9.63672 8.36725 9.63672 7.87513V4.35853C9.63672 3.86629 10.0356 3.46753 10.5277 3.46753H49.4716C49.9637 3.46753 50.3626 3.86629 50.3626 4.35853V7.87513C50.3626 8.36725 49.9637 8.76613 49.4716 8.76613ZM11.4187 6.98401H48.5806V5.24953H11.4187V6.98401Z" fill="#025BDE"/>
<path d="M49.4716 15.8872H10.5277C10.0356 15.8872 9.63672 15.4883 9.63672 14.9962V7.87525C9.63672 7.38301 10.0356 6.98413 10.5277 6.98413H49.4716C49.9637 6.98413 50.3626 7.38301 50.3626 7.87525V14.9962C50.3626 15.4883 49.9637 15.8872 49.4716 15.8872ZM11.4187 14.1052H48.5806V8.76625H11.4187V14.1052Z" fill="#025BDE"/>
<path d="M45.7357 15.8872H14.264C13.7718 15.8872 13.373 15.4883 13.373 14.9962V7.87525C13.373 7.38301 13.7718 6.98413 14.264 6.98413H45.7357C46.2278 6.98413 46.6267 7.38301 46.6267 7.87525V14.9962C46.6266 15.4883 46.2277 15.8872 45.7357 15.8872ZM15.155 14.1052H44.8447V8.76625H15.155V14.1052Z" fill="#025BDE"/>
<path d="M40.3732 15.887H19.6264C19.1342 15.887 18.7354 15.4881 18.7354 14.996V11.6993C18.7354 11.2072 19.1342 10.8083 19.6264 10.8083H40.3732C40.8653 10.8083 41.2642 11.2072 41.2642 11.6993V14.996C41.2642 15.4881 40.8653 15.887 40.3732 15.887ZM20.5174 14.105H39.4822V12.5903H20.5174V14.105Z" fill="#025BDE"/>
<path d="M35.8018 18.9637H24.1976C23.7055 18.9637 23.3066 18.5648 23.3066 18.0727V14.996C23.3066 14.5039 23.7055 14.105 24.1976 14.105H35.8018C36.2939 14.105 36.6928 14.5039 36.6928 14.996V18.0727C36.6928 18.5648 36.2939 18.9637 35.8018 18.9637ZM25.0886 17.1817H34.9108V15.887H25.0886V17.1817Z" fill="#025BDE"/>
<path d="M31.1036 38.3475H28.896C28.4181 38.3475 28.0251 37.9702 28.0057 37.4927L27.2195 18.1089C27.2097 17.8666 27.2991 17.6307 27.467 17.4552C27.635 17.2805 27.8672 17.1816 28.1099 17.1816H31.89C32.1325 17.1816 32.3647 17.2804 32.5328 17.4552C32.7006 17.6307 32.79 17.8666 32.7803 18.1089L31.9941 37.4927C31.9743 37.9702 31.5815 38.3475 31.1036 38.3475ZM29.7515 36.5655H30.2481L30.962 18.9636H29.0377L29.7515 36.5655Z" fill="#025BDE"/>
<path d="M31.8507 44.8972H28.1488C27.6567 44.8972 27.2578 44.4983 27.2578 44.0062V37.4567C27.2578 36.9646 27.6567 36.5657 28.1488 36.5657H31.8507C32.3428 36.5657 32.7417 36.9646 32.7417 37.4567V44.0062C32.7417 44.4983 32.3428 44.8972 31.8507 44.8972ZM29.0398 43.1152H30.9597V38.3476H29.0398V43.1152Z" fill="#025BDE"/>
<path d="M31.6703 57.4675H28.3298C27.184 57.4675 26.252 56.5354 26.252 55.3903L27.0406 43.9447C27.073 43.4776 27.4614 43.115 27.9296 43.115H32.0709C32.539 43.115 32.9274 43.4776 32.9597 43.9447L33.746 55.3291C33.7481 56.5354 32.816 57.4675 31.6703 57.4675ZM28.761 44.897L28.0319 55.4516C28.034 55.5533 28.1666 55.6856 28.3298 55.6856H31.6703C31.8335 55.6856 31.9661 55.5534 31.9661 55.3904L31.2394 44.897H28.761Z" fill="#025BDE"/>
<path d="M47.2865 24.1551C46.7943 24.1551 46.3955 23.7563 46.3955 23.2641V18.8684C46.3955 18.3762 46.7943 17.9773 47.2865 17.9773C47.7786 17.9773 48.1775 18.3762 48.1775 18.8684V23.2641C48.1775 23.7563 47.7786 24.1551 47.2865 24.1551Z" fill="#025BDE"/>
<path d="M19.2728 26.6164C18.7807 26.6164 18.3818 26.2177 18.3818 25.7254V19.6305C18.3818 19.1384 18.7807 18.7395 19.2728 18.7395C19.765 18.7395 20.1638 19.1384 20.1638 19.6305V25.7254C20.1638 26.2177 19.765 26.6164 19.2728 26.6164Z" fill="#025BDE"/>
<path d="M38.3783 28.1987C37.8861 28.1987 37.4873 27.7998 37.4873 27.3077V23.264C37.4873 22.7719 37.8861 22.373 38.3783 22.373C38.8704 22.373 39.2693 22.7719 39.2693 23.264V27.3077C39.2693 27.7998 38.8704 28.1987 38.3783 28.1987Z" fill="#025BDE"/>
<path d="M14.264 30.25C13.7718 30.25 13.373 29.8512 13.373 29.359V22.6781C13.373 22.1859 13.7718 21.7871 14.264 21.7871C14.7562 21.7871 15.155 22.1859 15.155 22.6781V29.359C15.155 29.8512 14.7562 30.25 14.264 30.25Z" fill="#025BDE"/>
</svg>
