<svg width="60" height="61" viewBox="0 0 60 61" fill="none" xmlns="http://www.w3.org/2000/svg">
<path d="M51.0474 53.9502H12.3105C9.87772 53.9502 7.89844 51.9712 7.89844 49.5382V28.3236C7.89844 27.8585 8.27536 27.4814 8.74048 27.4814H54.6179C55.083 27.4814 55.46 27.8584 55.46 28.3236V49.5382C55.46 51.9712 53.4804 53.9502 51.0474 53.9502ZM9.58252 29.1656V49.5382C9.58252 51.0424 10.8064 52.2661 12.3105 52.2661H51.0474C52.5519 52.2661 53.7758 51.0422 53.7758 49.5382V29.1656H9.58252Z" fill="#025BDE"/>
<path d="M50.48 33.9332H8.84204C8.37692 33.9332 8 33.5563 8 33.0911C8 32.6259 8.37692 32.249 8.84204 32.249H50.48C50.945 32.249 51.322 32.6259 51.322 33.0911C51.322 33.5563 50.945 33.9332 50.48 33.9332Z" fill="#025BDE"/>
<path d="M56.1549 53.9502H7.20141C6.73629 53.9502 6.35938 53.5733 6.35938 53.1082C6.35938 52.643 6.73629 52.2661 7.20141 52.2661H56.1549C56.6201 52.2661 56.997 52.643 56.997 53.1082C56.997 53.5733 56.6201 53.9502 56.1549 53.9502Z" fill="#025BDE"/>
<path d="M54.6179 48.837H8.74048C8.27536 48.837 7.89844 48.4601 7.89844 47.9949V44.6311C7.89844 44.166 8.27536 43.7891 8.74048 43.7891H54.6179C55.083 43.7891 55.46 44.166 55.46 44.6311V47.9949C55.46 48.4601 55.0829 48.837 54.6179 48.837ZM9.58252 47.1529H53.7758V45.4731H9.58252V47.1529Z" fill="#025BDE"/>
<path d="M51.3403 29.1658H12.0295C11.5644 29.1658 11.1875 28.7889 11.1875 28.3238V25.05C11.1875 24.5849 11.5644 24.208 12.0295 24.208C12.4947 24.208 12.8716 24.5849 12.8716 25.05V27.4817H50.4983V25.05C50.4983 24.5849 50.8752 24.208 51.3403 24.208C51.8053 24.208 52.1824 24.5849 52.1824 25.05V28.3238C52.1824 28.7889 51.8055 29.1658 51.3403 29.1658Z" fill="#025BDE"/>
<path d="M54.6164 25.8919H48.2327C47.7675 25.8919 47.3906 25.515 47.3906 25.0499C47.3906 24.5848 47.7675 24.2079 48.2327 24.2079H53.7743V17.5271C53.7743 17.062 54.1512 16.6851 54.6164 16.6851C55.0815 16.6851 55.4585 17.062 55.4585 17.5271V25.0499C55.4585 25.5149 55.0814 25.8919 54.6164 25.8919Z" fill="#025BDE"/>
<path d="M40.4948 25.8921H33.8108C33.3457 25.8921 32.9688 25.5152 32.9688 25.05C32.9688 24.5849 33.3457 24.208 33.8108 24.208H40.4948C40.9599 24.208 41.3368 24.5849 41.3368 25.05C41.3368 25.515 40.9598 25.8921 40.4948 25.8921Z" fill="#025BDE"/>
<path d="M30.3085 25.8921H19.9592C19.4941 25.8921 19.1172 25.5152 19.1172 25.05C19.1172 24.5849 19.4941 24.208 19.9592 24.208H30.3085C30.7735 24.208 31.1505 24.5849 31.1505 25.05C31.1505 25.515 30.7735 25.8921 30.3085 25.8921Z" fill="#025BDE"/>
<path d="M16.5714 25.892H8.74048C8.27536 25.892 7.89844 25.5151 7.89844 25.05V20.9368C7.89844 20.4716 8.27536 20.0947 8.74048 20.0947C9.2056 20.0947 9.58252 20.4716 9.58252 20.9368V24.208H16.5714C17.0366 24.208 17.4135 24.5849 17.4135 25.05C17.4135 25.515 17.0364 25.892 16.5714 25.892Z" fill="#025BDE"/>
<path d="M28.3675 14.4946H25.1545C24.6894 14.4946 24.3125 14.1177 24.3125 13.6526C24.3125 13.1875 24.6894 12.8105 25.1545 12.8105H28.3675C28.8327 12.8105 29.2096 13.1875 29.2096 13.6526C29.2096 14.1176 28.8325 14.4946 28.3675 14.4946Z" fill="#025BDE"/>
<path d="M40.3807 14.4946H33.6859C33.2208 14.4946 32.8438 14.1177 32.8438 13.6526C32.8438 13.1875 33.2207 12.8105 33.6859 12.8105H40.3807C40.8458 12.8105 41.2228 13.1875 41.2228 13.6526C41.2228 14.1176 40.846 14.4946 40.3807 14.4946Z" fill="#025BDE"/>
<path d="M47.8262 26.7632C47.7453 26.7632 47.6633 26.7517 47.5821 26.7271L38.3558 23.9333C37.9447 23.8088 37.6931 23.3945 37.7723 22.9722L40.0627 10.7603C40.1067 10.5251 40.2489 10.3199 40.453 10.1959C40.658 10.0712 40.9057 10.0399 41.1343 10.1096L52.9395 13.6847C53.1685 13.7542 53.3572 13.9176 53.4583 14.1344C53.5595 14.3508 53.5639 14.6005 53.4701 14.8205L48.6008 26.2512C48.4657 26.5686 48.1562 26.7632 47.8262 26.7632ZM39.5667 22.5403L47.3477 24.8964L51.553 15.0245L41.5449 11.9934L39.5667 22.5403Z" fill="#025BDE"/>
<path d="M44.9962 25.907C44.9153 25.907 44.8331 25.8951 44.7518 25.8705L41.184 24.79C40.7521 24.6591 40.5002 24.2114 40.6127 23.7743L43.6937 11.8022C43.7509 11.5798 43.8962 11.3907 44.0963 11.2781C44.2967 11.1657 44.5328 11.1394 44.7532 11.2061L49.3182 12.5885C49.5379 12.655 49.7209 12.8083 49.8248 13.0129C49.9286 13.2175 49.9448 13.4557 49.8692 13.6724L45.7909 25.3425C45.6698 25.6882 45.3452 25.907 44.9962 25.907ZM42.4448 23.4121L44.4674 24.0249L47.9894 13.9457L45.1057 13.0724L42.4448 23.4121Z" fill="#025BDE"/>
<path d="M28.7699 19.3599C28.5752 19.3599 28.3856 19.2925 28.2344 19.1678C28.0621 19.0257 27.9532 18.8211 27.9319 18.5987L27.5398 14.5319C27.3546 12.6127 28.7653 10.9006 30.6846 10.7155C31.6158 10.625 32.5237 10.904 33.2443 11.4976C33.965 12.0916 34.4113 12.9308 34.5007 13.8607L34.8931 17.9272C34.9145 18.1494 34.8468 18.3712 34.705 18.5435C34.5629 18.716 34.3583 18.8248 34.1359 18.8462L28.8508 19.3559C28.8239 19.3585 28.7969 19.3599 28.7699 19.3599ZM31.0236 12.3831C30.9648 12.3831 30.9056 12.3861 30.8464 12.3917C29.8514 12.4877 29.1198 13.3751 29.2159 14.3702L29.5274 17.599L33.1361 17.251L32.8247 14.0223C32.7782 13.54 32.547 13.1053 32.1734 12.7973C31.8456 12.5272 31.4428 12.3831 31.0236 12.3831Z" fill="#025BDE"/>
<path d="M5.7351 22.9554C5.39838 22.9554 5.0805 22.7521 4.95066 22.4198L3.05778 17.5805C2.97654 17.3723 2.9811 17.1407 3.07062 16.9362C3.16014 16.7315 3.32718 16.5708 3.53502 16.4895L23.1737 8.80787C23.3825 8.72663 23.6141 8.73095 23.818 8.82071C24.0227 8.91023 24.1834 9.07727 24.2647 9.28547L26.1575 14.1252C26.327 14.558 26.1131 15.0465 25.6803 15.216L18.8242 17.8976C18.6159 17.9785 18.3844 17.9743 18.1796 17.8848C17.9749 17.7953 17.8144 17.6279 17.7332 17.42L17.6147 17.1171L13.2566 18.822L13.375 19.1245C13.4563 19.3328 13.4517 19.5643 13.3622 19.7689C13.2727 19.9735 13.1056 20.1343 12.8977 20.2155L6.04158 22.8972C5.94078 22.9367 5.8371 22.9554 5.7351 22.9554ZM4.9329 17.7511L6.21234 21.0219L11.4998 18.9536L11.3813 18.651C11.3001 18.4428 11.3047 18.2112 11.3942 18.0067C11.4837 17.802 11.6506 17.6412 11.8586 17.5601L17.7855 15.2418C17.9941 15.1605 18.2257 15.1652 18.4301 15.2546C18.6347 15.3441 18.7953 15.5115 18.8764 15.7194L18.9949 16.0223L24.2823 13.9539L23.0027 10.6829L4.9329 17.7511Z" fill="#025BDE"/>
<path d="M8.50844 21.8714C8.39336 21.8714 8.27828 21.8477 8.171 21.8007C7.9664 21.7112 7.8056 21.5441 7.72436 21.3359L5.83148 16.4961C5.66216 16.0633 5.87588 15.5749 6.30908 15.4054L20.407 9.89142C20.6149 9.80982 20.8472 9.81474 21.0511 9.90426C21.2557 9.99378 21.4165 10.1608 21.4977 10.369L23.3904 15.2085C23.5597 15.6413 23.346 16.1297 22.9131 16.2992L18.8276 17.8973C18.62 17.9782 18.3878 17.974 18.183 17.8845C17.9782 17.795 17.8178 17.6276 17.7366 17.4197L17.6181 17.1169L13.26 18.8217L13.3784 19.1242C13.4596 19.3325 13.4551 19.564 13.3656 19.7686C13.276 19.9732 13.109 20.134 12.901 20.2153L8.81552 21.8134C8.71676 21.8521 8.61236 21.8714 8.50844 21.8714ZM7.7066 16.6672L8.98604 19.9383L11.503 18.9538L11.3846 18.6508C11.3034 18.4426 11.3079 18.211 11.3974 18.0065C11.487 17.8018 11.6539 17.641 11.8618 17.5599L17.7888 15.2416C17.9973 15.1604 18.2289 15.1651 18.4334 15.2545C18.638 15.344 18.7986 15.5114 18.8797 15.7192L18.9981 16.0221L21.5154 15.0374L20.2358 11.7667L7.7066 16.6672Z" fill="#025BDE"/>
<path d="M5.66368 17.4021C5.5486 17.4021 5.43352 17.3785 5.32624 17.3314C5.12164 17.2419 4.96084 17.0749 4.8796 16.8667L4.35496 15.5253C3.93424 14.4504 4.4668 13.2333 5.54212 12.8124L19.2016 7.46959C19.7222 7.26571 20.2916 7.27759 20.8044 7.50151C21.3166 7.72579 21.7109 8.13619 21.9149 8.65699L22.4396 9.99871C22.6089 10.4316 22.3952 10.9201 21.962 11.0894L5.97052 17.3443C5.87152 17.3828 5.7676 17.4021 5.66368 17.4021ZM19.964 9.00967C19.9143 9.00967 19.8639 9.01891 19.8152 9.03787L6.1558 14.3806C5.9452 14.4632 5.84104 14.7014 5.92324 14.9118L6.14128 15.469L20.5642 9.82771L20.3465 9.27055C20.2829 9.10903 20.128 9.00967 19.964 9.00967Z" fill="#025BDE"/>
<path d="M14.0074 23.9033C13.6707 23.9033 13.3528 23.7 13.223 23.3679L11.3781 18.651C11.2969 18.4428 11.3014 18.2112 11.3909 18.0067C11.4805 17.802 11.6474 17.6412 11.8553 17.5601L17.7823 15.2418C17.9908 15.1606 18.2224 15.1653 18.4265 15.2547C18.6313 15.3442 18.7921 15.5112 18.8732 15.7194L20.7181 20.4365C20.7993 20.6443 20.7947 20.8763 20.7052 21.0809C20.6157 21.2851 20.4488 21.4459 20.2405 21.5272L14.3137 23.8451C14.213 23.8845 14.1094 23.9033 14.0074 23.9033ZM13.2532 18.8217L14.4848 21.9697L18.8429 20.2653L17.6114 17.1168L13.2532 18.8217Z" fill="#025BDE"/>
<path d="M34.1062 29.1659H30.6636C30.2297 29.1659 29.8669 28.8362 29.8255 28.4047L28.8711 18.5084C28.8497 18.2861 28.9174 18.0644 29.0592 17.8921C29.2013 17.7197 29.4059 17.6108 29.6283 17.5895L33.0393 17.2605C33.5037 17.2175 33.9138 17.555 33.9582 18.0177L34.9443 28.2429C34.9669 28.4795 34.8891 28.7143 34.7296 28.89C34.5699 29.0655 34.3435 29.1659 34.1062 29.1659ZM31.4284 27.4818H33.1788L32.3628 19.0176L30.6281 19.1847L31.4284 27.4818Z" fill="#025BDE"/>
<path d="M44.592 29.1657H39.5295C39.2631 29.1657 39.0122 29.0393 38.8533 28.8256C38.6944 28.6114 38.6464 28.3348 38.7236 28.0796L40.0867 23.5779C40.1515 23.3642 40.2982 23.1848 40.4953 23.0795C40.6923 22.9739 40.9228 22.9516 41.1367 23.0161L45.7738 24.4202C46.2188 24.5551 46.4704 25.0251 46.3356 25.4701L45.3978 28.5675C45.2904 28.9229 44.963 29.1657 44.592 29.1657ZM40.6644 27.4816H43.9671L44.4799 25.7881L41.4544 24.872L40.6644 27.4816Z" fill="#025BDE"/>
<path d="M20.9975 29.1657H17.9652C17.6185 29.1657 17.3074 28.9532 17.181 28.6305L14.8703 22.723C14.789 22.5148 14.7936 22.2828 14.8831 22.0784C14.9726 21.8739 15.1397 21.7132 15.3479 21.632L17.9783 20.6034C18.4111 20.4341 18.8996 20.6479 19.069 21.0811L21.7816 28.017C21.8828 28.2759 21.8497 28.5687 21.6928 28.7981C21.5359 29.0282 21.2758 29.1657 20.9975 29.1657ZM18.5401 27.4816H19.764L17.8073 22.4784L16.7455 22.8939L18.5401 27.4816Z" fill="#025BDE"/>
</svg>
