<svg width="60" height="61" viewBox="0 0 60 61" fill="none" xmlns="http://www.w3.org/2000/svg">
<path d="M26.768 57.4675C17.0194 57.4675 9.08789 49.536 9.08789 39.7874C9.83861 22.2336 25.448 4.50757 26.1124 3.76165C26.2791 3.57445 26.5177 3.46753 26.768 3.46753C27.0182 3.46753 27.2567 3.57445 27.4234 3.76165C27.4926 3.83905 34.3862 11.6398 39.3379 21.7934C39.5505 22.2288 39.3694 22.7548 38.934 22.9666C38.5 23.1812 37.9727 22.9981 37.7609 22.5628C33.8054 14.4536 28.5856 7.87753 26.7686 5.69857C23.7689 9.30169 11.4801 24.9316 10.8424 39.8251C10.8431 48.5685 17.9869 55.7122 26.768 55.7122C29.6531 55.7122 32.4807 54.9306 34.9456 53.4522C35.3606 53.204 35.9008 53.3377 36.1497 53.7539C36.3986 54.1694 36.2642 54.7084 35.848 54.958C33.1115 56.5994 29.9713 57.4675 26.768 57.4675Z" fill="#025BDE"/>
<path d="M40.6182 56.6647C34.9417 56.6647 30.3232 52.0462 30.3232 46.3698C30.7503 36.3786 39.587 26.3442 39.9627 25.9219C40.2958 25.5475 40.9404 25.5475 41.2737 25.9219C41.3965 26.0597 44.3042 29.346 46.9172 34.0235C47.1537 34.4465 47.0022 34.9813 46.5792 35.2171C46.1568 35.455 45.6213 35.3021 45.3855 34.8791C43.5939 31.673 41.6179 29.0984 40.6189 27.8705C38.5716 30.393 32.4117 38.6015 32.0779 46.4076C32.0785 51.079 35.9092 54.9096 40.6182 54.9096C45.3271 54.9096 49.1578 51.079 49.1578 46.3699C49.1414 46.0182 49.1113 45.6274 49.0668 45.2366C49.0118 44.7553 49.3581 44.3206 49.8402 44.2657C50.3133 44.2157 50.7562 44.5563 50.8111 45.0391C50.8598 45.4697 50.894 45.9017 50.9126 46.3315C50.9132 52.0462 46.2948 56.6647 40.6182 56.6647Z" fill="#025BDE"/>
<path d="M20.2801 49.3694C19.905 49.3694 19.5718 49.1314 19.4499 48.7769C18.8931 47.1533 17.6418 45.902 16.0181 45.3453C15.6636 45.2232 15.4258 44.89 15.4258 44.515C15.4258 44.1407 15.6636 43.8068 16.0181 43.6848C17.6424 43.1273 18.8931 41.8761 19.4499 40.2532C19.5719 39.898 19.9051 39.6602 20.2801 39.6602C20.6551 39.6602 20.9884 39.898 21.1104 40.2525C21.6678 41.8761 22.9192 43.1274 24.5427 43.6848C24.8971 43.8069 25.1351 44.1401 25.1351 44.515C25.1351 44.8901 24.8971 45.2234 24.5419 45.3453C22.9191 45.9021 21.6677 47.1527 21.1104 48.7769C20.9884 49.1314 20.6551 49.3694 20.2801 49.3694ZM18.2718 44.5149C19.0686 45.0449 19.7501 45.7265 20.2801 46.5232C20.8108 45.7258 21.4917 45.045 22.2891 44.5149C21.4917 43.9842 20.8108 43.3034 20.2801 42.506C19.7501 43.3034 19.0692 43.9841 18.2718 44.5149Z" fill="#025BDE"/>
<path d="M46.0583 46.4637C45.6833 46.4637 45.35 46.2258 45.2281 45.8713C44.6713 44.2477 43.42 42.9963 41.7964 42.4396C41.4419 42.3176 41.2041 41.9844 41.2041 41.6094C41.2041 41.235 41.4419 40.901 41.7964 40.7791C43.4207 40.2216 44.6714 38.9703 45.2281 37.3474C45.3501 36.9922 45.6833 36.7544 46.0583 36.7544C46.4333 36.7544 46.7666 36.9922 46.8886 37.3467C47.446 38.9703 48.6973 40.2217 50.3209 40.7791C50.6753 40.9011 50.9132 41.2344 50.9132 41.6094C50.9132 41.9844 50.6753 42.3176 50.3201 42.4396C48.6971 42.9963 47.4459 44.247 46.8886 45.8713C46.7666 46.2258 46.4333 46.4637 46.0583 46.4637ZM44.05 41.6094C44.8467 42.1394 45.5283 42.8209 46.0583 43.6176C46.589 42.8202 47.2699 42.1394 48.0673 41.6094C47.2699 41.0787 46.589 40.3977 46.0583 39.6003C45.5282 40.3977 44.8474 41.0786 44.05 41.6094Z" fill="#025BDE"/>
<path d="M27.4663 37.3287C27.0913 37.3287 26.7581 37.0909 26.636 36.7364C25.853 34.4566 24.0972 32.7001 21.818 31.9177C21.4635 31.7955 21.2256 31.4624 21.2256 31.0874C21.2256 30.7124 21.4635 30.379 21.818 30.2571C24.0971 29.4755 25.853 27.7189 26.636 25.4384C26.7582 25.0839 27.0913 24.8459 27.4663 24.8459C27.8413 24.8459 28.1747 25.0839 28.2966 25.4384C29.0796 27.7189 30.8355 29.4747 33.1153 30.2571C33.4698 30.3791 33.7077 30.7124 33.7077 31.0874C33.7077 31.4625 33.4698 31.7956 33.1153 31.9177C30.8357 32.7007 29.0797 34.4565 28.2966 36.7364C28.1747 37.0907 27.8414 37.3287 27.4663 37.3287ZM24.1829 31.0873C25.5362 31.8929 26.6615 33.0173 27.4664 34.3714C28.2714 33.0173 29.3965 31.8928 30.75 31.0873C29.3958 30.2823 28.2714 29.1579 27.4664 27.8037C26.6613 29.1579 25.5362 30.2823 24.1829 31.0873Z" fill="#025BDE"/>
</svg>
