<svg width="58" height="58" viewBox="0 0 58 58" fill="none" xmlns="http://www.w3.org/2000/svg">
<path d="M11.3589 42.7746C8.94219 40.1163 7.49219 37.2163 7.49219 32.383C7.49219 23.9246 13.5339 16.433 21.9922 12.5663L24.1672 15.708C16.1922 20.058 14.5005 25.6163 14.0172 29.2413C15.2255 28.5163 16.9172 28.2746 18.6089 28.5163C22.9589 28.9996 26.3422 32.383 26.3422 36.9746C26.3422 39.1496 25.3755 41.3246 23.9255 43.0163C22.2339 44.708 20.3005 45.4329 17.8839 45.4329C15.2255 45.4329 12.8089 44.2246 11.3589 42.7746ZM35.5255 42.7746C33.1089 40.1163 31.6589 37.2163 31.6589 32.383C31.6589 23.9246 37.7005 16.433 46.1589 12.5663L48.3339 15.708C40.3589 20.058 38.6672 25.6163 38.1839 29.2413C39.3922 28.5163 41.0839 28.2746 42.7755 28.5163C47.1255 28.9996 50.5089 32.383 50.5089 36.9746C50.5089 39.1496 49.5422 41.3246 48.0922 43.0163C46.6422 44.708 44.4672 45.4329 42.0505 45.4329C39.3922 45.4329 36.9755 44.2246 35.5255 42.7746Z" fill="white"/>
</svg>
