<svg width="34" height="35" viewBox="0 0 34 35" fill="none" xmlns="http://www.w3.org/2000/svg">
<path d="M31.0117 5.73184H2.98828C1.34393 5.73184 0 7.06986 0 8.72012V26.6498C0 28.3007 1.34479 29.6381 2.98828 29.6381H31.0117C32.6561 29.6381 34 28.3001 34 26.6498V8.72012C34 7.06946 32.6554 5.73184 31.0117 5.73184ZM30.5529 7.72403C29.5867 8.69336 18.2381 20.0789 17.7719 20.5467C17.3825 20.9373 16.6177 20.9375 16.2281 20.5467L3.44715 7.72403H30.5529ZM1.99219 26.2836V9.08635L10.5629 17.685L1.99219 26.2836ZM3.44715 27.6459L11.9693 19.096L14.8172 21.9531C15.9842 23.1239 18.0163 23.1234 19.1829 21.9531L22.0307 19.096L30.5529 27.6459H3.44715ZM32.0078 26.2836L23.4371 17.685L32.0078 9.08635V26.2836Z" fill="#025BDE"/>
</svg>
