<svg width="24" height="24" viewBox="0 0 24 24" fill="none" xmlns="http://www.w3.org/2000/svg">
<path d="M20.6318 15.8682C19.3792 14.6157 17.8883 13.6885 16.2617 13.1272C18.0039 11.9273 19.1484 9.91915 19.1484 7.64844C19.1484 3.9825 16.1659 1 12.5 1C8.83406 1 5.85156 3.9825 5.85156 7.64844C5.85156 9.91915 6.99613 11.9273 8.73833 13.1272C7.11171 13.6885 5.62084 14.6157 4.36829 15.8682C2.19622 18.0403 1 20.9282 1 24H2.79687C2.79687 18.6497 7.14967 14.2969 12.5 14.2969C17.8503 14.2969 22.2031 18.6497 22.2031 24H24C24 20.9282 22.8038 18.0403 20.6318 15.8682ZM12.5 12.5C9.82486 12.5 7.64844 10.3236 7.64844 7.64844C7.64844 4.97325 9.82486 2.79687 12.5 2.79687C15.1751 2.79687 17.3516 4.97325 17.3516 7.64844C17.3516 10.3236 15.1751 12.5 12.5 12.5Z" fill="white"/>
</svg>
