<svg width="41" height="41" viewBox="0 0 41 41" fill="none" xmlns="http://www.w3.org/2000/svg">
<path d="M12.9391 31.6425C12.7867 31.6425 12.6354 31.5837 12.5211 31.4694L9.37041 28.3185C9.16793 28.1161 9.13977 27.7977 9.30321 27.5629L11.2356 24.7889C11.3358 24.6452 11.4942 24.5533 11.6685 24.5379C11.8421 24.5229 12.015 24.5853 12.1385 24.7087L16.1311 28.7013C16.2549 28.8251 16.3175 28.9971 16.3019 29.1714C16.2865 29.3457 16.1946 29.5043 16.051 29.6043L13.2767 31.5366C13.1744 31.6077 13.0564 31.6425 12.9391 31.6425ZM10.5559 27.8325L13.007 30.2838L14.796 29.0376L11.8019 26.0437L10.5559 27.8325Z" fill="white"/>
<path d="M3.31952 36.3304C3.16832 36.3304 3.01712 36.2728 2.90168 36.1572C2.6708 35.9264 2.6708 35.5524 2.90168 35.3216L10.0555 28.1677C10.2864 27.9368 10.6604 27.9368 10.8913 28.1677L12.6719 29.9484C12.9028 30.1792 12.9028 30.5532 12.6719 30.7841L8.044 35.4123C7.8132 35.6432 7.43912 35.6432 7.20832 35.4123C6.97744 35.1816 6.97744 34.8074 7.20832 34.5765L11.4184 30.3662L10.4735 29.4213L3.73752 36.1572C3.622 36.2728 3.47072 36.3304 3.31952 36.3304Z" fill="white"/>
<path d="M17.8431 31.8399C17.6863 31.8399 17.5361 31.7776 17.4253 31.6668L9.1731 23.4147C8.9423 23.1838 8.9423 22.8098 9.1731 22.5789L11.8087 19.9433C12.0396 19.7125 12.4136 19.7125 12.6445 19.9433L20.8965 28.1952C21.1274 28.4258 21.1274 28.8001 20.8965 29.0309L18.2609 31.6667C18.1501 31.7776 17.9999 31.8399 17.8431 31.8399ZM10.4267 22.9968L17.8431 30.4132L19.6429 28.6131L12.2265 21.197L10.4267 22.9968Z" fill="white"/>
<path d="M18.8133 27.5384C18.6606 27.5384 18.5094 27.4796 18.3951 27.3652L13.4749 22.4448C13.2737 22.2437 13.2445 21.9281 13.4049 21.6933L21.9693 9.16309C22.0901 8.98653 22.2939 8.88717 22.5105 8.90797C24.933 9.12805 27.2125 10.1943 28.929 11.9109C30.646 13.6276 31.7124 15.9071 31.9319 18.3297C31.951 18.543 31.8537 18.7501 31.6768 18.8708L19.1466 27.4353C19.0453 27.5045 18.9289 27.5384 18.8133 27.5384ZM14.6575 21.9556L18.8845 26.1828L30.7176 18.0948C30.4581 16.0754 29.5341 14.1873 28.0936 12.7465C26.6529 11.3061 24.7649 10.3822 22.7453 10.1227L14.6575 21.9556Z" fill="white"/>
<path d="M17.1747 25.8997C17.023 25.8997 16.8718 25.8417 16.7569 25.7265L15.1136 24.0834C14.8929 23.8629 14.8818 23.5086 15.0882 23.2747L26.3129 10.547C26.5045 10.33 26.8241 10.2843 27.0691 10.4364C27.7494 10.8608 28.3753 11.3569 28.9293 11.9105C29.4825 12.4639 29.9786 13.0898 30.4039 13.7711C30.5569 14.016 30.5101 14.336 30.2933 14.5272L17.5656 25.752C17.4536 25.8508 17.3142 25.8997 17.1747 25.8997ZM16.3417 23.6402L17.2001 24.4984L29.1259 13.9808C28.8147 13.5356 28.4686 13.122 28.0935 12.7465C27.7177 12.3709 27.3041 12.0251 26.8595 11.7144L16.3417 23.6402Z" fill="white"/>
<path d="M20.479 29.204C20.3255 29.204 20.1743 29.1445 20.0609 29.0309L11.8088 20.7791C11.629 20.5992 11.5844 20.3247 11.698 20.0973L16.6259 10.2264C16.6829 10.1119 16.7757 10.0188 16.8902 9.96156C20.9131 7.94884 25.7513 8.73284 28.929 11.9108C32.1069 15.0886 32.8903 19.9267 30.8782 23.9497C30.821 24.0642 30.7279 24.157 30.6134 24.214L20.7428 29.1416C20.6589 29.1837 20.5686 29.204 20.479 29.204ZM12.9456 20.2444L20.5956 27.8942L29.906 23.2461C31.5819 19.7146 30.8648 15.5184 28.0932 12.7465C25.3216 9.97548 21.1256 9.2586 17.5936 10.9337L12.9456 20.2444Z" fill="white"/>
<path d="M17.9371 10.6305C17.7192 10.6305 17.5095 10.5093 17.4066 10.3005C17.1407 9.76101 17.0059 9.18037 17.0059 8.57477C17.0059 6.41989 18.7588 4.66693 20.9135 4.66693C22.5424 4.66693 24.0161 5.69333 24.5803 7.22093C24.6935 7.52709 24.5369 7.86709 24.2308 7.98005C23.9256 8.09293 23.5847 7.93685 23.4717 7.63053C23.0781 6.56485 22.05 5.84893 20.9135 5.84893C19.4105 5.84893 18.1879 7.07181 18.1879 8.57477C18.1879 8.99773 18.2816 9.40245 18.4667 9.77781C18.6111 10.0706 18.4907 10.425 18.198 10.5693C18.114 10.6109 18.0249 10.6305 17.9371 10.6305Z" fill="white"/>
<path d="M31.6634 10.6302C30.1814 10.6302 28.9756 9.42446 28.9756 7.94246C28.9756 6.46046 30.1814 5.2547 31.6634 5.2547C33.1453 5.2547 34.3509 6.46046 34.3509 7.94246C34.3509 9.42446 33.1453 10.6302 31.6634 10.6302ZM31.6634 6.43678C30.8332 6.43678 30.1577 7.1123 30.1577 7.94246C30.1577 8.77262 30.8333 9.44814 31.6634 9.44814C32.4937 9.44814 33.1689 8.77262 33.1689 7.94246C33.1689 7.11222 32.4936 6.43678 31.6634 6.43678Z" fill="white"/>
<path d="M35.7893 18.4693C34.1688 18.4693 32.8506 17.1508 32.8506 15.5303C32.8506 13.9098 34.1688 12.5913 35.7893 12.5913C37.4097 12.5913 38.7283 13.9098 38.7283 15.5303C38.7283 17.1508 37.4097 18.4693 35.7893 18.4693ZM35.7893 13.7734C34.8205 13.7734 34.0326 14.5617 34.0326 15.5303C34.0326 16.499 34.8205 17.2872 35.7893 17.2872C36.758 17.2872 37.5462 16.499 37.5462 15.5303C37.5462 14.5617 36.758 13.7734 35.7893 13.7734Z" fill="white"/>
<path d="M30.4647 27.7961C29.8 27.7961 29.1587 27.6001 28.6099 27.2293C28.3393 27.0467 28.2682 26.6792 28.4511 26.4088C28.6339 26.1384 29.0012 26.067 29.2716 26.2499C29.6241 26.4882 30.0367 26.614 30.4647 26.614C31.6419 26.614 32.5995 25.6563 32.5995 24.4794C32.5995 24.0796 32.4884 23.6898 32.2781 23.3525C32.1056 23.0754 32.1901 22.7109 32.4672 22.5382C32.7435 22.366 33.1088 22.4498 33.2815 22.7273C33.6086 23.2525 33.7815 23.8584 33.7815 24.4794C33.7815 26.3081 32.2936 27.7961 30.4647 27.7961Z" fill="white"/>
</svg>
