<svg width="20" height="21" viewBox="0 0 20 21" fill="none" xmlns="http://www.w3.org/2000/svg">
<path d="M19.1564 9.72812L16.4246 8.94747C15.1944 8.60065 14.0738 7.94393 13.1701 7.04015C12.2663 6.13636 11.6096 5.01577 11.2627 3.78558L10.4821 1.05381C10.4428 0.958237 10.376 0.87649 10.2902 0.81896C10.2044 0.76143 10.1034 0.730713 10.0001 0.730713C9.89674 0.730713 9.79575 0.76143 9.70992 0.81896C9.62409 0.87649 9.55731 0.958237 9.51805 1.05381L8.7374 3.78558C8.39058 5.01577 7.73385 6.13636 6.83007 7.04015C5.92629 7.94393 4.80569 8.60065 3.5755 8.94747L0.843736 9.72812C0.738846 9.75789 0.646529 9.82107 0.580793 9.90806C0.515058 9.99505 0.479492 10.1011 0.479492 10.2101C0.479492 10.3192 0.515058 10.4252 0.580793 10.5122C0.646529 10.5992 0.738846 10.6624 0.843736 10.6922L3.5755 11.4728C4.80569 11.8196 5.92629 12.4764 6.83007 13.3801C7.73385 14.2839 8.39058 15.4045 8.7374 16.6347L9.51805 19.3665C9.54782 19.4714 9.61099 19.5637 9.69798 19.6294C9.78497 19.6951 9.89103 19.7307 10.0001 19.7307C10.1091 19.7307 10.2152 19.6951 10.3021 19.6294C10.3891 19.5637 10.4523 19.4714 10.4821 19.3665L11.2627 16.6347C11.6096 15.4045 12.2663 14.2839 13.1701 13.3801C14.0738 12.4764 15.1944 11.8196 16.4246 11.4728L19.1564 10.6922C19.2613 10.6624 19.3536 10.5992 19.4193 10.5122C19.4851 10.4252 19.5206 10.3192 19.5206 10.2101C19.5206 10.1011 19.4851 9.99505 19.4193 9.90806C19.3536 9.82107 19.2613 9.75789 19.1564 9.72812Z" fill="#025BDE"/>
</svg>
