<svg width="60" height="60" viewBox="0 0 60 60" fill="none" xmlns="http://www.w3.org/2000/svg">
<path d="M28.7683 29.4181C28.2716 29.4181 27.8691 29.0155 27.8691 28.519V13.5449C27.8691 11.5421 29.4986 9.91296 31.5015 9.91296C33.5045 9.91296 35.1339 11.5421 35.1339 13.5449V27.4554C35.1339 27.9521 34.7313 28.3546 34.2348 28.3546C33.7381 28.3546 33.3356 27.952 33.3356 27.4554V13.5449C33.3356 12.534 32.513 11.7114 31.5017 11.7114C30.4904 11.7114 29.6677 12.534 29.6677 13.5449V28.519C29.6675 29.0156 29.2649 29.4181 28.7683 29.4181Z" fill="white"/>
<path d="M39.7009 28.3545C39.2042 28.3545 38.8017 27.9519 38.8017 27.4553V11.8047C38.8017 10.793 37.9791 9.97038 36.9677 9.97038C35.9569 9.97038 35.1343 10.793 35.1343 11.8047V27.4553C35.1343 27.952 34.7317 28.3545 34.2351 28.3545C33.7384 28.3545 33.3359 27.9519 33.3359 27.4553V11.8047C33.3359 9.80178 34.9654 8.17194 36.9679 8.17194C38.9708 8.17194 40.6003 9.80178 40.6003 11.8047V27.4553C40.6003 27.952 40.1977 28.3545 39.7009 28.3545Z" fill="white"/>
<path d="M45.1662 32.2705C44.6695 32.2705 44.267 31.8679 44.267 31.3712V13.5448C44.267 12.5339 43.4444 11.7113 42.4331 11.7113C41.4218 11.7113 40.5992 12.5339 40.5992 13.5448V27.4553C40.5992 27.952 40.1966 28.3545 39.6999 28.3545C39.2033 28.3545 38.8008 27.9519 38.8008 27.4553V13.5448C38.8008 11.542 40.4304 9.9129 42.4332 9.9129C44.4361 9.9129 46.0656 11.542 46.0656 13.5448V31.3711C46.0655 31.8679 45.6629 32.2705 45.1662 32.2705Z" fill="white"/>
<path d="M44.4135 49.275H23.3015C22.8048 49.275 22.4023 48.8724 22.4023 48.3757V16.1106C22.4023 14.1077 24.0318 12.4778 26.0347 12.4778C28.0377 12.4778 29.6671 14.1077 29.6671 16.1106V28.5191C29.6671 29.0158 29.2645 29.4182 28.768 29.4182C28.2713 29.4182 27.8688 29.0156 27.8688 28.5191V16.1106C27.8688 15.0989 27.0462 14.2764 26.0349 14.2764C25.0236 14.2764 24.2009 15.099 24.2009 16.1106V47.4764H43.5144V46.1712C43.5144 45.9842 43.5727 45.8016 43.6813 45.6492L54.7301 30.1498C55.4466 29.1445 55.3329 27.7814 54.4603 26.909C53.5091 25.9578 51.8519 25.9578 50.9007 26.909L41.0767 36.733C40.7255 37.0842 40.1565 37.0842 39.8051 36.733C39.454 36.3817 39.454 35.8127 39.8051 35.4614L49.629 25.6375C50.4439 24.8227 51.5275 24.3738 52.6804 24.3738C53.8332 24.3738 54.9168 24.8227 55.7317 25.6375C57.2281 27.1339 57.4227 29.4704 56.1948 31.1936L45.3129 46.4593V48.3757C45.3127 48.8724 44.9101 49.275 44.4135 49.275Z" fill="white"/>
<path d="M27.5789 42.365C27.3489 42.365 27.1184 42.2771 26.9428 42.1014C26.5919 41.7502 26.5919 41.1812 26.9432 40.8298L28.7816 38.992C29.1328 38.6408 29.7023 38.6408 30.0534 38.992C30.4044 39.3432 30.4044 39.9123 30.0531 40.2636L28.2146 42.1014C28.039 42.2771 27.809 42.365 27.5789 42.365Z" fill="white"/>
<path d="M29.4174 42.365C29.1873 42.365 28.9572 42.2771 28.7816 42.1014L26.9432 40.2636C26.5919 39.9124 26.5919 39.3434 26.9428 38.992C27.294 38.6408 27.8636 38.6408 28.2147 38.992L30.0532 40.8298C30.4044 41.181 30.4044 41.7501 30.0536 42.1014C29.8779 42.2771 29.6475 42.365 29.4174 42.365Z" fill="white"/>
<path d="M44.8985 53.2384H22.8185C21.2297 53.2384 19.9375 51.9458 19.9375 50.3575C19.9375 48.769 21.2298 47.4764 22.8185 47.4764H44.8985C46.4873 47.4764 47.7794 48.769 47.7794 50.3575C47.7794 51.9458 46.4871 53.2384 44.8985 53.2384ZM22.8185 49.2749C22.2217 49.2749 21.7359 49.7603 21.7359 50.3575C21.7359 50.9546 22.2217 51.44 22.8185 51.44H44.8985C45.4952 51.44 45.9811 50.9546 45.9811 50.3575C45.9811 49.7602 45.4953 49.2749 44.8985 49.2749H22.8185Z" fill="white"/>
<path d="M33.2182 46.0601H23.3015C22.8048 46.0601 22.4023 45.6575 22.4023 45.1609C22.4023 44.6643 22.8049 44.2618 23.3015 44.2618H33.2182C33.7149 44.2618 34.1173 44.6644 34.1173 45.1609C34.1175 45.6575 33.7149 46.0601 33.2182 46.0601Z" fill="white"/>
<path d="M14.903 30.9469C14.5824 30.9469 14.2718 30.7748 14.1096 30.472L7.03942 17.2724C6.58138 16.4176 6.48382 15.4346 6.76474 14.5058C7.0453 13.5772 7.67122 12.8135 8.52658 12.3563C9.38194 11.8975 10.3646 11.8 11.2927 12.0808C12.2215 12.3618 12.9851 12.9871 13.4435 13.8427L20.0117 26.1052C20.246 26.5428 20.0813 27.088 19.6435 27.322C19.2048 27.5558 18.6607 27.3922 18.426 26.9539L11.858 14.6915C11.6269 14.2601 11.2413 13.944 10.7723 13.802C10.3034 13.6608 9.8071 13.71 9.37569 13.9411C8.94369 14.1722 8.62786 14.5578 8.48626 15.0271C8.3443 15.4957 8.3935 15.9917 8.6251 16.4237L15.6951 29.6233C15.9295 30.061 15.7646 30.6061 15.3271 30.8401C15.1917 30.9124 15.0464 30.9469 14.903 30.9469Z" fill="white"/>
<path d="M19.2187 27.4286C18.8981 27.4286 18.5875 27.2566 18.4251 26.9538L11.0351 13.1572C10.0899 11.3924 10.7565 9.18661 12.522 8.24089C13.3777 7.78285 14.3604 7.68445 15.2885 7.96549C16.2173 8.24653 16.9809 8.87185 17.4392 9.72745L19.1301 12.8845C19.3645 13.3222 19.1997 13.8673 18.762 14.1013C18.3236 14.3352 17.7792 14.1708 17.5445 13.7332L15.8537 10.5761C15.6224 10.1448 15.2369 9.82861 14.7679 9.68665C14.2986 9.54553 13.8024 9.59389 13.3713 9.82573C12.4803 10.3034 12.1434 11.4169 12.6207 12.3084L20.0108 26.1052C20.2452 26.5428 20.0804 27.088 19.6427 27.322C19.5074 27.3943 19.362 27.4286 19.2187 27.4286Z" fill="white"/>
<path d="M20.3131 17.8949C19.9924 17.8949 19.6819 17.7227 19.5195 17.4199L16.6758 12.1103C15.7305 10.3456 16.3971 8.13974 18.1626 7.19414C19.0183 6.73598 20.0011 6.6377 20.9292 6.91862C21.8578 7.19966 22.6215 7.82498 23.0799 8.68058L23.951 10.3075C24.1852 10.7453 24.0205 11.2903 23.5825 11.5243C23.1448 11.7576 22.5997 11.5939 22.3654 11.1562L21.4944 9.52922C21.2632 9.09782 20.8776 8.78174 20.4086 8.63978C19.9393 8.49854 19.4437 8.54702 19.012 8.77886C18.1209 9.25646 17.784 10.3699 18.2613 11.2614L21.1052 16.5711C21.3396 17.0087 21.1748 17.554 20.737 17.7879C20.6018 17.8605 20.4564 17.8949 20.3131 17.8949Z" fill="white"/>
<path d="M18.3389 48.9383C18.0183 48.9383 17.7077 48.7662 17.5454 48.4633L3.43229 22.1148C2.97425 21.2599 2.87621 20.2777 3.15725 19.349C3.43829 18.4196 4.06385 17.656 4.91957 17.1979C5.77421 16.7399 6.75629 16.6423 7.68569 16.9232C8.61413 17.2042 9.37769 17.8295 9.83609 18.6851L15.695 29.6232C15.9293 30.0608 15.7645 30.606 15.3269 30.84C14.8889 31.0732 14.3438 30.9096 14.1095 30.4718L8.25053 19.5337C8.01941 19.1023 7.63373 18.7862 7.16513 18.6443C6.69485 18.503 6.19997 18.5521 5.76857 18.7834C5.33657 19.0152 5.02037 19.4 4.87889 19.8688C4.73693 20.338 4.78649 20.8339 5.01761 21.2653L19.1311 47.6148C19.3654 48.0524 19.2007 48.5976 18.7629 48.8316C18.6278 48.9038 18.4822 48.9383 18.3389 48.9383Z" fill="white"/>
</svg>
