<svg width="60" height="61" viewBox="0 0 60 61" fill="none" xmlns="http://www.w3.org/2000/svg">
<path d="M18.3159 47.003C18.0873 47.003 17.8603 46.9147 17.6888 46.7433L12.9628 42.017C12.6591 41.7133 12.6169 41.2358 12.862 40.8836L15.7606 36.7225C15.9109 36.507 16.1485 36.3692 16.41 36.3461C16.6704 36.3236 16.9297 36.4171 17.115 36.6023L23.1039 42.5912C23.2896 42.7769 23.3834 43.0349 23.3601 43.2963C23.337 43.5577 23.1991 43.7957 22.9837 43.9457L18.8222 46.8441C18.6688 46.9507 18.4918 47.003 18.3159 47.003ZM14.7411 41.288L18.4177 44.9649L21.1012 43.0956L16.6101 38.6048L14.7411 41.288Z" fill="#025BDE"/>
<path d="M3.8865 54.0351C3.6597 54.0351 3.4329 53.9485 3.25974 53.7753C2.91342 53.4291 2.91342 52.8681 3.25974 52.5218L13.9905 41.791C14.3368 41.4447 14.8978 41.4447 15.2441 41.791L17.9151 44.4619C18.2614 44.8083 18.2614 45.3693 17.9151 45.7156L10.9732 52.6578C10.627 53.0042 10.0659 53.0042 9.7197 52.6578C9.37338 52.3118 9.37338 51.7505 9.7197 51.4042L16.0348 45.0887L14.6175 43.6714L4.5135 53.7753C4.34022 53.9485 4.1133 54.0351 3.8865 54.0351Z" fill="#025BDE"/>
<path d="M25.6719 47.2989C25.4367 47.2989 25.2113 47.2054 25.0451 47.0392L12.6669 34.6611C12.3207 34.3148 12.3207 33.7538 12.6669 33.4075L16.6203 29.4541C16.9666 29.1078 17.5276 29.1078 17.8739 29.4541L30.252 41.8318C30.5984 42.1778 30.5984 42.7392 30.252 43.0855L26.2986 47.0391C26.1324 47.2054 25.9071 47.2989 25.6719 47.2989ZM14.5473 34.0342L25.6719 45.1588L28.3715 42.4587L17.247 31.3346L14.5473 34.0342Z" fill="#025BDE"/>
<path d="M27.1266 40.8467C26.8977 40.8467 26.6709 40.7585 26.4994 40.5869L19.119 33.2063C18.8174 32.9046 18.7734 32.4313 19.0142 32.0791L31.8608 13.2837C32.0418 13.0189 32.3476 12.8699 32.6726 12.9011C36.3063 13.2312 39.7256 14.8305 42.3003 17.4054C44.8757 19.9805 46.4753 23.3997 46.8046 27.0336C46.8333 27.3536 46.6872 27.6642 46.4219 27.8453L27.6267 40.692C27.4746 40.7958 27.3002 40.8467 27.1266 40.8467ZM20.893 32.4725L27.2334 38.8133L44.9831 26.6813C44.5938 23.6522 43.208 20.8201 41.0471 18.6588C38.8862 16.4982 36.0542 15.1124 33.0248 14.7231L20.893 32.4725Z" fill="#025BDE"/>
<path d="M24.6688 38.389C24.4413 38.389 24.2145 38.302 24.042 38.1292L21.5771 35.6645C21.246 35.3338 21.2295 34.8023 21.5391 34.4514L38.3761 15.3599C38.6635 15.0343 39.1429 14.9658 39.5104 15.1941C40.5309 15.8305 41.4696 16.5748 42.3007 17.4052C43.1305 18.2352 43.8747 19.1741 44.5126 20.196C44.7421 20.5635 44.6719 21.0435 44.3467 21.3303L25.2551 38.1673C25.0872 38.3155 24.8781 38.389 24.6688 38.389ZM23.4193 34.9997L24.7068 36.2869L42.5956 20.5105C42.1288 19.8429 41.6097 19.2223 41.047 18.6592C40.4832 18.0958 39.8629 17.577 39.196 17.1109L23.4193 34.9997Z" fill="#025BDE"/>
<path d="M29.6252 43.3453C29.395 43.3453 29.1682 43.2561 28.9981 43.0857L16.62 30.7079C16.3502 30.438 16.2834 30.0263 16.4538 29.6853L23.8456 14.8788C23.9311 14.7071 24.0703 14.5675 24.242 14.4816C30.2764 11.4625 37.5337 12.6385 42.3002 17.4054C47.0671 22.1722 48.2422 29.4293 45.224 35.4639C45.1382 35.6356 44.9986 35.7748 44.8268 35.8603L30.0209 43.2517C29.8951 43.3149 29.7596 43.3453 29.6252 43.3453ZM18.3252 29.9058L29.8002 41.3806L43.7658 34.4085C46.2796 29.1112 45.2039 22.8168 41.0466 18.6591C36.8892 14.5025 30.5952 13.4272 25.2972 15.9399L18.3252 29.9058Z" fill="#025BDE"/>
<path d="M25.8129 15.4848C25.4861 15.4848 25.1715 15.303 25.0171 14.99C24.6182 14.1807 24.416 13.3097 24.416 12.4013C24.416 9.16899 27.0455 6.53955 30.2774 6.53955C32.7209 6.53955 34.9314 8.07915 35.7777 10.3706C35.9474 10.8298 35.7126 11.3398 35.2535 11.5092C34.7957 11.6786 34.2842 11.4444 34.1148 10.985C33.5244 9.38643 31.9823 8.31255 30.2774 8.31255C28.023 8.31255 26.189 10.1469 26.189 12.4013C26.189 13.0358 26.3297 13.6428 26.6073 14.2059C26.8238 14.6451 26.6433 15.1767 26.2043 15.393C26.0783 15.4554 25.9446 15.4848 25.8129 15.4848Z" fill="#025BDE"/>
<path d="M46.4019 15.4847C44.1789 15.4847 42.3701 13.676 42.3701 11.453C42.3701 9.23003 44.1789 7.42139 46.4019 7.42139C48.6248 7.42139 50.4332 9.23003 50.4332 11.453C50.4332 13.676 48.6246 15.4847 46.4019 15.4847ZM46.4019 9.19451C45.1565 9.19451 44.1434 10.2078 44.1434 11.453C44.1434 12.6983 45.1566 13.7115 46.4019 13.7115C47.6472 13.7115 48.66 12.6983 48.66 11.453C48.66 10.2077 47.6471 9.19451 46.4019 9.19451Z" fill="#025BDE"/>
<path d="M52.5917 27.2431C50.161 27.2431 48.1836 25.2654 48.1836 22.8347C48.1836 20.404 50.161 18.4263 52.5917 18.4263C55.0223 18.4263 57.0001 20.404 57.0001 22.8347C57.0001 25.2654 55.0223 27.2431 52.5917 27.2431ZM52.5917 20.1994C51.1385 20.1994 49.9566 21.3817 49.9566 22.8347C49.9566 24.2878 51.1385 25.47 52.5917 25.47C54.0448 25.47 55.227 24.2878 55.227 22.8347C55.227 21.3817 54.0448 20.1994 52.5917 20.1994Z" fill="#025BDE"/>
<path d="M44.6042 41.2333C43.6073 41.2333 42.6452 40.9393 41.822 40.3831C41.4162 40.1093 41.3095 39.558 41.5838 39.1524C41.8582 38.7468 42.4091 38.6397 42.8146 38.9141C43.3434 39.2715 43.9622 39.4602 44.6042 39.4602C46.37 39.4602 47.8064 38.0237 47.8064 36.2583C47.8064 35.6586 47.6399 35.0739 47.3244 34.568C47.0657 34.1523 47.1924 33.6056 47.6081 33.3465C48.0226 33.0882 48.5705 33.2139 48.8294 33.6302C49.3201 34.418 49.5794 35.3268 49.5794 36.2583C49.5794 39.0013 47.3476 41.2333 44.6042 41.2333Z" fill="#025BDE"/>
</svg>
