<svg width="60" height="60" viewBox="0 0 60 60" fill="none" xmlns="http://www.w3.org/2000/svg">
<path d="M49.4716 8.2986H10.5277C10.0356 8.2986 9.63672 7.89972 9.63672 7.4076V3.891C9.63672 3.39876 10.0356 3 10.5277 3H49.4716C49.9637 3 50.3626 3.39876 50.3626 3.891V7.4076C50.3626 7.89972 49.9637 8.2986 49.4716 8.2986ZM11.4187 6.51648H48.5806V4.782H11.4187V6.51648Z" fill="white"/>
<path d="M49.4716 15.4195H10.5277C10.0356 15.4195 9.63672 15.0206 9.63672 14.5285V7.4076C9.63672 6.91536 10.0356 6.51648 10.5277 6.51648H49.4716C49.9637 6.51648 50.3626 6.91536 50.3626 7.4076V14.5285C50.3626 15.0206 49.9637 15.4195 49.4716 15.4195ZM11.4187 13.6375H48.5806V8.2986H11.4187V13.6375Z" fill="white"/>
<path d="M45.7357 15.4195H14.264C13.7718 15.4195 13.373 15.0206 13.373 14.5285V7.4076C13.373 6.91536 13.7718 6.51648 14.264 6.51648H45.7357C46.2278 6.51648 46.6267 6.91536 46.6267 7.4076V14.5285C46.6266 15.0206 46.2277 15.4195 45.7357 15.4195ZM15.155 13.6375H44.8447V8.2986H15.155V13.6375Z" fill="white"/>
<path d="M40.3722 15.4195H19.6254C19.1333 15.4195 18.7344 15.0206 18.7344 14.5285V11.2319C18.7344 10.7398 19.1333 10.3409 19.6254 10.3409H40.3722C40.8643 10.3409 41.2632 10.7398 41.2632 11.2319V14.5285C41.2632 15.0206 40.8643 15.4195 40.3722 15.4195ZM20.5164 13.6375H39.4812V12.1229H20.5164V13.6375Z" fill="white"/>
<path d="M35.8018 18.4962H24.1976C23.7055 18.4962 23.3066 18.0973 23.3066 17.6052V14.5285C23.3066 14.0364 23.7055 13.6375 24.1976 13.6375H35.8018C36.2939 13.6375 36.6928 14.0364 36.6928 14.5285V17.6052C36.6928 18.0973 36.2939 18.4962 35.8018 18.4962ZM25.0886 16.7142H34.9108V15.4195H25.0886V16.7142Z" fill="white"/>
<path d="M31.1036 37.8799H28.896C28.4181 37.8799 28.0251 37.5026 28.0057 37.0251L27.2195 17.6413C27.2097 17.399 27.2991 17.1631 27.467 16.9877C27.635 16.8129 27.8672 16.7141 28.1099 16.7141H31.89C32.1325 16.7141 32.3647 16.8128 32.5328 16.9877C32.7006 17.1631 32.79 17.399 32.7803 17.6413L31.9941 37.0251C31.9743 37.5026 31.5815 37.8799 31.1036 37.8799ZM29.7515 36.0979H30.2481L30.962 18.4961H29.0377L29.7515 36.0979Z" fill="white"/>
<path d="M31.8507 44.4295H28.1488C27.6567 44.4295 27.2578 44.0306 27.2578 43.5385V36.989C27.2578 36.4969 27.6567 36.098 28.1488 36.098H31.8507C32.3428 36.098 32.7417 36.4969 32.7417 36.989V43.5385C32.7417 44.0306 32.3428 44.4295 31.8507 44.4295ZM29.0398 42.6475H30.9597V37.8799H29.0398V42.6475Z" fill="white"/>
<path d="M31.6703 56.9999H28.3298C27.184 56.9999 26.252 56.0679 26.252 54.9227L27.0406 43.4771C27.073 43.0101 27.4614 42.6475 27.9296 42.6475H32.0709C32.539 42.6475 32.9274 43.0101 32.9597 43.4771L33.746 54.8615C33.7481 56.0679 32.816 56.9999 31.6703 56.9999ZM28.761 44.4295L28.0319 54.9841C28.034 55.0858 28.1666 55.2181 28.3298 55.2181H31.6703C31.8335 55.2181 31.9661 55.0858 31.9661 54.9229L31.2394 44.4295H28.761Z" fill="white"/>
<path d="M47.2855 23.6876C46.7933 23.6876 46.3945 23.2887 46.3945 22.7966V18.4009C46.3945 17.9086 46.7933 17.5098 47.2855 17.5098C47.7776 17.5098 48.1765 17.9086 48.1765 18.4009V22.7966C48.1765 23.2887 47.7776 23.6876 47.2855 23.6876Z" fill="white"/>
<path d="M19.2738 26.1488C18.7817 26.1488 18.3828 25.7501 18.3828 25.2578V19.1629C18.3828 18.6708 18.7817 18.2719 19.2738 18.2719C19.7659 18.2719 20.1648 18.6708 20.1648 19.1629V25.2578C20.1648 25.7501 19.7659 26.1488 19.2738 26.1488Z" fill="white"/>
<path d="M38.3793 27.7312C37.887 27.7312 37.4883 27.3323 37.4883 26.8402V22.7965C37.4883 22.3044 37.887 21.9055 38.3793 21.9055C38.8714 21.9055 39.2703 22.3044 39.2703 22.7965V26.8402C39.2703 27.3323 38.8714 27.7312 38.3793 27.7312Z" fill="white"/>
<path d="M14.264 29.7825C13.7718 29.7825 13.373 29.3837 13.373 28.8915V22.2106C13.373 21.7183 13.7718 21.3196 14.264 21.3196C14.7562 21.3196 15.155 21.7183 15.155 22.2106V28.8915C15.155 29.3837 14.7562 29.7825 14.264 29.7825Z" fill="white"/>
</svg>
