<svg width="24" height="24" viewBox="0 0 24 24" fill="none" xmlns="http://www.w3.org/2000/svg">
<g clip-path="url(#clip0_845_49)">
<path d="M5.71429 10.4286C8.31791 10.4286 10.4286 8.31791 10.4286 5.71429C10.4286 3.11066 8.31791 1 5.71429 1C3.11066 1 1 3.11066 1 5.71429C1 8.31791 3.11066 10.4286 5.71429 10.4286Z" stroke="white" stroke-width="1.5" stroke-linecap="round" stroke-linejoin="round"/>
<path d="M18.5717 10.4286C21.1753 10.4286 23.286 8.31791 23.286 5.71429C23.286 3.11066 21.1753 1 18.5717 1C15.9681 1 13.8574 3.11066 13.8574 5.71429C13.8574 8.31791 15.9681 10.4286 18.5717 10.4286Z" stroke="white" stroke-width="1.5" stroke-linecap="round" stroke-linejoin="round"/>
<path d="M5.71429 23.286C8.31791 23.286 10.4286 21.1753 10.4286 18.5717C10.4286 15.9681 8.31791 13.8574 5.71429 13.8574C3.11066 13.8574 1 15.9681 1 18.5717C1 21.1753 3.11066 23.286 5.71429 23.286Z" stroke="white" stroke-width="1.5" stroke-linecap="round" stroke-linejoin="round"/>
<path d="M18.5717 23.286C21.1753 23.286 23.286 21.1753 23.286 18.5717C23.286 15.9681 21.1753 13.8574 18.5717 13.8574C15.9681 13.8574 13.8574 15.9681 13.8574 18.5717C13.8574 21.1753 15.9681 23.286 18.5717 23.286Z" stroke="white" stroke-width="1.5" stroke-linecap="round" stroke-linejoin="round"/>
</g>
<defs>
<clipPath id="clip0_845_49">
<rect width="24" height="24" fill="white"/>
</clipPath>
</defs>
</svg>
