<svg width="60" height="61" viewBox="0 0 60 61" fill="none" xmlns="http://www.w3.org/2000/svg">
<path d="M28.7683 29.7393C28.2716 29.7393 27.8691 29.3367 27.8691 28.8401V13.8661C27.8691 11.8633 29.4986 10.2341 31.5015 10.2341C33.5045 10.2341 35.1339 11.8633 35.1339 13.8661V27.7766C35.1339 28.2733 34.7313 28.6757 34.2348 28.6757C33.7381 28.6757 33.3356 28.2731 33.3356 27.7766V13.8661C33.3356 12.8552 32.513 12.0326 31.5017 12.0326C30.4904 12.0326 29.6677 12.8552 29.6677 13.8661V28.8401C29.6675 29.3368 29.2649 29.7393 28.7683 29.7393Z" fill="#025BDE"/>
<path d="M39.6999 28.6757C39.2032 28.6757 38.8007 28.2731 38.8007 27.7766V12.1259C38.8007 11.1142 37.9781 10.2916 36.9668 10.2916C35.9559 10.2916 35.1333 11.1142 35.1333 12.1259V27.7766C35.1333 28.2732 34.7307 28.6757 34.2341 28.6757C33.7374 28.6757 33.335 28.2731 33.335 27.7766V12.1259C33.335 10.123 34.9644 8.49316 36.9669 8.49316C38.9698 8.49316 40.5993 10.123 40.5993 12.1259V27.7766C40.5993 28.2732 40.1967 28.6757 39.6999 28.6757Z" fill="#025BDE"/>
<path d="M45.1662 32.5917C44.6695 32.5917 44.267 32.1891 44.267 31.6924V13.8661C44.267 12.8552 43.4444 12.0326 42.4331 12.0326C41.4218 12.0326 40.5992 12.8552 40.5992 13.8661V27.7766C40.5992 28.2732 40.1966 28.6757 39.6999 28.6757C39.2033 28.6757 38.8008 28.2731 38.8008 27.7766V13.8661C38.8008 11.8633 40.4304 10.2341 42.4332 10.2341C44.4361 10.2341 46.0656 11.8633 46.0656 13.8661V31.6923C46.0655 32.1891 45.6629 32.5917 45.1662 32.5917Z" fill="#025BDE"/>
<path d="M44.4135 49.5962H23.3015C22.8048 49.5962 22.4023 49.1936 22.4023 48.697V16.4318C22.4023 14.4289 24.0318 12.7991 26.0347 12.7991C28.0377 12.7991 29.6671 14.4289 29.6671 16.4318V28.8403C29.6671 29.337 29.2645 29.7395 28.768 29.7395C28.2713 29.7395 27.8688 29.3369 27.8688 28.8403V16.4318C27.8688 15.4201 27.0462 14.5976 26.0349 14.5976C25.0236 14.5976 24.2009 15.4202 24.2009 16.4318V47.7977H43.5144V46.4924C43.5144 46.3055 43.5727 46.1228 43.6813 45.9704L54.7301 30.471C55.4466 29.4658 55.3329 28.1027 54.4603 27.2303C53.5091 26.279 51.8519 26.279 50.9007 27.2303L41.0767 37.0542C40.7255 37.4054 40.1565 37.4054 39.8051 37.0542C39.454 36.703 39.454 36.1339 39.8051 35.7827L49.629 25.9588C50.4439 25.144 51.5275 24.695 52.6804 24.695C53.8332 24.695 54.9168 25.144 55.7317 25.9588C57.2281 27.4552 57.4227 29.7917 56.1948 31.5149L45.3129 46.7806V48.697C45.3127 49.1936 44.9101 49.5962 44.4135 49.5962Z" fill="#025BDE"/>
<path d="M27.5789 42.6862C27.3489 42.6862 27.1184 42.5984 26.9428 42.4227C26.5919 42.0714 26.5919 41.5024 26.9432 41.151L28.7816 39.3132C29.1328 38.962 29.7023 38.962 30.0534 39.3132C30.4044 39.6645 30.4044 40.2335 30.0531 40.5849L28.2146 42.4227C28.039 42.5984 27.809 42.6862 27.5789 42.6862Z" fill="#025BDE"/>
<path d="M29.4174 42.6862C29.1873 42.6862 28.9572 42.5984 28.7816 42.4227L26.9432 40.5849C26.5919 40.2336 26.5919 39.6646 26.9428 39.3132C27.294 38.962 27.8636 38.962 28.2147 39.3132L30.0532 41.151C30.4044 41.5023 30.4044 42.0713 30.0536 42.4227C29.8779 42.5984 29.6475 42.6862 29.4174 42.6862Z" fill="#025BDE"/>
<path d="M44.8975 53.5597H22.8175C21.2287 53.5597 19.9365 52.267 19.9365 50.6787C19.9365 49.0902 21.2288 47.7976 22.8175 47.7976H44.8975C46.4863 47.7976 47.7784 49.0902 47.7784 50.6787C47.7784 52.267 46.4862 53.5597 44.8975 53.5597ZM22.8175 49.5962C22.2207 49.5962 21.735 50.0816 21.735 50.6787C21.735 51.2758 22.2207 51.7612 22.8175 51.7612H44.8975C45.4942 51.7612 45.9801 51.2758 45.9801 50.6787C45.9801 50.0814 45.4944 49.5962 44.8975 49.5962H22.8175Z" fill="#025BDE"/>
<path d="M33.2182 46.3813H23.3015C22.8048 46.3813 22.4023 45.9787 22.4023 45.4822C22.4023 44.9855 22.8049 44.583 23.3015 44.583H33.2182C33.7149 44.583 34.1173 44.9856 34.1173 45.4822C34.1175 45.9787 33.7149 46.3813 33.2182 46.3813Z" fill="#025BDE"/>
<path d="M14.903 31.2682C14.5824 31.2682 14.2718 31.0961 14.1096 30.7933L7.03942 17.5937C6.58138 16.7389 6.48382 15.7559 6.76474 14.8271C7.0453 13.8985 7.67122 13.1348 8.52658 12.6776C9.38194 12.2188 10.3646 12.1213 11.2927 12.4021C12.2215 12.6831 12.9851 13.3084 13.4435 14.164L20.0117 26.4265C20.246 26.8641 20.0813 27.4093 19.6435 27.6433C19.2048 27.8771 18.6607 27.7135 18.426 27.2752L11.858 15.0128C11.6269 14.5814 11.2413 14.2653 10.7723 14.1233C10.3034 13.9821 9.8071 14.0313 9.37569 14.2624C8.94369 14.4935 8.62786 14.8791 8.48626 15.3484C8.3443 15.817 8.3935 16.313 8.6251 16.745L15.6951 29.9446C15.9295 30.3823 15.7646 30.9274 15.3271 31.1614C15.1917 31.2337 15.0464 31.2682 14.903 31.2682Z" fill="#025BDE"/>
<path d="M19.2197 27.7499C18.899 27.7499 18.5885 27.5779 18.4261 27.2751L11.036 13.4785C10.0909 11.7137 10.7575 9.5079 12.523 8.56218C13.3787 8.10414 14.3614 8.00574 15.2894 8.28678C16.2182 8.56782 16.9819 9.19314 17.4402 10.0487L19.1311 13.2058C19.3655 13.6435 19.2007 14.1886 18.763 14.4226C18.3246 14.6565 17.7802 14.4921 17.5454 14.0545L15.8546 10.8974C15.6234 10.4661 15.2378 10.1499 14.7689 10.0079C14.2996 9.86682 13.8034 9.91518 13.3723 10.147C12.4813 10.6247 12.1444 11.7382 12.6217 12.6297L20.0118 26.4265C20.2462 26.8641 20.0814 27.4093 19.6436 27.6433C19.5084 27.7156 19.363 27.7499 19.2197 27.7499Z" fill="#025BDE"/>
<path d="M20.3141 18.2161C19.9934 18.2161 19.6829 18.0439 19.5205 17.7412L16.6767 12.4315C15.7315 10.6668 16.3981 8.46096 18.1635 7.51536C19.0193 7.0572 20.0021 6.95892 20.9301 7.23984C21.8588 7.52088 22.6225 8.1462 23.0809 9.0018L23.952 10.6288C24.1862 11.0665 24.0215 11.6116 23.5835 11.8456C23.1458 12.0788 22.6007 11.9152 22.3664 11.4774L21.4953 9.85044C21.2642 9.41904 20.8785 9.10296 20.4096 8.961C19.9403 8.81976 19.4447 8.86824 19.013 9.10008C18.1219 9.57768 17.7849 10.6912 18.2623 11.5826L21.1062 16.8923C21.3405 17.3299 21.1758 17.8752 20.738 18.1091C20.6028 18.1817 20.4573 18.2161 20.3141 18.2161Z" fill="#025BDE"/>
<path d="M18.3389 49.2595C18.0183 49.2595 17.7077 49.0874 17.5454 48.7846L3.43229 22.436C2.97425 21.5812 2.87621 20.599 3.15725 19.6703C3.43829 18.7409 4.06385 17.9772 4.91957 17.5192C5.77421 17.0611 6.75629 16.9636 7.68569 17.2445C8.61413 17.5254 9.37769 18.1507 9.83609 19.0063L15.695 29.9444C15.9293 30.3821 15.7645 30.9272 15.3269 31.1612C14.8889 31.3944 14.3438 31.2308 14.1095 30.7931L8.25053 19.855C8.01941 19.4236 7.63373 19.1075 7.16513 18.9655C6.69485 18.8243 6.19997 18.8734 5.76857 19.1046C5.33657 19.3364 5.02037 19.7213 4.87889 20.19C4.73693 20.6592 4.78649 21.1552 5.01761 21.5866L19.1311 47.936C19.3654 48.3737 19.2007 48.9188 18.7629 49.1528C18.6278 49.2251 18.4822 49.2595 18.3389 49.2595Z" fill="#025BDE"/>
</svg>
