<svg width="60" height="61" viewBox="0 0 60 61" fill="none" xmlns="http://www.w3.org/2000/svg">
<path d="M51.0494 53.7803H12.3124C9.87967 53.7803 7.90039 51.8012 7.90039 49.3682V28.1537C7.90039 27.6886 8.27731 27.3115 8.74243 27.3115H54.6199C55.085 27.3115 55.4619 27.6884 55.4619 28.1537V49.3682C55.4619 51.8012 53.4824 53.7803 51.0494 53.7803ZM9.58447 28.9957V49.3682C9.58447 50.8724 10.8084 52.0962 12.3124 52.0962H51.0494C52.5538 52.0962 53.7777 50.8723 53.7777 49.3682V28.9957H9.58447Z" fill="#025BDE"/>
<path d="M50.479 33.7635H8.84106C8.37594 33.7635 7.99902 33.3866 7.99902 32.9214C7.99902 32.4563 8.37594 32.0793 8.84106 32.0793H50.479C50.944 32.0793 51.3211 32.4563 51.3211 32.9214C51.3211 33.3866 50.944 33.7635 50.479 33.7635Z" fill="#025BDE"/>
<path d="M56.1579 53.7803H7.20434C6.73922 53.7803 6.3623 53.4034 6.3623 52.9382C6.3623 52.4731 6.73922 52.0962 7.20434 52.0962H56.1579C56.623 52.0962 56.9999 52.4731 56.9999 52.9382C56.9999 53.4034 56.623 53.7803 56.1579 53.7803Z" fill="#025BDE"/>
<path d="M54.6199 48.6673H8.74243C8.27731 48.6673 7.90039 48.2904 7.90039 47.8253V44.4614C7.90039 43.9963 8.27731 43.6194 8.74243 43.6194H54.6199C55.085 43.6194 55.4619 43.9963 55.4619 44.4614V47.8253C55.4619 48.2904 55.0849 48.6673 54.6199 48.6673ZM9.58447 46.9832H53.7777V45.3035H9.58447V46.9832Z" fill="#025BDE"/>
<path d="M51.3364 28.9959H12.0256C11.5605 28.9959 11.1836 28.619 11.1836 28.1538V24.8801C11.1836 24.415 11.5605 24.0381 12.0256 24.0381C12.4908 24.0381 12.8677 24.415 12.8677 24.8801V27.3118H50.4944V24.8801C50.4944 24.415 50.8713 24.0381 51.3364 24.0381C51.8014 24.0381 52.1785 24.415 52.1785 24.8801V28.1538C52.1785 28.619 51.8016 28.9959 51.3364 28.9959Z" fill="#025BDE"/>
<path d="M54.6203 25.722H48.2366C47.7715 25.722 47.3945 25.3451 47.3945 24.88C47.3945 24.4149 47.7715 24.0379 48.2366 24.0379H53.7782V17.3572C53.7782 16.8921 54.1551 16.5151 54.6203 16.5151C55.0855 16.5151 55.4624 16.8921 55.4624 17.3572V24.88C55.4624 25.345 55.0853 25.722 54.6203 25.722Z" fill="#025BDE"/>
<path d="M40.4977 25.7222H33.8137C33.3486 25.7222 32.9717 25.3452 32.9717 24.8801C32.9717 24.415 33.3486 24.0381 33.8137 24.0381H40.4977C40.9628 24.0381 41.3398 24.415 41.3398 24.8801C41.3398 25.3451 40.9627 25.7222 40.4977 25.7222Z" fill="#025BDE"/>
<path d="M30.3056 25.7222H19.9563C19.4912 25.7222 19.1143 25.3452 19.1143 24.8801C19.1143 24.415 19.4912 24.0381 19.9563 24.0381H30.3056C30.7706 24.0381 31.1476 24.415 31.1476 24.8801C31.1476 25.3451 30.7706 25.7222 30.3056 25.7222Z" fill="#025BDE"/>
<path d="M16.5734 25.7221H8.74243C8.27731 25.7221 7.90039 25.3452 7.90039 24.8801V20.7668C7.90039 20.3017 8.27731 19.9248 8.74243 19.9248C9.20755 19.9248 9.58447 20.3017 9.58447 20.7668V24.038H16.5734C17.0385 24.038 17.4154 24.415 17.4154 24.8801C17.4154 25.3451 17.0384 25.7221 16.5734 25.7221Z" fill="#025BDE"/>
<path d="M28.3656 14.3247H25.1526C24.6875 14.3247 24.3105 13.9478 24.3105 13.4827C24.3105 13.0175 24.6875 12.6406 25.1526 12.6406H28.3656C28.8307 12.6406 29.2076 13.0175 29.2076 13.4827C29.2076 13.9477 28.8306 14.3247 28.3656 14.3247Z" fill="#025BDE"/>
<path d="M40.3768 14.3247H33.682C33.2169 14.3247 32.8398 13.9478 32.8398 13.4827C32.8398 13.0175 33.2168 12.6406 33.682 12.6406H40.3768C40.8419 12.6406 41.2188 13.0175 41.2188 13.4827C41.2188 13.9477 40.842 14.3247 40.3768 14.3247Z" fill="#025BDE"/>
<path d="M47.8262 26.5933C47.7453 26.5933 47.6633 26.5818 47.5821 26.5572L38.3558 23.7634C37.9447 23.6389 37.6931 23.2246 37.7723 22.8023L40.0627 10.5904C40.1067 10.3552 40.2489 10.15 40.453 10.026C40.658 9.90132 40.9057 9.87 41.1343 9.93972L52.9395 13.5148C53.1685 13.5842 53.3572 13.7477 53.4583 13.9645C53.5595 14.1809 53.5639 14.4306 53.4701 14.6506L48.6008 26.0813C48.4657 26.3987 48.1562 26.5933 47.8262 26.5933ZM39.5667 22.3704L47.3477 24.7265L51.553 14.8546L41.5449 11.8235L39.5667 22.3704Z" fill="#025BDE"/>
<path d="M44.9971 25.7368C44.9163 25.7368 44.8341 25.7249 44.7528 25.7003L41.185 24.6199C40.7531 24.4889 40.5012 24.0412 40.6137 23.6042L43.6947 11.632C43.7519 11.4097 43.8972 11.2205 44.0973 11.108C44.2977 10.9955 44.5338 10.9693 44.7541 11.036L49.3192 12.4184C49.5389 12.4849 49.7219 12.6381 49.8258 12.8427C49.9296 13.0473 49.9458 13.2855 49.8702 13.5022L45.7919 25.1723C45.6708 25.5181 45.3462 25.7368 44.9971 25.7368ZM42.4458 23.2419L44.4684 23.8547L47.9904 13.7756L45.1067 12.9022L42.4458 23.2419Z" fill="#025BDE"/>
<path d="M28.7699 19.19C28.5752 19.19 28.3856 19.1225 28.2344 18.9978C28.0621 18.8558 27.9532 18.6512 27.9319 18.4288L27.5398 14.362C27.3546 12.4427 28.7653 10.7307 30.6846 10.5455C31.6158 10.455 32.5237 10.734 33.2443 11.3277C33.965 11.9217 34.4113 12.7608 34.5007 13.6907L34.8931 17.7573C34.9145 17.9795 34.8468 18.2013 34.705 18.3736C34.5629 18.546 34.3583 18.6549 34.1359 18.6762L28.8508 19.186C28.8239 19.1885 28.7969 19.19 28.7699 19.19ZM31.0236 12.2132C30.9648 12.2132 30.9056 12.2162 30.8464 12.2218C29.8514 12.3178 29.1198 13.2052 29.2159 14.2002L29.5274 17.4291L33.1361 17.0811L32.8247 13.8524C32.7782 13.3701 32.547 12.9353 32.1734 12.6274C31.8456 12.3573 31.4428 12.2132 31.0236 12.2132Z" fill="#025BDE"/>
<path d="M5.7351 22.7855C5.39838 22.7855 5.0805 22.5822 4.95066 22.2499L3.05778 17.4105C2.97654 17.2023 2.9811 16.9707 3.07062 16.7663C3.16014 16.5615 3.32718 16.4009 3.53502 16.3196L23.1737 8.63794C23.3825 8.5567 23.6141 8.56102 23.818 8.65078C24.0227 8.7403 24.1834 8.90734 24.2647 9.11554L26.1575 13.9553C26.327 14.3881 26.1131 14.8766 25.6803 15.0461L18.8242 17.7277C18.6159 17.8086 18.3844 17.8044 18.1796 17.7149C17.9749 17.6253 17.8144 17.4579 17.7332 17.2501L17.6147 16.9472L13.2566 18.6521L13.375 18.9546C13.4563 19.1629 13.4517 19.3944 13.3622 19.599C13.2727 19.8036 13.1056 19.9644 12.8977 20.0456L6.04158 22.7273C5.94078 22.7667 5.8371 22.7855 5.7351 22.7855ZM4.9329 17.5812L6.21234 20.852L11.4998 18.7837L11.3813 18.4811C11.3001 18.2729 11.3047 18.0413 11.3942 17.8368C11.4837 17.6321 11.6506 17.4713 11.8586 17.3901L17.7855 15.0719C17.9941 14.9906 18.2257 14.9953 18.4301 15.0847C18.6347 15.1742 18.7953 15.3416 18.8764 15.5495L18.9949 15.8523L24.2823 13.784L23.0027 10.5129L4.9329 17.5812Z" fill="#025BDE"/>
<path d="M8.50551 21.7017C8.39043 21.7017 8.27535 21.6781 8.16807 21.631C7.96347 21.5415 7.80267 21.3745 7.72143 21.1663L5.82855 16.3264C5.65923 15.8936 5.87295 15.4052 6.30615 15.2357L20.4041 9.72174C20.6119 9.64014 20.8443 9.64506 21.0481 9.73458C21.2527 9.8241 21.4135 9.99114 21.4948 10.1993L23.3874 15.0388C23.5567 15.4717 23.343 15.9601 22.9102 16.1295L18.8247 17.7277C18.6171 17.8085 18.3849 17.8043 18.18 17.7148C17.9753 17.6253 17.8149 17.4579 17.7336 17.2501L17.6152 16.9472L13.257 18.652L13.3755 18.9545C13.4567 19.1629 13.4521 19.3943 13.3626 19.5989C13.2731 19.8035 13.1061 19.9643 12.8981 20.0456L8.81259 21.6437C8.71383 21.6824 8.60943 21.7017 8.50551 21.7017ZM7.70367 16.4975L8.98311 19.7686L11.5001 18.7841L11.3817 18.4811C11.3004 18.2729 11.305 18.0413 11.3945 17.8369C11.484 17.6321 11.6509 17.4713 11.8589 17.3902L17.7858 15.0719C17.9944 14.9907 18.226 14.9954 18.4305 15.0848C18.6351 15.1743 18.7956 15.3417 18.8767 15.5495L18.9952 15.8524L21.5124 14.8677L20.2329 11.597L7.70367 16.4975Z" fill="#025BDE"/>
<path d="M5.66563 17.2322C5.55055 17.2322 5.43547 17.2085 5.32819 17.1615C5.12359 17.072 4.96279 16.9049 4.88155 16.6967L4.35691 15.3554C3.93619 14.2804 4.46875 13.0634 5.54407 12.6424L19.2036 7.29967C19.7241 7.09579 20.2935 7.10767 20.8064 7.33159C21.3186 7.55587 21.7129 7.96627 21.9169 8.48707L22.4415 9.82879C22.6108 10.2616 22.3971 10.7502 21.9639 10.9195L5.97247 17.1744C5.87347 17.2129 5.76955 17.2322 5.66563 17.2322ZM19.9659 8.83975C19.9162 8.83975 19.8658 8.84899 19.8171 8.86795L6.15775 14.2107C5.94715 14.2933 5.84299 14.5315 5.92519 14.7418L6.14323 15.2991L20.5662 9.65779L20.3485 9.10063C20.2849 8.93911 20.13 8.83975 19.9659 8.83975Z" fill="#025BDE"/>
<path d="M14.0103 23.7334C13.6736 23.7334 13.3557 23.5301 13.2259 23.1979L11.381 18.4811C11.2998 18.2729 11.3043 18.0413 11.3939 17.8368C11.4834 17.6321 11.6503 17.4713 11.8583 17.3902L17.7852 15.0719C17.9937 14.9907 18.2253 14.9953 18.4295 15.0847C18.6342 15.1743 18.795 15.3413 18.8761 15.5495L20.721 20.2666C20.8022 20.4744 20.7977 20.7064 20.7081 20.911C20.6186 21.1152 20.4517 21.276 20.2434 21.3573L14.3166 23.6752C14.2159 23.7145 14.1123 23.7334 14.0103 23.7334ZM13.2561 18.6517L14.4877 21.7998L18.8459 20.0953L17.6143 16.9469L13.2561 18.6517Z" fill="#025BDE"/>
<path d="M34.1042 28.9957H30.6617C30.2277 28.9957 29.865 28.6661 29.8236 28.2345L28.8691 18.3383C28.8477 18.1159 28.9154 17.8943 29.0573 17.7219C29.1993 17.5495 29.4039 17.4407 29.6263 17.4193L33.0373 17.0904C33.5017 17.0473 33.9119 17.3849 33.9563 17.8476L34.9423 28.0728C34.965 28.3093 34.8871 28.5441 34.7276 28.7198C34.5679 28.8954 34.3416 28.9957 34.1042 28.9957ZM31.4264 27.3116H33.1769L32.3609 18.8474L30.6261 19.0146L31.4264 27.3116Z" fill="#025BDE"/>
<path d="M44.5939 28.9958H39.5315C39.2651 28.9958 39.0142 28.8694 38.8553 28.6557C38.6964 28.4415 38.6484 28.1649 38.7256 27.9097L40.0886 23.408C40.1534 23.1943 40.3002 23.0149 40.4972 22.9096C40.6943 22.804 40.9248 22.7817 41.1386 22.8461L45.7758 24.2503C46.2208 24.3851 46.4724 24.8552 46.3375 25.3001L45.3997 28.3976C45.2923 28.753 44.965 28.9958 44.5939 28.9958ZM40.6663 27.3117H43.9691L44.4818 25.6181L41.4564 24.7021L40.6663 27.3117Z" fill="#025BDE"/>
<path d="M21.0014 28.9958H17.9691C17.6224 28.9958 17.3113 28.7832 17.1849 28.4606L14.8742 22.5531C14.7929 22.3449 14.7975 22.1129 14.887 21.9084C14.9765 21.704 15.1436 21.5433 15.3518 21.462L17.9822 20.4335C18.415 20.2642 18.9035 20.4779 19.0729 20.9111L21.7855 27.8471C21.8867 28.106 21.8536 28.3988 21.6967 28.6282C21.5398 28.8582 21.2797 28.9958 21.0014 28.9958ZM18.544 27.3117H19.7679L17.8112 22.3085L16.7494 22.724L18.544 27.3117Z" fill="#025BDE"/>
</svg>
