<svg width="60" height="61" viewBox="0 0 60 61" fill="none" xmlns="http://www.w3.org/2000/svg">
<path d="M26.768 57.4675C17.0194 57.4675 9.08789 49.536 9.08789 39.7874C9.83861 22.2336 25.448 4.50757 26.1124 3.76165C26.2791 3.57445 26.5177 3.46753 26.768 3.46753C27.0182 3.46753 27.2567 3.57445 27.4234 3.76165C27.4926 3.83905 34.3862 11.6398 39.3379 21.7934C39.5505 22.2288 39.3694 22.7548 38.934 22.9666C38.5 23.1812 37.9727 22.9981 37.7609 22.5628C33.8054 14.4536 28.5856 7.87753 26.7686 5.69857C23.7689 9.30169 11.4801 24.9316 10.8424 39.8251C10.8431 48.5685 17.9869 55.7122 26.768 55.7122C29.6531 55.7122 32.4807 54.9306 34.9456 53.4522C35.3606 53.204 35.9008 53.3377 36.1497 53.7539C36.3986 54.1694 36.2642 54.7084 35.848 54.958C33.1115 56.5994 29.9713 57.4675 26.768 57.4675Z" fill="white"/>
<path d="M40.6191 56.6647C34.9427 56.6647 30.3242 52.0462 30.3242 46.3698C30.7513 36.3786 39.588 26.3442 39.9637 25.9219C40.2968 25.5475 40.9413 25.5475 41.2747 25.9219C41.3975 26.0597 44.3052 29.346 46.9182 34.0235C47.1547 34.4465 47.0031 34.9813 46.5801 35.2171C46.1577 35.455 45.6223 35.3021 45.3865 34.8791C43.5949 31.673 41.6189 29.0984 40.6199 27.8705C38.5725 30.393 32.4127 38.6015 32.0789 46.4076C32.0795 51.079 35.9102 54.9096 40.6191 54.9096C45.3281 54.9096 49.1588 51.079 49.1588 46.3699C49.1424 46.0182 49.1123 45.6274 49.0677 45.2366C49.0128 44.7553 49.3591 44.3206 49.8411 44.2657C50.3143 44.2157 50.7572 44.5563 50.8121 45.0391C50.8608 45.4697 50.895 45.9017 50.9136 46.3315C50.9142 52.0462 46.2957 56.6647 40.6191 56.6647Z" fill="white"/>
<path d="M20.2801 49.3694C19.905 49.3694 19.5718 49.1314 19.4499 48.7769C18.8931 47.1533 17.6418 45.902 16.0181 45.3453C15.6636 45.2232 15.4258 44.89 15.4258 44.515C15.4258 44.1407 15.6636 43.8068 16.0181 43.6848C17.6424 43.1273 18.8931 41.8761 19.4499 40.2532C19.5719 39.898 19.9051 39.6602 20.2801 39.6602C20.6551 39.6602 20.9884 39.898 21.1104 40.2525C21.6678 41.8761 22.9192 43.1274 24.5427 43.6848C24.8971 43.8069 25.1351 44.1401 25.1351 44.515C25.1351 44.8901 24.8971 45.2234 24.5419 45.3453C22.9191 45.9021 21.6677 47.1527 21.1104 48.7769C20.9884 49.1314 20.6551 49.3694 20.2801 49.3694ZM18.2718 44.5149C19.0686 45.0449 19.7501 45.7265 20.2801 46.5232C20.8108 45.7258 21.4917 45.045 22.2891 44.5149C21.4917 43.9842 20.8108 43.3034 20.2801 42.506C19.7501 43.3034 19.0692 43.9841 18.2718 44.5149Z" fill="white"/>
<path d="M46.0574 46.4637C45.6824 46.4637 45.349 46.2258 45.2271 45.8713C44.6703 44.2477 43.419 42.9963 41.7954 42.4396C41.441 42.3176 41.2031 41.9844 41.2031 41.6094C41.2031 41.235 41.441 40.901 41.7954 40.7791C43.4198 40.2216 44.6704 38.9703 45.2271 37.3474C45.3491 36.9922 45.6824 36.7544 46.0574 36.7544C46.4324 36.7544 46.7656 36.9922 46.8876 37.3467C47.445 38.9703 48.6963 40.2217 50.3199 40.7791C50.6744 40.9011 50.9122 41.2344 50.9122 41.6094C50.9122 41.9844 50.6744 42.3176 50.3192 42.4396C48.6962 42.9963 47.4449 44.247 46.8876 45.8713C46.7656 46.2258 46.4324 46.4637 46.0574 46.4637ZM44.049 41.6094C44.8457 42.1394 45.5273 42.8209 46.0574 43.6176C46.588 42.8202 47.2689 42.1394 48.0663 41.6094C47.2689 41.0787 46.588 40.3977 46.0574 39.6003C45.5272 40.3977 44.8464 41.0786 44.049 41.6094Z" fill="white"/>
<path d="M27.4673 37.3287C27.0923 37.3287 26.759 37.0909 26.637 36.7364C25.854 34.4566 24.0982 32.7001 21.819 31.9177C21.4645 31.7955 21.2266 31.4624 21.2266 31.0874C21.2266 30.7124 21.4645 30.379 21.819 30.2571C24.098 29.4755 25.854 27.7189 26.637 25.4384C26.7592 25.0839 27.0923 24.8459 27.4673 24.8459C27.8423 24.8459 28.1756 25.0839 28.2976 25.4384C29.0806 27.7189 30.8365 29.4747 33.1163 30.2571C33.4708 30.3791 33.7087 30.7124 33.7087 31.0874C33.7087 31.4625 33.4708 31.7956 33.1163 31.9177C30.8366 32.7007 29.0807 34.4565 28.2976 36.7364C28.1756 37.0907 27.8424 37.3287 27.4673 37.3287ZM24.1838 31.0873C25.5372 31.8929 26.6624 33.0173 27.4674 34.3714C28.2724 33.0173 29.3975 31.8928 30.751 31.0873C29.3968 30.2823 28.2724 29.1579 27.4674 27.8037C26.6623 29.1579 25.5372 30.2823 24.1838 31.0873Z" fill="white"/>
</svg>
