<svg width="60" height="61" viewBox="0 0 60 61" fill="none" xmlns="http://www.w3.org/2000/svg">
<path d="M51.0494 53.7803H12.3124C9.87967 53.7803 7.90039 51.8012 7.90039 49.3682V28.1537C7.90039 27.6886 8.27731 27.3115 8.74243 27.3115H54.6199C55.085 27.3115 55.4619 27.6884 55.4619 28.1537V49.3682C55.4619 51.8012 53.4824 53.7803 51.0494 53.7803ZM9.58447 28.9957V49.3682C9.58447 50.8724 10.8084 52.0962 12.3124 52.0962H51.0494C52.5538 52.0962 53.7777 50.8723 53.7777 49.3682V28.9957H9.58447Z" fill="white"/>
<path d="M50.48 33.7634H8.84204C8.37692 33.7634 8 33.3865 8 32.9213C8 32.4561 8.37692 32.0792 8.84204 32.0792H50.48C50.945 32.0792 51.322 32.4561 51.322 32.9213C51.322 33.3865 50.945 33.7634 50.48 33.7634Z" fill="white"/>
<path d="M56.1588 53.7803H7.20532C6.7402 53.7803 6.36328 53.4034 6.36328 52.9382C6.36328 52.4731 6.7402 52.0962 7.20532 52.0962H56.1588C56.624 52.0962 57.0009 52.4731 57.0009 52.9382C57.0009 53.4034 56.624 53.7803 56.1588 53.7803Z" fill="white"/>
<path d="M54.6199 48.6672H8.74243C8.27731 48.6672 7.90039 48.2903 7.90039 47.8251V44.4613C7.90039 43.9962 8.27731 43.6193 8.74243 43.6193H54.6199C55.085 43.6193 55.4619 43.9962 55.4619 44.4613V47.8251C55.4619 48.2903 55.0849 48.6672 54.6199 48.6672ZM9.58447 46.9831H53.7777V45.3033H9.58447V46.9831Z" fill="white"/>
<path d="M51.3364 28.9957H12.0256C11.5605 28.9957 11.1836 28.6188 11.1836 28.1537V24.8799C11.1836 24.4148 11.5605 24.0379 12.0256 24.0379C12.4908 24.0379 12.8677 24.4148 12.8677 24.8799V27.3116H50.4944V24.8799C50.4944 24.4148 50.8713 24.0379 51.3364 24.0379C51.8014 24.0379 52.1785 24.4148 52.1785 24.8799V28.1537C52.1785 28.6188 51.8016 28.9957 51.3364 28.9957Z" fill="white"/>
<path d="M54.6203 25.722H48.2366C47.7715 25.722 47.3945 25.345 47.3945 24.8799C47.3945 24.4148 47.7715 24.0379 48.2366 24.0379H53.7782V17.3571C53.7782 16.892 54.1551 16.5151 54.6203 16.5151C55.0855 16.5151 55.4624 16.892 55.4624 17.3571V24.8799C55.4624 25.3449 55.0853 25.722 54.6203 25.722Z" fill="white"/>
<path d="M40.4967 25.722H33.8127C33.3476 25.722 32.9707 25.3451 32.9707 24.8799C32.9707 24.4148 33.3476 24.0379 33.8127 24.0379H40.4967C40.9619 24.0379 41.3388 24.4148 41.3388 24.8799C41.3388 25.3449 40.9617 25.722 40.4967 25.722Z" fill="white"/>
<path d="M30.3046 25.722H19.9553C19.4902 25.722 19.1133 25.3451 19.1133 24.8799C19.1133 24.4148 19.4902 24.0379 19.9553 24.0379H30.3046C30.7696 24.0379 31.1466 24.4148 31.1466 24.8799C31.1466 25.3449 30.7696 25.722 30.3046 25.722Z" fill="white"/>
<path d="M16.5734 25.722H8.74243C8.27731 25.722 7.90039 25.3451 7.90039 24.88V20.7667C7.90039 20.3016 8.27731 19.9247 8.74243 19.9247C9.20755 19.9247 9.58447 20.3016 9.58447 20.7667V24.0379H16.5734C17.0385 24.0379 17.4154 24.4148 17.4154 24.88C17.4154 25.345 17.0384 25.722 16.5734 25.722Z" fill="white"/>
<path d="M28.3656 14.3245H25.1526C24.6875 14.3245 24.3105 13.9476 24.3105 13.4825C24.3105 13.0174 24.6875 12.6404 25.1526 12.6404H28.3656C28.8307 12.6404 29.2076 13.0174 29.2076 13.4825C29.2076 13.9475 28.8306 14.3245 28.3656 14.3245Z" fill="white"/>
<path d="M40.3768 14.3245H33.682C33.2169 14.3245 32.8398 13.9476 32.8398 13.4825C32.8398 13.0174 33.2168 12.6404 33.682 12.6404H40.3768C40.8419 12.6404 41.2188 13.0174 41.2188 13.4825C41.2188 13.9475 40.842 14.3245 40.3768 14.3245Z" fill="white"/>
<path d="M47.8262 26.5933C47.7453 26.5933 47.6633 26.5817 47.5821 26.5571L38.3558 23.7633C37.9447 23.6389 37.6931 23.2245 37.7723 22.8022L40.0627 10.5903C40.1067 10.3551 40.2489 10.1499 40.453 10.0259C40.658 9.90126 40.9057 9.86994 41.1343 9.93966L52.9395 13.5147C53.1685 13.5842 53.3572 13.7476 53.4583 13.9645C53.5595 14.1808 53.5639 14.4305 53.4701 14.6505L48.6008 26.0812C48.4657 26.3986 48.1562 26.5933 47.8262 26.5933ZM39.5667 22.3703L47.3477 24.7264L51.553 14.8545L41.5449 11.8234L39.5667 22.3703Z" fill="white"/>
<path d="M44.9981 25.7368C44.9172 25.7368 44.835 25.7249 44.7538 25.7003L41.186 24.6198C40.7541 24.4889 40.5022 24.0412 40.6146 23.6041L43.6956 11.632C43.7529 11.4096 43.8982 11.2205 44.0982 11.1079C44.2986 10.9955 44.5348 10.9692 44.7551 11.0359L49.3202 12.4183C49.5399 12.4848 49.7229 12.638 49.8268 12.8426C49.9306 13.0472 49.9468 13.2854 49.8712 13.5022L45.7929 25.1723C45.6718 25.518 45.3472 25.7368 44.9981 25.7368ZM42.4468 23.2418L44.4694 23.8547L47.9914 13.7755L45.1077 12.9022L42.4468 23.2418Z" fill="white"/>
<path d="M28.7699 19.1899C28.5752 19.1899 28.3856 19.1225 28.2344 18.9978C28.0621 18.8557 27.9532 18.6511 27.9319 18.4287L27.5398 14.3619C27.3546 12.4427 28.7653 10.7306 30.6846 10.5455C31.6158 10.455 32.5237 10.734 33.2443 11.3276C33.965 11.9216 34.4113 12.7608 34.5007 13.6907L34.8931 17.7572C34.9145 17.9795 34.8468 18.2012 34.705 18.3735C34.5629 18.546 34.3583 18.6548 34.1359 18.6762L28.8508 19.1859C28.8239 19.1885 28.7969 19.1899 28.7699 19.1899ZM31.0236 12.2131C30.9648 12.2131 30.9056 12.2161 30.8464 12.2217C29.8514 12.3177 29.1198 13.2051 29.2159 14.2002L29.5274 17.429L33.1361 17.081L32.8247 13.8523C32.7782 13.37 32.547 12.9353 32.1734 12.6273C31.8456 12.3572 31.4428 12.2131 31.0236 12.2131Z" fill="white"/>
<path d="M5.7351 22.7853C5.39838 22.7853 5.0805 22.5821 4.95066 22.2498L3.05778 17.4104C2.97654 17.2022 2.9811 16.9706 3.07062 16.7661C3.16014 16.5614 3.32718 16.4007 3.53502 16.3195L23.1737 8.63782C23.3825 8.55658 23.6141 8.5609 23.818 8.65066C24.0227 8.74018 24.1834 8.90722 24.2647 9.11542L26.1575 13.9551C26.327 14.388 26.1131 14.8765 25.6803 15.0459L18.8242 17.7276C18.6159 17.8085 18.3844 17.8043 18.1796 17.7147C17.9749 17.6252 17.8144 17.4578 17.7332 17.25L17.6147 16.9471L13.2566 18.6519L13.375 18.9545C13.4563 19.1628 13.4517 19.3943 13.3622 19.5989C13.2727 19.8035 13.1056 19.9643 12.8977 20.0455L6.04158 22.7271C5.94078 22.7666 5.8371 22.7853 5.7351 22.7853ZM4.9329 17.5811L6.21234 20.8519L11.4998 18.7836L11.3813 18.4809C11.3001 18.2727 11.3047 18.0411 11.3942 17.8367C11.4837 17.6319 11.6506 17.4711 11.8586 17.39L17.7855 15.0717C17.9941 14.9905 18.2257 14.9952 18.4301 15.0846C18.6347 15.1741 18.7953 15.3415 18.8764 15.5493L18.9949 15.8522L24.2823 13.7839L23.0027 10.5128L4.9329 17.5811Z" fill="white"/>
<path d="M8.50453 21.7015C8.38945 21.7015 8.27437 21.6779 8.16709 21.6308C7.96249 21.5413 7.80169 21.3743 7.72045 21.1661L5.82757 16.3262C5.65825 15.8934 5.87197 15.405 6.30517 15.2356L20.4031 9.72156C20.611 9.63996 20.8433 9.64488 21.0472 9.7344C21.2518 9.82392 21.4126 9.99096 21.4938 10.1992L23.3865 15.0386C23.5558 15.4715 23.3421 15.9599 22.9092 16.1293L18.8237 17.7275C18.6161 17.8084 18.3839 17.8042 18.179 17.7146C17.9743 17.6251 17.8139 17.4577 17.7327 17.2499L17.6142 16.947L13.2561 18.6518L13.3745 18.9544C13.4557 19.1627 13.4512 19.3942 13.3617 19.5988C13.2721 19.8034 13.1051 19.9642 12.8971 20.0454L8.81161 21.6436C8.71285 21.6822 8.60845 21.7015 8.50453 21.7015ZM7.70269 16.4974L8.98213 19.7684L11.4991 18.784L11.3807 18.481C11.2995 18.2728 11.304 18.0412 11.3935 17.8367C11.4831 17.632 11.65 17.4712 11.8579 17.39L17.7849 15.0718C17.9934 14.9905 18.225 14.9952 18.4295 15.0846C18.6341 15.1741 18.7947 15.3415 18.8758 15.5494L18.9942 15.8522L21.5115 14.8675L20.2319 11.5968L7.70269 16.4974Z" fill="white"/>
<path d="M5.66563 17.2321C5.55055 17.2321 5.43547 17.2085 5.32819 17.1614C5.12359 17.0719 4.96279 16.9049 4.88155 16.6967L4.35691 15.3553C3.93619 14.2804 4.46875 13.0633 5.54407 12.6424L19.2036 7.29961C19.7241 7.09573 20.2935 7.10761 20.8064 7.33153C21.3186 7.55581 21.7129 7.96621 21.9169 8.48701L22.4415 9.82873C22.6108 10.2616 22.3971 10.7501 21.9639 10.9194L5.97247 17.1743C5.87347 17.2128 5.76955 17.2321 5.66563 17.2321ZM19.9659 8.83969C19.9162 8.83969 19.8658 8.84893 19.8171 8.86789L6.15775 14.2106C5.94715 14.2932 5.84299 14.5314 5.92519 14.7418L6.14323 15.299L20.5662 9.65773L20.3485 9.10057C20.2849 8.93905 20.13 8.83969 19.9659 8.83969Z" fill="white"/>
<path d="M14.0113 23.7333C13.6746 23.7333 13.3567 23.53 13.2269 23.1979L11.382 18.481C11.3008 18.2728 11.3053 18.0412 11.3948 17.8368C11.4844 17.632 11.6513 17.4712 11.8592 17.3901L17.7862 15.0718C17.9947 14.9906 18.2263 14.9953 18.4304 15.0847C18.6352 15.1742 18.796 15.3412 18.8771 15.5494L20.722 20.2665C20.8032 20.4744 20.7986 20.7063 20.7091 20.9109C20.6196 21.1152 20.4527 21.276 20.2444 21.3572L14.3176 23.6751C14.2169 23.7145 14.1133 23.7333 14.0113 23.7333ZM13.2571 18.6517L14.4887 21.7998L18.8468 20.0953L17.6153 16.9468L13.2571 18.6517Z" fill="white"/>
<path d="M34.1042 28.9958H30.6617C30.2277 28.9958 29.865 28.6661 29.8236 28.2346L28.8691 18.3383C28.8477 18.116 28.9154 17.8943 29.0573 17.722C29.1993 17.5496 29.4039 17.4407 29.6263 17.4194L33.0373 17.0904C33.5017 17.0474 33.9119 17.3849 33.9563 17.8476L34.9423 28.0728C34.965 28.3094 34.8871 28.5442 34.7276 28.7199C34.5679 28.8954 34.3416 28.9958 34.1042 28.9958ZM31.4264 27.3117H33.1769L32.3609 18.8475L30.6261 19.0146L31.4264 27.3117Z" fill="white"/>
<path d="M44.5939 28.9957H39.5315C39.2651 28.9957 39.0142 28.8694 38.8553 28.6556C38.6964 28.4414 38.6484 28.1648 38.7256 27.9096L40.0886 23.4079C40.1534 23.1942 40.3002 23.0148 40.4972 22.9096C40.6943 22.804 40.9248 22.7816 41.1386 22.8461L45.7758 24.2502C46.2208 24.3851 46.4724 24.8551 46.3375 25.3001L45.3997 28.3975C45.2923 28.753 44.965 28.9957 44.5939 28.9957ZM40.6663 27.3116H43.9691L44.4818 25.6181L41.4564 24.702L40.6663 27.3116Z" fill="white"/>
<path d="M21.0014 28.9957H17.9691C17.6224 28.9957 17.3113 28.7832 17.1849 28.4605L14.8742 22.553C14.7929 22.3448 14.7975 22.1129 14.887 21.9084C14.9765 21.7039 15.1436 21.5432 15.3518 21.462L17.9822 20.4335C18.415 20.2641 18.9035 20.4779 19.0729 20.9111L21.7855 27.8471C21.8867 28.1059 21.8536 28.3987 21.6967 28.6281C21.5398 28.8582 21.2797 28.9957 21.0014 28.9957ZM18.544 27.3116H19.7679L17.8112 22.3085L16.7494 22.7239L18.544 27.3116Z" fill="white"/>
</svg>
