<svg width="41" height="41" viewBox="0 0 41 41" fill="none" xmlns="http://www.w3.org/2000/svg">
<g clip-path="url(#clip0_205_442)">
<path d="M31.8564 3.34473H22.4814C17.9587 3.34473 14.2783 7.02512 14.2783 11.5479C14.2783 15.6735 17.3396 19.0975 21.3096 19.6675V23.2666C21.3096 23.7404 21.5945 24.1684 22.0329 24.3492C22.4651 24.5296 22.9721 24.4329 23.31 24.0951L27.6542 19.751H31.8564C36.3792 19.751 40.1377 16.0706 40.1377 11.5479C40.1377 7.02512 36.3792 3.34473 31.8564 3.34473ZM22.4814 12.7196C21.8341 12.7196 21.3096 12.1949 21.3096 11.5477C21.3096 10.9005 21.8341 10.3758 22.4814 10.3758C23.1286 10.3758 23.6533 10.9005 23.6533 11.5477C23.6533 12.1949 23.1286 12.7196 22.4814 12.7196ZM27.1689 12.7196C26.5216 12.7196 25.9971 12.1949 25.9971 11.5477C25.9971 10.9005 26.5216 10.3758 27.1689 10.3758C27.8161 10.3758 28.3408 10.9005 28.3408 11.5477C28.3408 12.1949 27.8161 12.7196 27.1689 12.7196ZM31.8564 12.7196C31.2091 12.7196 30.6846 12.1949 30.6846 11.5477C30.6846 10.9005 31.2091 10.3758 31.8564 10.3758C32.5036 10.3758 33.0283 10.9005 33.0283 11.5477C33.0283 12.1949 32.5036 12.7196 31.8564 12.7196Z" fill="white"/>
<path d="M26.4658 38.501C28.4044 38.501 29.9814 36.9239 29.9814 34.9854V30.2979C29.9814 29.7932 29.6587 29.3457 29.1804 29.1866L22.1656 26.8429C21.8222 26.7273 21.4469 26.7799 21.1448 26.979L18.1625 28.9668C15.0039 27.4608 11.256 23.7129 9.74988 20.5543L11.7377 17.5719C11.9379 17.2709 11.9883 16.8944 11.8739 16.5511L9.53012 9.53637C9.37113 9.05809 8.92363 8.73535 8.41895 8.73535H3.65332C1.71473 8.73535 0.137695 10.2959 0.137695 12.2345C0.137695 25.7362 12.9641 38.501 26.4658 38.501Z" fill="white"/>
</g>
<defs>
<clipPath id="clip0_205_442">
<rect width="40" height="40" fill="white" transform="translate(0.137695 0.922852)"/>
</clipPath>
</defs>
</svg>
