<svg width="60" height="61" viewBox="0 0 60 61" fill="none" xmlns="http://www.w3.org/2000/svg">
<path d="M28.7683 29.8763C28.2716 29.8763 27.8691 29.4737 27.8691 28.9771V14.003C27.8691 12.0002 29.4986 10.3711 31.5015 10.3711C33.5045 10.3711 35.1339 12.0002 35.1339 14.003V27.9135C35.1339 28.4102 34.7313 28.8127 34.2348 28.8127C33.7381 28.8127 33.3356 28.4101 33.3356 27.9135V14.003C33.3356 12.9921 32.513 12.1695 31.5017 12.1695C30.4904 12.1695 29.6677 12.9921 29.6677 14.003V28.9771C29.6675 29.4738 29.2649 29.8763 28.7683 29.8763Z" fill="#025BDE"/>
<path d="M39.6999 28.8124C39.2032 28.8124 38.8007 28.4098 38.8007 27.9133V12.2626C38.8007 11.2509 37.9781 10.4283 36.9668 10.4283C35.9559 10.4283 35.1333 11.2509 35.1333 12.2626V27.9133C35.1333 28.41 34.7307 28.8124 34.2341 28.8124C33.7374 28.8124 33.335 28.4098 33.335 27.9133V12.2626C33.335 10.2597 34.9644 8.62988 36.9669 8.62988C38.9698 8.62988 40.5993 10.2597 40.5993 12.2626V27.9133C40.5993 28.41 40.1967 28.8124 39.6999 28.8124Z" fill="#025BDE"/>
<path d="M45.1662 32.7287C44.6695 32.7287 44.267 32.3261 44.267 31.8294V14.003C44.267 12.9921 43.4444 12.1695 42.4331 12.1695C41.4218 12.1695 40.5992 12.9921 40.5992 14.003V27.9135C40.5992 28.4102 40.1966 28.8127 39.6999 28.8127C39.2033 28.8127 38.8008 28.4101 38.8008 27.9135V14.003C38.8008 12.0002 40.4304 10.3711 42.4332 10.3711C44.4361 10.3711 46.0656 12.0002 46.0656 14.003V31.8293C46.0655 32.3261 45.6629 32.7287 45.1662 32.7287Z" fill="#025BDE"/>
<path d="M44.4135 49.7332H23.3015C22.8048 49.7332 22.4023 49.3306 22.4023 48.8339V16.5688C22.4023 14.5659 24.0318 12.936 26.0347 12.936C28.0377 12.936 29.6671 14.5659 29.6671 16.5688V28.9773C29.6671 29.474 29.2645 29.8764 28.768 29.8764C28.2713 29.8764 27.8688 29.4738 27.8688 28.9773V16.5688C27.8688 15.5571 27.0462 14.7346 26.0349 14.7346C25.0236 14.7346 24.2009 15.5572 24.2009 16.5688V47.9346H43.5144V46.6294C43.5144 46.4424 43.5727 46.2598 43.6813 46.1074L54.7301 30.608C55.4466 29.6027 55.3329 28.2396 54.4603 27.3672C53.5091 26.416 51.8519 26.416 50.9007 27.3672L41.0767 37.1912C40.7255 37.5424 40.1565 37.5424 39.8051 37.1912C39.454 36.8399 39.454 36.2709 39.8051 35.9196L49.629 26.0957C50.4439 25.2809 51.5275 24.832 52.6804 24.832C53.8332 24.832 54.9168 25.2809 55.7317 26.0957C57.2281 27.5921 57.4227 29.9286 56.1948 31.6518L45.3129 46.9175V48.8339C45.3127 49.3306 44.9101 49.7332 44.4135 49.7332Z" fill="#025BDE"/>
<path d="M27.5789 42.8229C27.3489 42.8229 27.1184 42.7351 26.9428 42.5594C26.5919 42.2082 26.5919 41.6391 26.9432 41.2878L28.7816 39.45C29.1328 39.0987 29.7023 39.0987 30.0534 39.45C30.4044 39.8012 30.4044 40.3702 30.0531 40.7216L28.2146 42.5594C28.039 42.7351 27.809 42.8229 27.5789 42.8229Z" fill="#025BDE"/>
<path d="M29.4174 42.8229C29.1873 42.8229 28.9572 42.7351 28.7816 42.5594L26.9432 40.7216C26.5919 40.3704 26.5919 39.8013 26.9428 39.45C27.294 39.0987 27.8636 39.0987 28.2147 39.45L30.0532 41.2878C30.4044 41.639 30.4044 42.208 30.0536 42.5594C29.8779 42.7351 29.6475 42.8229 29.4174 42.8229Z" fill="#025BDE"/>
<path d="M44.8975 53.6966H22.8175C21.2287 53.6966 19.9365 52.404 19.9365 50.8157C19.9365 49.2272 21.2288 47.9346 22.8175 47.9346H44.8975C46.4863 47.9346 47.7784 49.2272 47.7784 50.8157C47.7784 52.404 46.4862 53.6966 44.8975 53.6966ZM22.8175 49.7331C22.2207 49.7331 21.735 50.2185 21.735 50.8157C21.735 51.4128 22.2207 51.8982 22.8175 51.8982H44.8975C45.4942 51.8982 45.9801 51.4128 45.9801 50.8157C45.9801 50.2184 45.4944 49.7331 44.8975 49.7331H22.8175Z" fill="#025BDE"/>
<path d="M33.2182 46.518H23.3015C22.8048 46.518 22.4023 46.1154 22.4023 45.6189C22.4023 45.1222 22.8049 44.7197 23.3015 44.7197H33.2182C33.7149 44.7197 34.1173 45.1223 34.1173 45.6189C34.1175 46.1154 33.7149 46.518 33.2182 46.518Z" fill="#025BDE"/>
<path d="M14.903 31.4052C14.5824 31.4052 14.2718 31.2331 14.1096 30.9302L7.03942 17.7307C6.58138 16.8758 6.48382 15.8929 6.76474 14.9641C7.0453 14.0354 7.67122 13.2717 8.52658 12.8145C9.38194 12.3558 10.3646 12.2582 11.2927 12.539C12.2215 12.8201 12.9851 13.4454 13.4435 14.301L20.0117 26.5634C20.246 27.0011 20.0813 27.5462 19.6435 27.7802C19.2048 28.0141 18.6607 27.8504 18.426 27.4122L11.858 15.1497C11.6269 14.7183 11.2413 14.4023 10.7723 14.2603C10.3034 14.1191 9.8071 14.1683 9.37569 14.3994C8.94369 14.6305 8.62786 15.0161 8.48626 15.4854C8.3443 15.954 8.3935 16.4499 8.6251 16.8819L15.6951 30.0816C15.9295 30.5192 15.7646 31.0644 15.3271 31.2984C15.1917 31.3706 15.0464 31.4052 14.903 31.4052Z" fill="#025BDE"/>
<path d="M19.2197 27.8869C18.899 27.8869 18.5885 27.7148 18.4261 27.4121L11.036 13.6154C10.0909 11.8507 10.7575 9.64486 12.523 8.69914C13.3787 8.2411 14.3614 8.1427 15.2894 8.42374C16.2182 8.70478 16.9819 9.3301 17.4402 10.1857L19.1311 13.3428C19.3655 13.7804 19.2007 14.3256 18.763 14.5596C18.3246 14.7935 17.7802 14.6291 17.5454 14.1914L15.8546 11.0343C15.6234 10.6031 15.2378 10.2869 14.7689 10.1449C14.2996 10.0038 13.8034 10.0521 13.3723 10.284C12.4813 10.7617 12.1444 11.8752 12.6217 12.7667L20.0118 26.5634C20.2462 27.0011 20.0814 27.5462 19.6436 27.7802C19.5084 27.8526 19.363 27.8869 19.2197 27.8869Z" fill="#025BDE"/>
<path d="M20.3141 18.3531C19.9934 18.3531 19.6829 18.1809 19.5205 17.8781L16.6767 12.5685C15.7315 10.8038 16.3981 8.59793 18.1635 7.65233C19.0193 7.19417 20.0021 7.09589 20.9301 7.37681C21.8588 7.65785 22.6225 8.28317 23.0809 9.13877L23.952 10.7657C24.1862 11.2035 24.0215 11.7485 23.5835 11.9825C23.1458 12.2158 22.6007 12.0521 22.3664 11.6144L21.4953 9.98741C21.2642 9.55601 20.8785 9.23993 20.4096 9.09797C19.9403 8.95673 19.4447 9.00521 19.013 9.23705C18.1219 9.71465 17.7849 10.8281 18.2623 11.7196L21.1062 17.0292C21.3405 17.4669 21.1758 18.0122 20.738 18.246C20.6028 18.3186 20.4573 18.3531 20.3141 18.3531Z" fill="#025BDE"/>
<path d="M18.3389 49.3965C18.0183 49.3965 17.7077 49.2244 17.5454 48.9215L3.43229 22.573C2.97425 21.7181 2.87621 20.7359 3.15725 19.8072C3.43829 18.8778 4.06385 18.1142 4.91957 17.6561C5.77421 17.1981 6.75629 17.1005 7.68569 17.3814C8.61413 17.6624 9.37769 18.2877 9.83609 19.1433L15.695 30.0814C15.9293 30.519 15.7645 31.0642 15.3269 31.2982C14.8889 31.5314 14.3438 31.3678 14.1095 30.93L8.25053 19.9919C8.01941 19.5605 7.63373 19.2444 7.16513 19.1025C6.69485 18.9612 6.19997 19.0103 5.76857 19.2416C5.33657 19.4734 5.02037 19.8582 4.87889 20.327C4.73693 20.7962 4.78649 21.2921 5.01761 21.7235L19.1311 48.073C19.3654 48.5106 19.2007 49.0558 18.7629 49.2898C18.6278 49.362 18.4822 49.3965 18.3389 49.3965Z" fill="#025BDE"/>
</svg>
