<svg width="45" height="46" viewBox="0 0 45 46" fill="none" xmlns="http://www.w3.org/2000/svg">
<path fill-rule="evenodd" clip-rule="evenodd" d="M22.0316 5.14921C32.4596 5.14921 30.0858 3.7806 35.2877 12.8037C36.1052 14.2087 38.576 18.8838 39.1271 19.8103C42.1671 24.8063 41.7856 24.1584 37.4012 31.7766C35.4815 35.1012 34.3612 37.7415 32.6534 38.8618C30.2008 40.4545 26.9186 39.7944 22.0376 39.528C17.1566 39.7944 13.8683 40.4606 11.4218 38.8618C9.71406 37.7415 8.59374 35.1012 6.67405 31.7766C2.2836 24.1584 1.90814 24.8063 4.94815 19.8103C5.49923 18.8777 7.96999 14.2087 8.78753 12.8037C13.9773 3.7806 11.6035 5.14921 22.0316 5.14921Z" fill="#025BDE"/>
<path fill-rule="evenodd" clip-rule="evenodd" d="M36.4088 14.8205C37.4322 16.722 38.7463 19.1686 39.1278 19.8165C42.1678 24.8126 41.7863 24.1646 37.4019 31.7828C35.4822 35.1074 34.3619 37.7477 32.6542 38.8681C30.2016 40.4607 26.9193 39.8007 22.0384 39.5342C17.1574 39.8007 13.8691 40.4668 11.4226 38.8681C9.71482 37.7477 8.59449 35.1074 6.6748 31.7828C12.8033 21.8089 29.7656 33.2241 36.4088 14.8205Z" fill="#0D3D65" fill-opacity="0.1"/>
<path d="M5.79042 9.10367C6.45655 7.92884 7.0258 6.89935 7.51632 6.00915C7.9705 5.17345 8.37018 4.47098 8.71536 3.8654C8.41257 3.71401 8.0674 3.61711 7.72827 3.61711C7.09847 3.61711 6.55344 3.8654 6.13559 4.28325C5.73591 4.68293 5.48763 5.23401 5.48763 5.85776V7.07497C5.48763 7.51099 5.12427 7.85617 4.68826 7.85617C4.25224 7.85617 3.90706 7.51705 3.90706 7.07497V5.85776C3.90706 4.79194 4.32491 3.84723 5.00922 3.16293C5.71169 2.46045 6.66245 2.0426 7.72827 2.0426C8.39441 2.0426 9.01815 2.21217 9.56923 2.51496C10.084 1.83065 10.5563 1.37647 11.1437 1.04945C12.3428 0.383317 13.7296 0.462043 16.3881 0.577103C17.793 0.655829 19.5976 0.728498 22.0321 0.728498C23.8912 0.728498 25.2598 0.692162 26.4225 0.673995C29.8985 0.595269 31.6244 0.558936 33.0536 1.39464C34.4767 2.21217 35.3124 3.73217 36.9838 6.77218C37.5712 7.85617 38.2737 9.12789 39.1276 10.6116L39.1458 10.6479C39.9996 12.1316 40.7384 13.3427 41.3682 14.3722C43.1729 17.3517 44.0631 18.8353 44.0631 20.4704C44.0631 20.5067 44.0631 20.5491 44.0631 20.5855C44.0631 20.6036 44.0631 20.6218 44.0631 20.64V27.6465C44.0631 29.2029 43.7966 29.6389 42.4704 31.7887C41.9375 32.6426 41.2168 33.8234 40.2116 35.5493C39.394 36.9543 38.6734 38.2684 38.0678 39.3645C37.7287 39.9943 37.438 40.5393 37.0989 41.1146C34.5555 45.6141 33.853 45.5959 27.5065 45.4627C26.368 45.4445 24.9994 45.4263 23.1161 45.4263C22.3167 45.4263 22.9465 45.4082 22.565 45.4082L22.0321 45.4263L21.4991 45.4082C21.1176 45.4082 21.7474 45.4263 20.9481 45.4263C19.0647 45.4263 17.7022 45.4445 16.5576 45.4627C10.2111 45.5959 9.50868 45.6141 6.94707 41.1146C6.62612 40.5454 6.31727 39.9943 5.99631 39.3645C5.39073 38.2623 4.66404 36.9543 3.85256 35.5493C2.8473 33.8234 2.12666 32.6426 1.59375 31.7887C0.261471 29.6449 0.00106849 29.2029 0.00106849 27.6465V20.64C0.00106849 20.6036 0.00106849 20.5855 0.00106849 20.5612C-0.0352663 18.8898 0.854936 17.4062 2.6959 14.3662C3.01686 13.8514 3.36204 13.264 3.94945 12.2769C4.17957 11.8954 4.65193 11.7803 5.03344 12.0104C5.41496 12.2224 5.53001 12.7129 5.31806 13.0944C4.97894 13.6637 4.48236 14.463 4.04634 15.1837C2.32044 18.0299 1.50291 19.3804 1.57558 20.6339C1.6543 21.7906 2.46578 23.141 4.04634 25.745C4.69431 26.829 5.46946 28.1007 6.30516 29.542C7.17719 31.0802 7.87966 32.3337 8.47313 33.3995C9.99314 36.1912 10.7743 37.578 11.8159 38.1836C12.8394 38.7892 14.4381 38.7528 17.6113 38.6802C18.9012 38.662 20.4394 38.6257 22.0381 38.6257C23.6308 38.6257 25.175 38.662 26.4649 38.6802C29.6381 38.7589 31.2308 38.7952 32.2603 38.1836C33.308 37.578 34.0649 36.1912 35.6031 33.3995C36.1724 32.3761 36.8567 31.1407 37.7711 29.542C38.6431 28.0401 39.388 26.8048 40.0299 25.745C41.6831 23.0259 42.5007 21.6816 42.5007 20.4643C42.5007 19.2653 41.6831 17.9027 40.0299 15.1837C39.4001 14.136 38.6613 12.9249 37.7892 11.423L37.7711 11.3867C36.8809 9.8667 36.1966 8.59498 35.6031 7.52916C34.0649 4.73744 33.3019 3.35066 32.2603 2.76324C31.2369 2.15766 29.6381 2.194 26.4649 2.2485C25.175 2.28484 23.6368 2.30301 22.0381 2.30301C19.6824 2.30301 17.8051 2.22428 16.3214 2.15161C13.9657 2.03655 12.7122 1.98205 11.9128 2.41806C11.5131 2.64818 11.174 3.00548 10.7743 3.55655C11.2709 4.20452 11.5555 4.99783 11.5555 5.85776V15.9467C11.5555 16.3827 11.1922 16.7461 10.7562 16.7461C10.4897 16.7461 10.2596 16.6129 10.1264 16.4251L7.92205 20.4886V22.6142C7.92205 23.0502 7.58293 23.4135 7.14086 23.4135C6.69878 23.4135 6.34149 23.0502 6.34149 22.6142V12.5191C6.34149 11.9136 6.09321 11.3625 5.67536 10.9446C5.27567 10.5449 4.7246 10.2967 4.10085 10.2967C3.49527 10.2967 2.92602 10.5449 2.52634 10.9446C2.12666 11.3625 1.87837 11.9136 1.87837 12.5191V13.7364C1.87837 14.1724 1.51502 14.5357 1.079 14.5357C0.642986 14.5357 0.279641 14.1724 0.279641 13.7364V12.5191C0.279641 11.4715 0.715659 10.5268 1.39996 9.8243C2.10244 9.14 3.0532 8.72215 4.09479 8.72215C4.70643 8.72215 5.28173 8.85538 5.79042 9.10367ZM9.95075 10.9265L7.916 14.6871V17.1579L9.95075 13.3972V10.9265ZM7.80699 11.5926L9.95075 7.62V5.8517C9.95075 5.58525 9.91441 5.33696 9.81752 5.09473C9.55107 5.5913 9.24827 6.14238 8.90309 6.76613C8.38835 7.69872 7.78277 8.77665 7.04396 10.0908C7.40731 10.5268 7.67377 11.0415 7.80699 11.5926ZM42.4886 24.6973C42.1676 25.2484 41.7861 25.854 41.3682 26.5565C40.7384 27.6041 39.9814 28.8335 39.1276 30.3353C38.3101 31.7402 37.5894 33.0543 36.9838 34.1504C35.3124 37.2086 34.4767 38.7286 33.0536 39.5462C31.6305 40.3637 29.8985 40.3274 26.4225 40.2486C25.2659 40.2305 23.8972 40.2123 22.0321 40.2123C20.1669 40.2123 18.8043 40.2305 17.6416 40.2486C14.1656 40.3274 12.4397 40.3637 11.0105 39.5462C9.5874 38.7286 8.7517 37.2086 7.0803 34.1504C6.49289 33.0846 5.79041 31.7947 4.93654 30.3353C4.04634 28.779 3.30148 27.5799 2.6959 26.5565C2.27805 25.854 1.89653 25.2484 1.57558 24.6973V27.6405C1.57558 28.7608 1.8057 29.1423 2.92602 30.9469C3.49527 31.8371 4.23407 33.0543 5.22722 34.7439C6.14165 36.3366 6.80173 37.572 7.37098 38.6015C7.75249 39.2858 8.07345 39.8732 8.33991 40.3274C10.4292 44.0153 11.0347 43.9911 16.5273 43.8821C17.8172 43.8639 19.3554 43.8276 20.9541 43.8276C21.372 43.8276 20.7664 43.8276 21.5052 43.8276L22.0381 43.8458L22.571 43.8276C23.3098 43.8276 22.7043 43.8276 23.1221 43.8276C24.7148 43.8276 26.259 43.8639 27.5489 43.8821C33.0355 43.9972 33.6471 44.0153 35.7363 40.3274C36.0028 39.8732 36.3237 39.2797 36.6871 38.6015C37.2563 37.578 37.9406 36.3426 38.8551 34.7439C39.8422 33.0543 40.581 31.8371 41.132 30.9469C42.2705 29.1423 42.5007 28.7608 42.5007 27.6405V24.6973H42.4886Z" fill="white"/>
</svg>
