<svg width="30" height="31" viewBox="0 0 30 31" fill="none" xmlns="http://www.w3.org/2000/svg">
<path d="M24.125 7.90918C25.375 9.28418 26.125 10.7842 26.125 13.2842C26.125 17.6592 23 21.5342 18.625 23.5342L17.5 21.9092C21.625 19.6592 22.5 16.7842 22.75 14.9092C22.125 15.2842 21.25 15.4092 20.375 15.2842C18.125 15.0342 16.375 13.2842 16.375 10.9092C16.375 9.78418 16.875 8.65918 17.625 7.78418C18.5 6.90918 19.5 6.53418 20.75 6.53418C22.125 6.53418 23.375 7.15918 24.125 7.90918ZM11.625 7.90918C12.875 9.28418 13.625 10.7842 13.625 13.2842C13.625 17.6592 10.5 21.5342 6.125 23.5342L5 21.9092C9.125 19.6592 10 16.7842 10.25 14.9092C9.625 15.2842 8.75 15.4092 7.875 15.2842C5.625 15.0342 3.875 13.2842 3.875 10.9092C3.875 9.78418 4.375 8.65918 5.125 7.78418C5.875 6.90918 7 6.53418 8.25 6.53418C9.625 6.53418 10.875 7.15918 11.625 7.90918Z" fill="#025BDE"/>
</svg>
